{
.appVersion = "3151";
.formatVersion = 3;
axes = (
{
name = Weight;
tag = wght;
},
{
name = Width;
tag = wdth;
},
{
name = Slant;
tag = slnt;
}
);
classes = (
{
code = "zero one two three four five six seven eight nine ";
name = Num;
},
{
code = "zero.canadian one.canadian two.canadian three.canadian four.canadian five.canadian six.canadian seven.canadian eight.canadian nine.canadian 
";
name = Num_can;
},
{

glyphs = (
{
glyphname = idotless;
lastChange = "2023-01-13 15:28:23 +0000";
layers = (
{
layerId = "96DCC2AB-F6C9-4D02-A366-260ACDE51568";
shapes = (
{
closed = 1;
nodes = (
(120,0,l),
(234,539,l),
(136,539,l),
(21,0,l)
);
}
);
width = 247;
}
);
note = dotlessi;
unicode = 305;
},
{
glyphname = "acuteFinal-canadian";
lastChange = "2023-01-13 15:28:23 +0000";
layers = (
{
layerId = "96DCC2AB-F6C9-4D02-A366-260ACDE51568";
shapes = (
{
closed = 1;
nodes = (
(149.005,357,l),
(386,714,l),
(302,714,l),
(65,357,l)
);
}
);
width = 329;
}
);
metricRight = "=|";
note = uni141F;
unicode = 5151;
},
{
glyphname = "graveFinal-canadian";
kernLeft = mwestleft;
kernRight = mwestright;
lastChange = "2023-01-13 15:28:23 +0000";
layers = (
{
layerId = "96DCC2AB-F6C9-4D02-A366-260ACDE51568";
shapes = (
{
closed = 1;
nodes = (
(310,357,l),
(216,714,l),
(141,714,l),
(235,357,l)
);
}
);
width = 329;
}
);
metricLeft = "=|acuteFinal-canadian";
metricRight = "=|acuteFinal-canadian";
note = uni1420;
unicode = 5152;
},
{
glyphname = "ringBottomhalfFinal-canadian";
kernLeft = mwestleft;
kernRight = mwestright;
lastChange = "2023-01-13 15:28:23 +0000";
layers = (
{
layerId = "96DCC2AB-F6C9-4D02-A366-260ACDE51568";
shapes = (
{
closed = 1;
nodes = (
(353,351,o),
(406,404,o),
(426,495,cs),
(472,714,l),
(402,714,l),
(358,508,ls),
(344,444,o),
(315,416,o),
(260,416,cs),
(202,416,o),
(180,449,o),
(193,513,cs),
(236,714,l),
(165,714,l),
(124,517,ls),
(102,414,o),
(150,351,o),
(255,351,cs)
);
}
);
width = 439;
}
);
metricLeft = "ai-canadian";
metricRight = "==|ai-canadian";
note = uni1421;
unicode = 5153;
},
{
glyphname = "ringTophalfFinal-canadian";
lastChange = "2023-01-13 15:28:23 +0000";
layers = (
{
layerId = "96DCC2AB-F6C9-4D02-A366-260ACDE51568";
shapes = (
{
closed = 1;
nodes = (
(160,357,l),
(204,563,ls),
(217,627,o),
(247,655,o),
(302,655,cs),
(360,655,o),
(382,622,o),
(368,558,cs),
(326,357,l),
(396,357,l),
(438,554,ls),
(460,657,o),
(412,720,o),
(307,720,cs),
(209,720,o),
(156,667,o),
(136,576,cs),
(89,357,l)
);
}
);
width = 439;
}
);
metricLeft = "ai-canadian";
metricRight = "==|ai-canadian";
note = uni1422;
unicode = 5154;
},
{
glyphname = "ringRighthalfFinal-canadian";
kernLeft = mwestleft;
kernRight = mwestright;
lastChange = "2023-01-13 15:29:06 +0000";
layers = (
{
layerId = "96DCC2AB-F6C9-4D02-A366-260ACDE51568";
shapes = (
{
closed = 1;
nodes = (
(166,357,ls),
(310,357,o),
(382,455,o),
(382,573,cs),
(382,660,o),
(327,714,o),
(233,714,cs),
(162,714,l),
(148,648,l),
(223,648,ls),
(282,648,o),
(311,619,o),
(311,567,cs),
(311,502,o),
(280,423,o),
(175,423,cs),
(100,423,l),
(86,357,l)
);
}
);
width = 382;
}
);
metricLeft = "=|t-canadian";
metricWidth = "t-canadian";
note = uni1423;
unicode = 5155;
},
{
glyphname = "ringFinal-canadian";
kernLeft = mwestleft;
kernRight = mwestright;
lastChange = "2023-01-13 15:28:23 +0000";
layers = (
{
layerId = "96DCC2AB-F6C9-4D02-A366-260ACDE51568";
shapes = (
{
closed = 1;
nodes = (
(409,368,o),
(485,443,o),
(485,544,cs),
(485,645,o),
(407,720,o),
(305,720,cs),
(203,720,o),
(126,645,o),
(126,544,cs),
(126,443,o),
(201,368,o),
(305,368,cs)
);
},
{
closed = 1;
nodes = (
(237,429,o),
(192,478,o),
(192,544,cs),
(192,610,o),
(238,659,o),
(305,659,cs),
(371,659,o),
(418,610,o),
(418,544,cs),
(418,478,o),
(372,429,o),
(305,429,cs)
);
}
);
width = 484;
}
);
note = uni1424;
unicode = 5156;
},
{
glyphname = "doubleacuteFinal-canadian";
lastChange = "2023-01-13 15:28:23 +0000";
layers = (
{
layerId = "96DCC2AB-F6C9-4D02-A366-260ACDE51568";
shapes = (
{
closed = 1;
nodes = (
(147,357,l),
(386,714,l),
(304,714,l),
(65,357,l)
);
},
{
closed = 1;
nodes = (
(304,357,l),
(542,714,l),
(460,714,l),
(221,357,l)
);
}
);
width = 485;
}
);
metricLeft = "acuteFinal-canadian";
metricRight = "=|";
note = uni1425;
unicode = 5157;
},
{
glyphname = "doubleshortverticalstrokesFinal-canadian";
kernLeft = mwestleft;
kernRight = mwestright;
lastChange = "2023-01-13 15:28:23 +0000";
layers = (
{
layerId = "96DCC2AB-F6C9-4D02-A366-260ACDE51568";
shapes = (
{
closed = 1;
nodes = (
(160,357,l),
(236,714,l),
(165,714,l),
(89,357,l)
);
},
{
closed = 1;
nodes = (
(299,357,l),
(375,714,l),
(305,714,l),
(229,357,l)
);
}
);
width = 342;
}
);
metricLeft = "pWestCree-canadian";
metricRight = "pWestCree-canadian";
note = uni1426;
unicode = 5158;
},
{
glyphname = "middledotFinal-canadian";
lastChange = "2023-01-13 15:28:23 +0000";
layers = (
{
layerId = "96DCC2AB-F6C9-4D02-A366-260ACDE51568";
shapes = (
{
closed = 1;
nodes = (
(173,310,o),
(198,335,o),
(198,367,cs),
(198,399,o),
(173,424,o),
(141,424,cs),
(110,424,o),
(85,399,o),
(85,367,cs),
(85,335,o),
(110,310,o),
(141,310,cs)
);
}
);
width = 232;
}
);
note = uni1427;
unicode = 5159;
},
{
glyphname = "shorthorizontalstrokeFinal-canadian";
kernLeft = mwestleft;
kernRight = mwestright;
lastChange = "2023-01-13 15:29:06 +0000";
layers = (
{
layerId = "96DCC2AB-F6C9-4D02-A366-260ACDE51568";
shapes = (
{
closed = 1;
nodes = (
(451,506,l),
(466,577,l),
(135,577,l),
(119,506,l)
);
}
);
width = 460;
}
);
metricRight = "=|";
note = uni1428;
unicode = 5160;
},
{
glyphname = "plusFinal-canadian";
kernLeft = mwestleft;
kernRight = mwestright;
lastChange = "2023-01-13 15:29:06 +0000";
layers = (
{
layerId = "96DCC2AB-F6C9-4D02-A366-260ACDE51568";
shapes = (
{
closed = 1;
nodes = (
(292,375,l),
(321,513,l),
(452,513,l),
(466,579,l),
(335,579,l),
(364,714,l),
(294,714,l),
(266,579,l),
(134,579,l),
(120,513,l),
(252,513,l),
(222,375,l)
);
}
);
width = 460;
}
);
metricLeft = "shorthorizontalstrokeFinal-canadian";
metricRight = "shorthorizontalstrokeFinal-canadian";
note = uni1429;
unicode = 5161;
},
{
glyphname = "downtackFinal-canadian";
kernLeft = mwestleft;
kernRight = mwestright;
lastChange = "2023-01-13 15:28:23 +0000";
layers = (
{
layerId = "96DCC2AB-F6C9-4D02-A366-260ACDE51568";
shapes = (
{
closed = 1;
nodes = (
(290,357,l),
(351,647,l),
(481,647,l),
(496,714,l),
(164,714,l),
(149,647,l),
(280,647,l),
(219,357,l)
);
}
);
width = 461;
}
);
metricLeft = "shorthorizontalstrokeFinal-canadian";
metricRight = "shorthorizontalstrokeFinal-canadian";
note = uni142A;
unicode = 5162;
},
{
glyphname = "thFinalWoodScree-canadian";
lastChange = "2023-01-13 15:29:06 +0000";
layers = (
{
layerId = "96DCC2AB-F6C9-4D02-A366-260ACDE51568";
shapes = (
{
closed = 1;
nodes = (
(292,357,l),
(309,435,l),
(437,435,l),
(450,493,l),
(321,493,l),
(339,578,l),
(468,578,l),
(480,636,l),
(352,636,l),
(368,714,l),
(297,714,l),
(281,636,l),
(149,636,l),
(137,578,l),
(268,578,l),
(250,493,l),
(119,493,l),
(106,435,l),
(238,435,l),
(221,357,l)
);
}
);
width = 464;
}
);
metricLeft = "hyphen-canadian";
metricRight = "hyphen-canadian";
note = uni167E;
unicode = 5758;
},
{
glyphname = "ringSmallFinal-canadian";
kernLeft = mwestleft;
kernRight = mwestright;
lastChange = "2023-01-13 15:28:23 +0000";
layers = (
{
layerId = "96DCC2AB-F6C9-4D02-A366-260ACDE51568";
shapes = (
{
closed = 1;
nodes = (
(312,517,o),
(362,560,o),
(362,622,cs),
(362,684,o),
(312,727,o),
(253,727,cs),
(195,727,o),
(146,684,o),
(146,622,cs),
(146,560,o),
(195,517,o),
(253,517,cs)
);
},
{
closed = 1;
nodes = (
(218,563,o),
(196,589,o),
(196,622,cs),
(196,655,o),
(220,681,o),
(254,681,cs),
(289,681,o),
(312,655,o),
(312,622,cs),
(312,589,o),
(289,563,o),
(254,563,cs)
);
}
);
width = 349;
}
);
note = g725;
unicode = 6366;
},
{
glyphname = "raiseddotFinal-canadian";
kernLeft = mwestleft;
kernRight = mwestright;
lastChange = "2023-01-13 15:28:23 +0000";
layers = (
{
layerId = "96DCC2AB-F6C9-4D02-A366-260ACDE51568";
shapes = (
{
closed = 1;
nodes = (
(239,614,o),
(264,639,o),
(264,671,cs),
(264,702,o),
(239,727,o),
(207,727,cs),
(175,727,o),
(150,702,o),
(150,671,cs),
(150,639,o),
(175,614,o),
(207,614,cs)
);
}
);
width = 234;
}
);
note = g725;
unicode = 6367;
},
{
glyphname = "plusFinal-canadian.base";
lastChange = "2023-01-13 15:29:06 +0000";
layers = (
{
layerId = "96DCC2AB-F6C9-4D02-A366-260ACDE51568";
shapes = (
{
closed = 1;
nodes = (
(213,0,l),
(242,138,l),
(373,138,l),
(387,204,l),
(257,204,l),
(285,339,l),
(216,339,l),
(187,204,l),
(55,204,l),
(41,138,l),
(173,138,l),
(144,0,l)
);
}
);
width = 460;
}
);
metricLeft = "shorthorizontalstrokeFinal-canadian";
metricRight = "shorthorizontalstrokeFinal-canadian";
note = uni1429;
},
{
glyphname = "e-canadian";
kernLeft = ecanleft;
kernRight = ecanright;
lastChange = "2023-01-13 15:28:23 +0000";
layers = (
{
anchors = (
{
name = middle_center_can;
pos = (415,470);
},
{
name = top_center_can;
pos = (468,714);
},
{
name = top_left_can;
pos = (233,714);
},
{
name = top_right_can;
pos = (703,714);
}
);
layerId = "96DCC2AB-F6C9-4D02-A366-260ACDE51568";
shapes = (
{
closed = 1;
nodes = (
(337,0,l),
(801,687,l),
(807,714,l),
(133,714,l),
(127,687,l),
(300,0,l)
);
},
{
closed = 1;
nodes = (
(355,117,l),
(229,655,l),
(213,632,l),
(692,632,l),
(673,655,l),
(320,117,l)
);
}
);
width = 742;
}
);
metricRight = "=|";
note = uni1401;
unicode = 5121;
},
{
glyphname = "i-canadian";
kernLeft = icanleft;
kernRight = icanright;
lastChange = "2023-01-13 15:28:23 +0000";
layers = (
{
anchors = (
{
name = middle_center_can;
pos = (402,367);
},
{
name = top_center_can;
pos = (470,714);
},
{
name = top_left_can;
pos = (235,714);
},
{
name = top_right_can;
pos = (705,714);
}
);
layerId = "96DCC2AB-F6C9-4D02-A366-260ACDE51568";
shapes = (
{
closed = 1;
nodes = (
(451,714,l),
(-13,27,l),
(-19,0,l),
(655,0,l),
(661,27,l),
(488,714,l)
);
},
{
closed = 1;
nodes = (
(433,597,l),
(559,59,l),
(575,82,l),
(96,82,l),
(115,59,l),
(468,597,l)
);
}
);
width = 742;
}
);
metricLeft = "e-canadian";
metricWidth = "e-canadian";
note = uni1403;
unicode = 5123;
},
{
glyphname = "o-canadian";
kernLeft = ocanleft;
kernRight = ocanright;
lastChange = "2023-01-13 15:28:23 +0000";
layers = (
{
anchors = (
{
name = middle_center_can;
pos = (309,366);
},
{
name = top_center_can;
pos = (471,714);
},
{
name = top_double;
pos = (569,714);
},
{
name = top_left_can;
pos = (221,714);
},
{
name = top_right_can;
pos = (719,714);
}
);
layerId = "96DCC2AB-F6C9-4D02-A366-260ACDE51568";
shapes = (
{
closed = 1;
nodes = (
(52,0,l),
(685,339,l),
(693,375,l),
(204,714,l),
(178,714,l),
(26,0,l)
);
},
{
closed = 1;
nodes = (
(240,609,l),
(210,613,l),
(580,354,l),
(583,376,l),
(106,118,l),
(134,110,l)
);
}
);
width = 701;
}
);
metricLeft = "nunavuth-canadian";
note = uni1405;
unicode = 5125;
},
{
glyphname = "eeCarrier-canadian";
lastChange = "2023-01-13 15:28:23 +0000";
layers = (
{
layerId = "96DCC2AB-F6C9-4D02-A366-260ACDE51568";
shapes = (
{
closed = 1;
nodes = (
(52,0,l),
(685,338,l),
(693,375,l),
(204,714,l),
(178,714,l),
(26,0,l)
);
},
{
closed = 1;
nodes = (
(238,609,l),
(215,610,l),
(582,354,l),
(587,377,l),
(110,120,l),
(132,110,l)
);
},
{
closed = 1;
nodes = (
(307,278,l),
(343,448,l),
(304,448,l),
(268,278,l)
);
}
);
width = 701;
}
);
metricLeft = "nunavuth-canadian";
metricRight = "o-canadian";
note = uni1408;
unicode = 5128;
},
{
glyphname = "a-canadian";
kernLeft = acanleft;
kernRight = acanright;
lastChange = "2023-01-13 15:29:07 +0000";
layers = (
{
anchors = (
{
name = middle_center_can;
pos = (428,353);
},
{
name = top_center_can;
pos = (423,714);
},
{
name = top_left_can;
pos = (179,714);
},
{
name = top_right_can;
pos = (678,714);
}
);
layerId = "96DCC2AB-F6C9-4D02-A366-260ACDE51568";
shapes = (
{
closed = 1;
nodes = (
(695.007,714,l),
(62,375,l),
(54,339,l),
(543.007,0,l),
(570,0,l),
(722,714,l)
);
},
{
closed = 1;
nodes = (
(507,105,l),
(537,101,l),
(167,360,l),
(164,338,l),
(641,596,l),
(613,604,l)
);
}
);
width = 702;
}
);
metricRight = "nunavuth-canadian";
note = uni140A;
unicode = 5130;
},
{
glyphname = "ai-canadian";
lastChange = "2023-01-13 15:28:23 +0000";
layers = (
{
layerId = "96DCC2AB-F6C9-4D02-A366-260ACDE51568";
shapes = (
{
closed = 1;
nodes = (
(306,351,o),
(348,381,o),
(378,442,c),
(358,445,l),
(363,383,o),
(402,351,o),
(471,351,cs),
(564,351,o),
(614,400,o),
(638,509,cs),
(681,714,l),
(614,714,l),
(571,507,ls),
(557,441,o),
(528,413,o),
(474,413,cs),
(419,413,o),
(399,443,o),
(413,508,cs),
(457,714,l),
(390,714,l),
(346,508,ls),
(332,442,o),
(302,413,o),
(251,413,cs),
(197,413,o),
(175,445,o),
(188,507,cs),
(232,714,l),
(165,714,l),
(122,509,ls),
(102,413,o),
(149,351,o),
(242,351,cs)
);
}
);
width = 649;
}
);
metricRight = "=|";
note = uni141C;
unicode = 5148;
},
{
glyphname = "ycreew-canadian";
lastChange = "2023-01-13 15:28:23 +0000";
layers = (
{
layerId = "96DCC2AB-F6C9-4D02-A366-260ACDE51568";
shapes = (
{
closed = 1;
nodes = (
(438,528,o),
(476,568,o),
(476,624,cs),
(476,681,o),
(439,720,o),
(388,720,cs),
(336,720,o),
(298,681,o),
(298,624,cs),
(298,568,o),
(336,528,o),
(387,528,cs)
);
},
{
closed = 1;
nodes = (
(249,351,o),
(286,391,o),
(286,447,cs),
(286,504,o),
(249,543,o),
(198,543,cs),
(147,543,o),
(108,504,o),
(108,447,cs),
(108,391,o),
(146,351,o),
(197,351,cs)
);
},
{
closed = 1;
nodes = (
(168,388,o),
(148,412,o),
(148,447,cs),
(148,482,o),
(168,506,o),
(197,506,cs),
(227,506,o),
(247,482,o),
(247,447,cs),
(247,412,o),
(227,388,o),
(197,388,cs)
);
},
{
closed = 1;
nodes = (
(357,565,o),
(338,589,o),
(338,624,cs),
(338,659,o),
(358,683,o),
(387,683,cs),
(416,683,o),
(436,659,o),
(436,624,cs),
(436,589,o),
(416,565,o),
(387,565,cs)
);
}
);
width = 462;
}
);
metricRight = "=|";
note = uni141D;
unicode = 5149;
},
{
glyphname = "glottalstop-canadian";
lastChange = "2023-01-13 15:29:06 +0000";
layers = (
{
layerId = "96DCC2AB-F6C9-4D02-A366-260ACDE51568";
shapes = (
{
closed = 1;
nodes = (
(417,357,l),
(421,372,l),
(334,714,l),
(315,714,l),
(83,372,l),
(80,357,l)
);
},
{
closed = 1;
nodes = (
(332,648,l),
(297,649,l),
(359,387,l),
(376,410,l),
(145,410,l),
(158,387,l)
);
}
);
width = 452;
}
);
metricRight = "=|";
note = uni141E;
unicode = 5150;
},
{
glyphname = "pe-canadian";
kernLeft = ecanleft;
kernRight = ecanright;
lastChange = "2023-01-13 15:28:23 +0000";
layers = (
{
anchors = (
{
name = middle_center_can;
pos = (411,470);
},
{
name = top_center_can;
pos = (470,714);
},
{
name = top_left_can;
pos = (233,714);
},
{
name = top_right_can;
pos = (703,714);
}
);
layerId = "96DCC2AB-F6C9-4D02-A366-260ACDE51568";
shapes = (
{
closed = 1;
nodes = (
(336,0,l),
(801,687,l),
(807,714,l),
(704,714,l),
(308,118,l),
(364,118,l),
(222,714,l),
(133,714,l),
(127,687,l),
(300,0,l)
);
}
);
width = 742;
}
);
metricLeft = "e-canadian";
metricRight = "e-canadian";
note = uni142F;
unicode = 5167;
},
{
glyphname = "pi-canadian";
kernLeft = icanleft;
kernRight = icanright;
lastChange = "2023-01-13 15:28:23 +0000";
layers = (
{
anchors = (
{
name = middle_center_can;
pos = (403,367);
},
{
name = top_center_can;
pos = (470,714);
},
{
name = top_left_can;
pos = (233,714);
},
{
name = top_right_can;
pos = (703,714);
}
);
layerId = "96DCC2AB-F6C9-4D02-A366-260ACDE51568";
shapes = (
{
closed = 1;
nodes = (
(452,714,l),
(-13,27,l),
(-19,0,l),
(84,0,l),
(480,596,l),
(424,596,l),
(566,0,l),
(655,0,l),
(661,27,l),
(488,714,l)
);
}
);
width = 742;
}
);
metricLeft = "e-canadian";
metricRight = "e-canadian";
note = uni1431;
unicode = 5169;
},
{
glyphname = "po-canadian";
kernLeft = ocanleft;
kernRight = ocanright;
lastChange = "2023-01-13 15:29:06 +0000";
layers = (
{
anchors = (
{
name = middle_center_can;
pos = (239,368);
},
{
name = top_center_can;
pos = (444,714);
},
{
name = top_double;
pos = (548,714);
},
{
name = top_left_can;
pos = (198,714);
},
{
name = top_right_can;
pos = (690,714);
}
);
layerId = "96DCC2AB-F6C9-4D02-A366-260ACDE51568";
name = "Thin Slanted";
shapes = (
{
closed = 1;
nodes = (
(29,0,l),
(657,339,l),
(664,375,l),
(181,714,l),
(154,714,l),
(137,631,l),
(545,344,l),
(554,389,l),
(24,103,l),
(3,0,l)
);
}
);
width = 673;
}
);
metricRight = "o-canadian";
note = uni1433;
unicode = 5171;
},
{
glyphname = "pa-canadian";
kernLeft = acanleft;
kernRight = acanright;
lastChange = "2023-01-13 15:28:23 +0000";
layers = (
{
anchors = (
{
name = middle_center_can;
pos = (360,357);
},
{
name = top_center_can;
pos = (427,714);
},
{
name = top_left_can;
pos = (180,714);
},
{
name = top_right_can;
pos = (673,714);
}
);
layerId = "96DCC2AB-F6C9-4D02-A366-260ACDE51568";
shapes = (
{
closed = 1;
nodes = (
(689,714,l),
(62,375,l),
(55,339,l),
(538,0,l),
(564,0,l),
(582,83,l),
(174,370,l),
(165,325,l),
(694,611,l),
(716,714,l)
);
}
);
width = 672;
}
);
metricRight = "=|po-canadian";
note = uni1438;
unicode = 5176;
},
{
glyphname = "p-canadian";
kernLeft = mwestleft;
kernRight = mwestright;
lastChange = "2023-01-13 15:28:23 +0000";
layers = (
{
layerId = "96DCC2AB-F6C9-4D02-A366-260ACDE51568";
shapes = (
{
closed = 1;
nodes = (
(379,357,l),
(391,415,l),
(193,555,l),
(181,504,l),
(440,643,l),
(455,714,l),
(439,714,l),
(129,546,l),
(125,526,l),
(363,357,l)
);
}
);
width = 423;
}
);
note = uni1449;
unicode = 5193;
},
{
glyphname = "pWestCree-canadian";
kernLeft = mwestleft;
kernRight = mwestright;
lastChange = "2023-01-13 15:28:23 +0000";
layers = (
{
layerId = "96DCC2AB-F6C9-4D02-A366-260ACDE51568";
shapes = (
{
closed = 1;
nodes = (
(160,357,l),
(236,714,l),
(165,714,l),
(89,357,l)
);
}
);
width = 203;
}
);
metricRight = "=|";
note = uni144A;
unicode = 5194;
},
{
color = 6;
glyphname = "hCarrier-canadian";
lastChange = "2023-01-13 15:29:06 +0000";
layers = (
{
layerId = "96DCC2AB-F6C9-4D02-A366-260ACDE51568";
shapes = (
{
closed = 1;
nodes = (
(124,189,l),
(151,319,ls),
(160,362,o),
(187,386,o),
(222,386,cs),
(264,386,o),
(281,360,o),
(271,314,cs),
(244,189,l),
(314,189,l),
(343,326,ls),
(359,400,o),
(320,450,o),
(247,450,cs),
(200,450,o),
(157,423,o),
(145,385,c),
(163,375,l),
(200,546,l),
(129,546,l),
(53,189,l)
);
}
);
width = 371;
}
);
metricLeft = "pWestCree-canadian";
note = uni144B;
unicode = 5195;
},
{
glyphname = "te-canadian";
lastChange = "2023-01-13 15:29:06 +0000";
layers = (
{
anchors = (
{
name = middle_center_can;
pos = (391,357);
},
{
name = top_center_can;
pos = (467,714);
},
{
name = top_left_can;
pos = (219,714);
},
{
name = top_right_can;
pos = (716,714);
}
);
layerId = "96DCC2AB-F6C9-4D02-A366-260ACDE51568";
shapes = (
{
closed = 1;
nodes = (
(527,-13,o),
(632,85,o),
(675,287,cs),
(766,714,l),
(667,714,l),
(577,290,ls),
(545,144,o),
(474,78,o),
(350,78,cs),
(207,78,o),
(150,155,o),
(184,311,cs),
(269,714,l),
(170,714,l),
(85,317,ls),
(41,107,o),
(141,-13,o),
(342,-13,cs)
);
}
);
width = 737;
}
);
metricRight = "=|";
note = uni144C;
unicode = 5196;
},
{
glyphname = "ti-canadian";
lastChange = "2023-01-13 15:29:06 +0000";
layers = (
{
anchors = (
{
name = middle_center_can;
pos = (391,357);
},
{
name = middle_right_can;
pos = (854,357);
},
{
name = top_center_can;
pos = (467,714);
},
{
name = top_left_can;
pos = (219,714);
},
{
name = top_right_can;
pos = (716,714);
}
);
layerId = "96DCC2AB-F6C9-4D02-A366-260ACDE51568";
shapes = (
{
closed = 1;
nodes = (
(116,0,l),
(207,424,ls),
(238,570,o),
(310,636,o),
(433,636,cs),
(576,636,o),
(633,559,o),
(599,403,cs),
(514,0,l),
(613,0,l),
(698,397,ls),
(742,607,o),
(642,727,o),
(441,727,cs),
(256,727,o),
(151,629,o),
(108,427,cs),
(17,0,l)
);
}
);
width = 736;
}
);
metricLeft = "te-canadian";
metricRight = "te-canadian";
note = uni144E;
unicode = 5198;
},
{
glyphname = "to-canadian";
kernLeft = toleft;
lastChange = "2023-01-13 15:28:23 +0000";
layers = (
{
anchors = (
{
name = middle_center_can;
pos = (286,357);
},
{
name = middle_right_can;
pos = (752,357);
},
{
name = top_center_can;
pos = (384,714);
},
{
name = top_double;
pos = (455,714);
},
{
name = top_left_can;
pos = (202,714);
},
{
name = top_right_can;
pos = (620,714);
}
);
layerId = "96DCC2AB-F6C9-4D02-A366-260ACDE51568";
shapes = (
{
closed = 1;
nodes = (
(175,0,ls),
(505,0,o),
(593,262,o),
(593,439,cs),
(593,612,o),
(489,714,o),
(304,714,cs),
(158,714,l),
(139,624,l),
(291,624,ls),
(424,624,o),
(494,557,o),
(494,432,cs),
(494,294,o),
(428,90,o),
(185,90,cs),
(25,90,l),
(6,0,l)
);
}
);
width = 628;
}
);
note = uni1450;
unicode = 5200;
},
{
glyphname = "ta-canadian";
kernRight = taright;
lastChange = "2023-01-13 15:29:06 +0000";
layers = (
{
anchors = (
{
name = middle_center_can;
pos = (388,357);
},
{
name = top_center_can;
pos = (442,714);
},
{
name = top_left_can;
pos = (205,714);
},
{
name = top_right_can;
pos = (623,714);
}
);
layerId = "96DCC2AB-F6C9-4D02-A366-260ACDE51568";
shapes = (
{
closed = 1;
nodes = (
(516,0,l),
(535,90,l),
(383,90,ls),
(249,90,o),
(181,157,o),
(181,282,cs),
(181,422,o),
(248,624,o),
(488,624,cs),
(649,624,l),
(668,714,l),
(498,714,ls),
(170,714,o),
(81,454,o),
(81,275,cs),
(81,102,o),
(184,0,o),
(369,0,cs)
);
}
);
width = 628;
}
);
metricLeft = "=|to-canadian";
metricRight = "=|to-canadian";
note = uni1455;
unicode = 5205;
},
{
glyphname = "t-canadian";
kernLeft = mwestleft;
kernRight = mwestright;
lastChange = "2023-01-13 15:28:23 +0000";
layers = (
{
layerId = "96DCC2AB-F6C9-4D02-A366-260ACDE51568";
shapes = (
{
closed = 1;
nodes = (
(341,357,l),
(356,423,l),
(280,423,ls),
(221,423,o),
(192,452,o),
(192,504,cs),
(192,570,o),
(224,648,o),
(328,648,cs),
(403,648,l),
(417,714,l),
(337,714,ls),
(194,714,o),
(121,616,o),
(121,498,cs),
(121,411,o),
(175,357,o),
(270,357,cs)
);
}
);
width = 382;
}
);
note = uni1466;
unicode = 5222;
},
{
glyphname = "ke-canadian";
lastChange = "2023-01-13 15:29:06 +0000";
layers = (
{
anchors = (
{
name = middle_center_can;
pos = (357,457);
},
{
name = top_center_can;
pos = (396,714);
},
{
name = top_left_can;
pos = (208,714);
},
{
name = top_right_can;
pos = (573,719);
}
);
layerId = "96DCC2AB-F6C9-4D02-A366-260ACDE51568";
shapes = (
{
closed = 1;
nodes = (
(483,0,l),
(574,427,ls),
(605,576,o),
(555,727,o),
(374,727,cs),
(190,727,o),
(106,557,o),
(106,414,cs),
(106,288,o),
(182,205,o),
(301,205,cs),
(377,205,o),
(438,243,o),
(467,308,c),
(452,323,l),
(384,0,l)
);
},
{
closed = 1;
nodes = (
(247,290,o),
(202,339,o),
(202,420,cs),
(202,501,o),
(244,642,o),
(366,642,cs),
(442,642,o),
(487,593,o),
(487,511,cs),
(487,429,o),
(445,290,o),
(323,290,cs)
);
}
);
width = 606;
}
);
metricRight = "te-canadian";
note = uni146B;
unicode = 5227;
},
{
glyphname = "ki-canadian";
lastChange = "2023-01-13 15:29:06 +0000";
layers = (
{
anchors = (
{
name = middle_center_can;
pos = (367,457);
},
{
name = top_center_can;
pos = (402,714);
},
{
name = top_left_can;
pos = (218,714);
},
{
name = top_right_can;
pos = (594,714);
}
);
layerId = "96DCC2AB-F6C9-4D02-A366-260ACDE51568";
shapes = (
{
closed = 1;
nodes = (
(116,0,l),
(189,342,l),
(176,336,l),
(174,268,o),
(240,205,o),
(336,205,cs),
(516,205,o),
(592,382,o),
(592,513,cs),
(592,645,o),
(511,727,o),
(381,727,cs),
(247,727,o),
(153,643,o),
(122,493,cs),
(17,0,l)
);
},
{
closed = 1;
nodes = (
(256,290,o),
(211,339,o),
(211,420,cs),
(211,500,o),
(252,642,o),
(374,642,cs),
(450,642,o),
(496,593,o),
(496,512,cs),
(496,432,o),
(454,290,o),
(332,290,cs)
);
}
);
width = 606;
}
);
metricLeft = "te-canadian";
metricRight = "=|ke-canadian";
note = uni146D;
unicode = 5229;
},
{
glyphname = "ko-canadian";
lastChange = "2023-01-13 15:29:06 +0000";
layers = (
{
anchors = (
{
name = middle_center_can;
pos = (341,368);
},
{
name = top_center_can;
pos = (398,714);
},
{
name = top_double;
pos = (586,714);
},
{
name = top_left_can;
pos = (210,714);
},
{
name = top_right_can;
pos = (586,714);
}
);
layerId = "96DCC2AB-F6C9-4D02-A366-260ACDE51568";
shapes = (
{
closed = 1;
nodes = (
(405,-13,o),
(499,71,o),
(531,221,cs),
(636,714,l),
(536,714,l),
(463,372,l),
(477,378,l),
(479,446,o),
(413,509,o),
(317,509,cs),
(135,509,o),
(60,331,o),
(60,201,cs),
(60,69,o),
(141,-13,o),
(275,-13,cs)
);
},
{
closed = 1;
nodes = (
(202,72,o),
(157,120,o),
(157,202,cs),
(157,282,o),
(200,424,o),
(321,424,cs),
(397,424,o),
(441,375,o),
(441,294,cs),
(441,213,o),
(401,72,o),
(278,72,cs)
);
}
);
width = 607;
}
);
metricLeft = "ke-canadian";
metricRight = "te-canadian";
note = uni146F;
unicode = 5231;
},
{
glyphname = "ka-canadian";
lastChange = "2023-01-13 15:28:23 +0000";
layers = (
{
anchors = (
{
name = middle_center_can;
pos = (349,370);
},
{
name = top_center_can;
pos = (407,714);
},
{
name = top_left_can;
pos = (219,714);
},
{
name = top_right_can;
pos = (595,714);
}
);
layerId = "96DCC2AB-F6C9-4D02-A366-260ACDE51568";
shapes = (
{
closed = 1;
nodes = (
(463,-13,o),
(548,157,o),
(548,299,cs),
(548,427,o),
(471,509,o),
(352,509,cs),
(276,509,o),
(216,471,o),
(186,406,c),
(201,391,l),
(269,714,l),
(170,714,l),
(79,288,ls),
(41,106,o),
(124,-13,o),
(282,-13,cs)
);
},
{
closed = 1;
nodes = (
(211,72,o),
(166,121,o),
(166,203,cs),
(166,285,o),
(208,424,o),
(330,424,cs),
(406,424,o),
(451,375,o),
(451,294,cs),
(451,214,o),
(409,72,o),
(287,72,cs)
);
}
);
width = 607;
}
);
metricLeft = "te-canadian";
metricRight = "==|ke-canadian";
note = uni1472;
unicode = 5234;
},
{
glyphname = "k-canadian";
kernLeft = mwestleft;
kernRight = mwestright;
lastChange = "2023-01-13 15:28:23 +0000";
layers = (
{
layerId = "96DCC2AB-F6C9-4D02-A366-260ACDE51568";
shapes = (
{
closed = 1;
nodes = (
(329,351,o),
(382,437,o),
(382,515,cs),
(382,579,o),
(343,622,o),
(280,622,cs),
(235,622,o),
(200,596,o),
(182,557,c),
(202,554,l),
(236,714,l),
(165,714,l),
(121,507,ls),
(105,428,o),
(134,351,o),
(234,351,cs)
);
},
{
closed = 1;
nodes = (
(203,404,o),
(181,428,o),
(181,465,cs),
(181,511,o),
(209,570,o),
(261,570,cs),
(296,570,o),
(318,547,o),
(318,509,cs),
(318,463,o),
(290,404,o),
(238,404,cs)
);
}
);
width = 386;
}
);
note = uni1483;
unicode = 5251;
},
{
glyphname = "kw-canadian";
kernLeft = mwestleft;
kernRight = mwestright;
lastChange = "2023-01-13 15:29:06 +0000";
layers = (
{
layerId = "96DCC2AB-F6C9-4D02-A366-260ACDE51568";
shapes = (
{
closed = 1;
nodes = (
(299,351,o),
(352,396,o),
(370,481,cs),
(420,714,l),
(349,714,l),
(314,550,l),
(330,550,l),
(329,591,o),
(293,622,o),
(244,622,cs),
(157,622,o),
(107,539,o),
(107,464,cs),
(107,396,o),
(153,351,o),
(225,351,cs)
);
},
{
closed = 1;
nodes = (
(192,404,o),
(170,427,o),
(170,465,cs),
(170,510,o),
(198,569,o),
(250,569,cs),
(285,569,o),
(308,545,o),
(308,508,cs),
(308,464,o),
(280,404,o),
(227,404,cs)
);
}
);
width = 387;
}
);
metricLeft = "=|k-canadian";
metricRight = "=|k-canadian";
note = uni1484;
unicode = 5252;
},
{
glyphname = "ce-canadian";
kernLeft = celeft;
lastChange = "2023-01-13 15:28:23 +0000";
layers = (
{
anchors = (
{
name = middle_center_can;
pos = (347,413);
},
{
name = top_center_can;
pos = (398,714);
},
{
name = top_left_can;
pos = (210,714);
},
{
name = top_right_can;
pos = (581,714);
}
);
layerId = "96DCC2AB-F6C9-4D02-A366-260ACDE51568";
shapes = (
{
closed = 1;
nodes = (
(478,0,l),
(574,450,ls),
(609,614,o),
(529,727,o),
(373,727,cs),
(232,727,o),
(147,645,o),
(111,481,cs),
(94,401,l),
(192,401,l),
(209,478,ls),
(232,590,o),
(282,640,o),
(365,640,cs),
(461,640,o),
(500,571,o),
(476,461,cs),
(379,0,l)
);
}
);
width = 601;
}
);
metricRight = "te-canadian";
note = uni1489;
unicode = 5257;
},
{
glyphname = "ci-canadian";
kernRight = ciright;
lastChange = "2023-01-13 15:28:23 +0000";
layers = (
{
anchors = (
{
name = middle_center_can;
pos = (350,413);
},
{
name = top_center_can;
pos = (408,714);
},
{
name = top_left_can;
pos = (219,714);
},
{
name = top_right_can;
pos = (591,714);
}
);
layerId = "96DCC2AB-F6C9-4D02-A366-260ACDE51568";
shapes = (
{
closed = 1;
nodes = (
(117,0,l),
(218,478,ls),
(242,590,o),
(292,640,o),
(375,640,cs),
(472,640,o),
(509,571,o),
(486,461,cs),
(474,401,l),
(572,401,l),
(583,450,ls),
(619,614,o),
(538,727,o),
(382,727,cs),
(241,727,o),
(156,645,o),
(120,481,cs),
(18,0,l)
);
}
);
width = 601;
}
);
metricLeft = "te-canadian";
metricRight = "=|ce-canadian";
note = uni148B;
unicode = 5259;
},
{
glyphname = "co-canadian";
kernLeft = coleft;
lastChange = "2023-01-13 15:28:23 +0000";
layers = (
{
anchors = (
{
name = middle_center_can;
pos = (347,413);
},
{
name = top_center_can;
pos = (397,714);
},
{
name = top_double;
pos = (581,714);
},
{
name = top_left_can;
pos = (210,714);
},
{
name = top_right_can;
pos = (581,714);
}
);
layerId = "96DCC2AB-F6C9-4D02-A366-260ACDE51568";
shapes = (
{
closed = 1;
nodes = (
(407,-13,o),
(492,69,o),
(527,233,cs),
(630,714,l),
(531,714,l),
(429,236,ls),
(406,124,o),
(356,74,o),
(273,74,cs),
(176,74,o),
(139,143,o),
(161,253,cs),
(174,313,l),
(75,313,l),
(65,264,ls),
(29,100,o),
(110,-13,o),
(266,-13,cs)
);
}
);
width = 601;
}
);
metricLeft = "ce-canadian";
metricRight = "te-canadian";
note = uni148D;
unicode = 5261;
},
{
glyphname = "ca-canadian";
kernRight = caright;
lastChange = "2023-01-13 15:29:06 +0000";
layers = (
{
anchors = (
{
name = middle_center_can;
pos = (350,413);
},
{
name = top_center_can;
pos = (407,714);
},
{
name = top_left_can;
pos = (219,714);
},
{
name = top_right_can;
pos = (589,714);
}
);
layerId = "96DCC2AB-F6C9-4D02-A366-260ACDE51568";
shapes = (
{
closed = 1;
nodes = (
(415,-13,o),
(500,69,o),
(535,233,cs),
(552,313,l),
(454,313,l),
(438,236,ls),
(414,124,o),
(365,74,o),
(282,74,cs),
(185,74,o),
(147,143,o),
(170,253,cs),
(268,714,l),
(169,714,l),
(73,264,ls),
(38,100,o),
(118,-13,o),
(274,-13,cs)
);
}
);
width = 599;
}
);
metricLeft = "te-canadian";
metricRight = "=|ce-canadian";
note = uni1490;
unicode = 5264;
},
{
glyphname = "c-canadian";
kernLeft = mwestleft;
kernRight = mwestright;
lastChange = "2023-01-13 15:28:23 +0000";
layers = (
{
layerId = "96DCC2AB-F6C9-4D02-A366-260ACDE51568";
shapes = (
{
closed = 1;
nodes = (
(309,351,o),
(362,395,o),
(379,474,cs),
(385,504,l),
(319,504,l),
(312,472,ls),
(302,429,o),
(277,407,o),
(239,407,cs),
(195,407,o),
(177,434,o),
(188,485,cs),
(236,714,l),
(166,714,l),
(119,496,ls),
(101,407,o),
(145,351,o),
(235,351,cs)
);
}
);
width = 376;
}
);
note = uni14A1;
unicode = 5281;
},
{
glyphname = "thSayisi-canadian";
lastChange = "2023-01-13 15:28:23 +0000";
layers = (
{
layerId = "96DCC2AB-F6C9-4D02-A366-260ACDE51568";
shapes = (
{
closed = 1;
nodes = (
(290,351,o),
(340,395,o),
(358,474,cs),
(409,714,l),
(338,714,l),
(287,474,ls),
(277,428,o),
(250,407,o),
(213,407,cs),
(169,407,o),
(151,436,o),
(160,480,cs),
(165,504,l),
(99,504,l),
(96,487,ls),
(79,409,o),
(123,351,o),
(210,351,cs)
);
}
);
width = 376;
}
);
metricLeft = "=|c-canadian";
metricRight = "=|c-canadian";
note = uni14A2;
unicode = 5282;
},
{
glyphname = "me-canadian";
kernLeft = meleft;
lastChange = "2023-01-13 15:29:07 +0000";
layers = (
{
anchors = (
{
name = middle_center_can;
pos = (228,357);
},
{
name = top_center_can;
pos = (356,714);
},
{
name = top_left_can;
pos = (190,714);
},
{
name = top_right_can;
pos = (517,714);
}
);
layerId = "96DCC2AB-F6C9-4D02-A366-260ACDE51568";
shapes = (
{
closed = 1;
nodes = (
(415,0,l),
(567,714,l),
(141,714,l),
(122,624,l),
(449,624,l),
(316.007,0,l)
);
}
);
width = 547;
}
);
metricRight = "nunavuth-canadian";
note = uni14A3;
unicode = 5283;
},
{
glyphname = "mi-canadian";
kernRight = miright;
lastChange = "2023-01-13 15:28:23 +0000";
layers = (
{
anchors = (
{
name = middle_center_can;
pos = (365,357);
},
{
name = top_center_can;
pos = (391,714);
},
{
name = top_left_can;
pos = (228,714);
},
{
name = top_right_can;
pos = (554,714);
}
);
layerId = "96DCC2AB-F6C9-4D02-A366-260ACDE51568";
shapes = (
{
closed = 1;
nodes = (
(125,0,l),
(258,624,l),
(585,624,l),
(604.002,714,l),
(178,714,l),
(26,0,l)
);
}
);
width = 547;
}
);
metricLeft = "nunavuth-canadian";
metricRight = "=|me-canadian";
note = uni14A5;
unicode = 5285;
},
{
glyphname = "mo-canadian";
kernLeft = moleft;
lastChange = "2023-01-13 15:29:07 +0000";
layers = (
{
anchors = (
{
name = middle_center_can;
pos = (229,357);
},
{
name = top_center_can;
pos = (356,714);
},
{
name = top_double;
pos = (518,714);
},
{
name = top_left_can;
pos = (190,714);
},
{
name = top_right_can;
pos = (518,714);
}
);
layerId = "96DCC2AB-F6C9-4D02-A366-260ACDE51568";
shapes = (
{
closed = 1;
nodes = (
(415,0,l),
(567,714,l),
(468.007,714,l),
(335,90,l),
(8,90,l),
(-11,0,l)
);
}
);
width = 547;
}
);
metricLeft = "me-canadian";
metricRight = "nunavuth-canadian";
note = uni14A7;
unicode = 5287;
},
{
glyphname = "ma-canadian";
kernRight = maright;
lastChange = "2023-01-13 15:28:23 +0000";
layers = (
{
anchors = (
{
name = middle_center_can;
pos = (365,357);
},
{
name = top_center_can;
pos = (391,714);
},
{
name = top_left_can;
pos = (228,714);
},
{
name = top_right_can;
pos = (554,714);
}
);
layerId = "96DCC2AB-F6C9-4D02-A366-260ACDE51568";
shapes = (
{
closed = 1;
nodes = (
(452,0,l),
(471,90,l),
(144,90,l),
(277,714,l),
(178,714,l),
(26,0,l)
);
}
);
width = 547;
}
);
metricLeft = "nunavuth-canadian";
metricRight = "=|me-canadian";
note = uni14AA;
unicode = 5290;
},
{
glyphname = "m-canadian";
kernLeft = mwestleft;
kernRight = mwestright;
lastChange = "2023-01-13 15:28:23 +0000";
layers = (
{
layerId = "96DCC2AB-F6C9-4D02-A366-260ACDE51568";
shapes = (
{
closed = 1;
nodes = (
(322,357,l),
(336,423,l),
(174,423,l),
(236,714,l),
(165,714,l),
(89,357,l)
);
}
);
width = 349;
}
);
metricLeft = "pWestCree-canadian";
note = uni14BB;
unicode = 5307;
},
{
glyphname = "mh-canadian";
kernLeft = mwestleft;
kernRight = mwestright;
lastChange = "2023-01-13 15:29:06 +0000";
layers = (
{
layerId = "96DCC2AB-F6C9-4D02-A366-260ACDE51568";
shapes = (
{
closed = 1;
nodes = (
(307,357,l),
(383,714,l),
(312,714,l),
(250,423,l),
(88,423,l),
(73,357,l)
);
}
);
width = 350;
}
);
metricLeft = "=|m-canadian";
metricRight = "=|m-canadian";
note = uni14BD;
unicode = 5309;
},
{
glyphname = "mAthapascan-canadian";
lastChange = "2023-01-13 15:28:23 +0000";
layers = (
{
layerId = "96DCC2AB-F6C9-4D02-A366-260ACDE51568";
shapes = (
{
closed = 1;
nodes = (
(337,357,l),
(350,414,l),
(175,414,l),
(173,383,l),
(310,499,ls),
(354,536,o),
(377,573,o),
(377,622,cs),
(377,680,o),
(335,720,o),
(268,720,cs),
(196,720,o),
(145,681,o),
(129,592,c),
(192,592,l),
(202,645,o),
(227,667,o),
(263,667,cs),
(295,667,o),
(314,649,o),
(314,619,cs),
(314,584,o),
(295,557,o),
(253,522,cs),
(101,392,l),
(93,357,l)
);
}
);
width = 365;
}
);
note = uni14BE;
unicode = 5310;
},
{
glyphname = "ne-canadian";
kernLeft = neleft;
lastChange = "2023-01-13 15:29:06 +0000";
layers = (
{
anchors = (
{
name = middle_center_can;
pos = (529,254);
},
{
name = top_center_can;
pos = (573,515);
},
{
name = top_left_can;
pos = (164,515);
},
{
name = top_right_can;
pos = (779,515);
}
);
layerId = "96DCC2AB-F6C9-4D02-A366-260ACDE51568";
shapes = (
{
closed = 1;
nodes = (
(678,-13,o),
(772,142,o),
(772,284,cs),
(772,412,o),
(687,496,o),
(547,496,cs),
(110,496,l),
(91,407,l),
(431,407,l),
(429,446,l),
(319,406,o),
(282,284,o),
(282,197,cs),
(282,71,o),
(368,-13,o),
(505,-13,cs)
);
},
{
closed = 1;
nodes = (
(426,72,o),
(378,123,o),
(378,202,cs),
(378,292,o),
(431,411,o),
(545,411,cs),
(628,411,o),
(675,360,o),
(675,281,cs),
(675,191,o),
(623,72,o),
(509,72,cs)
);
}
);
width = 834;
}
);
metricRight = "=|ke-canadian";
note = uni14C0;
unicode = 5312;
},
{
glyphname = "ni-canadian";
kernRight = niright;
lastChange = "2023-01-13 15:29:06 +0000";
layers = (
{
anchors = (
{
name = middle_center_can;
pos = (306,254);
},
{
name = top_center_can;
pos = (375,515);
},
{
name = top_left_can;
pos = (167,515);
},
{
name = top_right_can;
pos = (784,515);
}
);
layerId = "96DCC2AB-F6C9-4D02-A366-260ACDE51568";
shapes = (
{
closed = 1;
nodes = (
(456,-13,o),
(550,142,o),
(550,284,cs),
(550,344,o),
(524,393,o),
(486,418,c),
(469,407,l),
(811,407,l),
(830,496,l),
(333,496,ls),
(152,496,o),
(59,342,o),
(59,199,cs),
(59,71,o),
(146,-13,o),
(283,-13,cs)
);
},
{
closed = 1;
nodes = (
(204,72,o),
(156,123,o),
(156,202,cs),
(156,292,o),
(209,411,o),
(323,411,cs),
(406,411,o),
(453,360,o),
(453,281,cs),
(453,191,o),
(401,72,o),
(287,72,cs)
);
}
);
width = 834;
}
);
metricLeft = "ke-canadian";
metricRight = "=|ne-canadian";
note = uni14C2;
unicode = 5314;
},
{
glyphname = "no-canadian";
kernLeft = noleft;
lastChange = "2023-01-13 15:29:06 +0000";
layers = (
{
anchors = (
{
name = middle_center_can;
pos = (530,254);
},
{
name = top_center_can;
pos = (583,515);
},
{
name = top_double;
pos = (586,515);
},
{
name = top_left_can;
pos = (164,515);
},
{
name = top_right_can;
pos = (781,515);
}
);
layerId = "96DCC2AB-F6C9-4D02-A366-260ACDE51568";
shapes = (
{
closed = 1;
nodes = (
(501,0,ls),
(682,0,o),
(775,153,o),
(775,297,cs),
(775,425,o),
(688,509,o),
(551,509,cs),
(378,509,o),
(284,354,o),
(284,211,cs),
(284,152,o),
(310,103,o),
(348,78,c),
(365,89,l),
(23,89,l),
(4,0,l)
);
},
{
closed = 1;
nodes = (
(428,85,o),
(381,136,o),
(381,215,cs),
(381,305,o),
(433,424,o),
(547,424,cs),
(630,424,o),
(678,373,o),
(678,294,cs),
(678,204,o),
(625,85,o),
(511,85,cs)
);
}
);
width = 834;
}
);
metricLeft = "ne-canadian";
metricRight = "=|ke-canadian";
note = uni14C4;
unicode = 5316;
},
{
glyphname = "na-canadian";
kernRight = naright;
lastChange = "2023-01-13 15:29:06 +0000";
layers = (
{
anchors = (
{
name = middle_center_can;
pos = (307,254);
},
{
name = top_center_can;
pos = (364,515);
},
{
name = top_double;
pos = (526,515);
},
{
name = top_left_can;
pos = (167,515);
},
{
name = top_right_can;
pos = (784,515);
}
);
layerId = "96DCC2AB-F6C9-4D02-A366-260ACDE51568";
shapes = (
{
closed = 1;
nodes = (
(724,0,l),
(743,89,l),
(403,89,l),
(405,50,l),
(515,90,o),
(552,212,o),
(552,298,cs),
(552,425,o),
(466,509,o),
(329,509,cs),
(156,509,o),
(62,354,o),
(62,212,cs),
(62,84,o),
(147,0,o),
(287,0,cs)
);
},
{
closed = 1;
nodes = (
(206,85,o),
(159,136,o),
(159,215,cs),
(159,305,o),
(211,424,o),
(325,424,cs),
(408,424,o),
(456,373,o),
(456,294,cs),
(456,204,o),
(403,85,o),
(289,85,cs)
);
}
);
width = 834;
}
);
metricLeft = "ke-canadian";
metricRight = "=|ne-canadian";
note = uni14C7;
unicode = 5319;
},
{
glyphname = "n-canadian";
kernLeft = mwestleft;
kernRight = mwestright;
lastChange = "2023-01-13 15:29:06 +0000";
layers = (
{
layerId = "96DCC2AB-F6C9-4D02-A366-260ACDE51568";
shapes = (
{
closed = 1;
nodes = (
(489,450,l),
(504,515,l),
(321,515,l),
(316,475,l),
(370,495,o),
(392,562,o),
(392,606,cs),
(392,675,o),
(345,721,o),
(272,721,cs),
(182,721,o),
(129,645,o),
(129,566,cs),
(129,496,o),
(175,450,o),
(248,450,cs)
);
},
{
closed = 1;
nodes = (
(213,502,o),
(191,527,o),
(191,565,cs),
(191,605,o),
(213,668,o),
(271,668,cs),
(308,668,o),
(330,643,o),
(330,606,cs),
(330,566,o),
(308,502,o),
(250,502,cs)
);
}
);
width = 496;
}
);
metricLeft = "=|k-canadian";
note = uni14D0;
unicode = 5328;
},
{
glyphname = "nh-canadian";
kernLeft = mwestleft;
kernRight = mwestright;
lastChange = "2023-01-13 15:28:23 +0000";
layers = (
{
layerId = "96DCC2AB-F6C9-4D02-A366-260ACDE51568";
shapes = (
{
closed = 1;
nodes = (
(363,450,ls),
(458,450,o),
(510,525,o),
(510,606,cs),
(510,674,o),
(464,721,o),
(391,721,cs),
(301,721,o),
(248,645,o),
(248,566,cs),
(248,529,o),
(266,501,o),
(284,488,c),
(294,515,l),
(106,515,l),
(92,450,l)
);
},
{
closed = 1;
nodes = (
(332,502,o),
(310,527,o),
(310,565,cs),
(310,605,o),
(332,668,o),
(389,668,cs),
(426,668,o),
(448,643,o),
(448,606,cs),
(448,566,o),
(426,502,o),
(369,502,cs)
);
}
);
width = 495;
}
);
metricLeft = "=|n-canadian";
metricRight = "=|n-canadian";
note = uni14D2;
unicode = 5330;
},
{
glyphname = "le-canadian";
kernLeft = neleft;
lastChange = "2023-01-13 15:29:06 +0000";
layers = (
{
anchors = (
{
name = middle_center_can;
pos = (529,254);
},
{
name = top_center_can;
pos = (574,515);
},
{
name = top_left_can;
pos = (164,515);
},
{
name = top_right_can;
pos = (780,515);
}
);
layerId = "96DCC2AB-F6C9-4D02-A366-260ACDE51568";
shapes = (
{
closed = 1;
nodes = (
(461,0,ls),
(682,0,o),
(773,142,o),
(773,291,cs),
(773,416,o),
(690,496,o),
(552,496,cs),
(110,496,l),
(91,406,l),
(534,406,ls),
(625,406,o),
(674,361,o),
(674,283,cs),
(674,189,o),
(623,88,o),
(472,88,cs),
(424,88,l),
(405,0,l)
);
}
);
width = 834;
}
);
metricLeft = "ne-canadian";
metricRight = "=|ke-canadian";
note = uni14D3;
unicode = 5331;
},
{
glyphname = "li-canadian";
kernRight = niright;
lastChange = "2023-01-13 15:29:06 +0000";
layers = (
{
anchors = (
{
name = middle_center_can;
pos = (308,254);
},
{
name = top_center_can;
pos = (376,515);
},
{
name = top_left_can;
pos = (169,515);
},
{
name = top_right_can;
pos = (784,515);
}
);
layerId = "96DCC2AB-F6C9-4D02-A366-260ACDE51568";
shapes = (
{
closed = 1;
nodes = (
(324,0,l),
(343,88,l),
(298,88,ls),
(209,88,o),
(159,134,o),
(159,212,cs),
(159,304,o),
(211,406,o),
(362,406,cs),
(811,406,l),
(829,496,l),
(371,496,ls),
(157,496,o),
(61,360,o),
(61,209,cs),
(61,85,o),
(145,0,o),
(278,0,cs)
);
}
);
width = 834;
}
);
metricLeft = "ke-canadian";
metricRight = "=|ne-canadian";
note = uni14D5;
unicode = 5333;
},
{
glyphname = "lo-canadian";
kernLeft = noleft;
lastChange = "2023-01-13 15:29:06 +0000";
layers = (
{
anchors = (
{
name = middle_center_can;
pos = (528,254);
},
{
name = top_center_can;
pos = (581,515);
},
{
name = top_double;
pos = (569,515);
},
{
name = top_left_can;
pos = (162,515);
},
{
name = top_right_can;
pos = (778,515);
}
);
layerId = "96DCC2AB-F6C9-4D02-A366-260ACDE51568";
shapes = (
{
closed = 1;
nodes = (
(462,0,ls),
(676,0,o),
(772,136,o),
(772,287,cs),
(772,411,o),
(688,496,o),
(555,496,cs),
(509,496,l),
(490,408,l),
(535,408,ls),
(624,408,o),
(674,362,o),
(674,284,cs),
(674,192,o),
(622,90,o),
(471,90,cs),
(23,90,l),
(4,0,l)
);
}
);
width = 833;
}
);
metricLeft = "ne-canadian";
metricRight = "=|ke-canadian";
note = uni14D7;
unicode = 5335;
},
{
glyphname = "la-canadian";
kernRight = naright;
lastChange = "2023-01-13 15:29:06 +0000";
layers = (
{
anchors = (
{
name = middle_center_can;
pos = (308,254);
},
{
name = top_center_can;
pos = (365,515);
},
{
name = top_left_can;
pos = (169,515);
},
{
name = top_right_can;
pos = (784,515);
}
);
layerId = "96DCC2AB-F6C9-4D02-A366-260ACDE51568";
shapes = (
{
closed = 1;
nodes = (
(724,0,l),
(743,90,l),
(300,90,ls),
(209,90,o),
(161,134,o),
(161,213,cs),
(161,307,o),
(211,408,o),
(362,408,cs),
(410,408,l),
(429,496,l),
(374,496,ls),
(152,496,o),
(61,354,o),
(61,205,cs),
(61,80,o),
(144,0,o),
(282,0,cs)
);
}
);
width = 834;
}
);
metricLeft = "ke-canadian";
metricRight = "=|ne-canadian";
note = uni14DA;
unicode = 5338;
},
{
glyphname = "l-canadian";
kernLeft = mwestleft;
kernRight = mwestright;
lastChange = "2023-01-13 15:28:23 +0000";
layers = (
{
layerId = "96DCC2AB-F6C9-4D02-A366-260ACDE51568";
shapes = (
{
closed = 1;
nodes = (
(463,357,l),
(477,423,l),
(281,423,ls),
(223,423,o),
(191,452,o),
(191,504,cs),
(191,568,o),
(222,650,o),
(325,650,cs),
(348,650,l),
(361,714,l),
(332,714,ls),
(191,714,o),
(121,615,o),
(121,498,cs),
(121,410,o),
(178,357,o),
(276,357,cs)
);
}
);
width = 490;
}
);
metricLeft = "t-canadian";
metricRight = "m-canadian";
note = uni14EA;
unicode = 5354;
},
{
glyphname = "lWestCree-canadian";
kernLeft = mwestleft;
kernRight = mwestright;
lastChange = "2023-01-13 15:28:23 +0000";
layers = (
{
layerId = "96DCC2AB-F6C9-4D02-A366-260ACDE51568";
shapes = (
{
closed = 1;
nodes = (
(338,357,l),
(347,400,l),
(174,475,l),
(166,441,l),
(372,516,l),
(378,547,l),
(204,621,l),
(197,587,l),
(403,663,l),
(414,714,l),
(400,714,l),
(146,621,l),
(141,596,l),
(320,523,l),
(326,548,l),
(115,475,l),
(109,449,l),
(324,357,l)
);
}
);
width = 381;
}
);
metricRight = "=|";
note = uni14EB;
unicode = 5355;
},
{
glyphname = "mediall-canadian";
lastChange = "2023-01-13 15:28:23 +0000";
layers = (
{
layerId = "96DCC2AB-F6C9-4D02-A366-260ACDE51568";
shapes = (
{
closed = 1;
nodes = (
(533,-13,l),
(547,53,l),
(165,216,l),
(155,168,l),
(606,330,l),
(615,373,l),
(232,529,l),
(223,485,l),
(673,647,l),
(690,727,l),
(664,727,l),
(133,535,l),
(125,496,l),
(509,339,l),
(517,375,l),
(66,218,l),
(58,179,l),
(507,-13,l)
);
}
);
width = 661;
}
);
metricRight = "=|";
note = uni14EC;
unicode = 5356;
},
{
glyphname = "se-canadian";
kernRight = seright;
lastChange = "2023-01-13 15:28:23 +0000";
layers = (
{
anchors = (
{
name = top_left_can;
pos = (225,714);
},
{
name = top_right_can;
pos = (530,714);
}
);
layerId = "96DCC2AB-F6C9-4D02-A366-260ACDE51568";
shapes = (
{
closed = 1;
nodes = (
(427,0,l),
(500,344,l),
(460,344,ls),
(286,344,o),
(213,430,o),
(254,616,cs),
(275,714,l),
(175,714,l),
(153,609,ls),
(107,393,o),
(216,255,o),
(439,255,cs),
(461,255,l),
(389,289,l),
(328,0,l)
);
}
);
width = 558;
}
);
note = uni14ED;
unicode = 5357;
},
{
glyphname = "si-canadian";
kernLeft = sileft;
lastChange = "2023-01-13 15:29:06 +0000";
layers = (
{
anchors = (
{
name = top_left_can;
pos = (227,714);
},
{
name = top_right_can;
pos = (532,714);
}
);
layerId = "96DCC2AB-F6C9-4D02-A366-260ACDE51568";
shapes = (
{
closed = 1;
nodes = (
(125,0,l),
(187,291,l),
(105,255,l),
(148,255,ls),
(364,255,o),
(505,364,o),
(557,605,cs),
(581,714,l),
(481,714,l),
(460,614,ls),
(420,435,o),
(315,344,o),
(152,344,cs),
(98,344,l),
(25,0,l)
);
}
);
width = 558;
}
);
metricLeft = "=|se-canadian";
metricRight = "=|se-canadian";
note = uni14EF;
unicode = 5359;
},
{
glyphname = "so-canadian";
kernRight = soright;
lastChange = "2023-01-13 15:28:23 +0000";
layers = (
{
anchors = (
{
name = top_double;
pos = (530,714);
},
{
name = top_left_can;
pos = (225,714);
},
{
name = top_right_can;
pos = (530,714);
}
);
layerId = "96DCC2AB-F6C9-4D02-A366-260ACDE51568";
shapes = (
{
closed = 1;
nodes = (
(123,0,l),
(145,100,ls),
(184,279,o),
(289,370,o),
(452,370,cs),
(506,370,l),
(579,714,l),
(480,714,l),
(418,423,l),
(499,459,l),
(456,459,ls),
(241,459,o),
(99,350,o),
(47,109,cs),
(23,0,l)
);
}
);
width = 558;
}
);
metricLeft = "se-canadian";
metricRight = "se-canadian";
note = uni14F1;
unicode = 5361;
},
{
glyphname = "sa-canadian";
kernLeft = saleft;
kernRight = saright;
lastChange = "2023-01-13 15:29:06 +0000";
layers = (
{
anchors = (
{
name = top_left_can;
pos = (227,714);
},
{
name = top_right_can;
pos = (531,714);
}
);
layerId = "96DCC2AB-F6C9-4D02-A366-260ACDE51568";
shapes = (
{
closed = 1;
nodes = (
(429,0,l),
(451,105,ls),
(497,321,o),
(388,459,o),
(165,459,cs),
(143,459,l),
(215,425,l),
(276,714,l),
(177,714,l),
(104,370,l),
(144,370,ls),
(317,370,o),
(391,284,o),
(350,98,cs),
(329,0,l)
);
}
);
width = 558;
}
);
metricLeft = "=|se-canadian";
metricRight = "=|se-canadian";
note = uni14F4;
unicode = 5364;
},
{
glyphname = "s-canadian";
kernLeft = mwestleft;
kernRight = mwestright;
lastChange = "2023-01-13 15:28:23 +0000";
layers = (
{
layerId = "96DCC2AB-F6C9-4D02-A366-260ACDE51568";
shapes = (
{
closed = 1;
nodes = (
(326,357,l),
(338,409,ls),
(362,525,o),
(304,600,o),
(190,600,cs),
(169,600,l),
(205,568,l),
(236,714,l),
(165,714,l),
(129,543,l),
(165,543,ls),
(250,543,o),
(286,499,o),
(268,412,cs),
(256,357,l)
);
}
);
width = 370;
}
);
metricRight = "=|";
note = uni1505;
unicode = 5381;
},
{
color = 6;
glyphname = "sAthapascan-canadian";
lastChange = "2023-01-13 15:28:23 +0000";
layers = (
{
layerId = "96DCC2AB-F6C9-4D02-A366-260ACDE51568";
shapes = (
{
closed = 1;
nodes = (
(290,183,o),
(336,233,o),
(336,295,cs),
(336,335,o),
(313,364,o),
(272,379,cs),
(208,401,ls),
(183,410,o),
(173,425,o),
(173,444,cs),
(173,477,o),
(197,501,o),
(245,501,cs),
(290,501,o),
(312,480,o),
(304,439,c),
(366,439,l),
(378,509,o),
(329,552,o),
(249,552,cs),
(156,552,o),
(111,502,o),
(111,439,cs),
(111,397,o),
(138,367,o),
(174,354,cs),
(238,332,ls),
(264,322,o),
(274,308,o),
(274,289,cs),
(274,256,o),
(249,234,o),
(202,234,cs),
(150,234,o),
(131,256,o),
(138,298,c),
(76,298,l),
(64,228,o),
(107,183,o),
(199,183,cs)
);
}
);
width = 394;
}
);
metricRight = "=|";
note = uni1506;
unicode = 5382;
},
{
glyphname = "sw-canadian";
kernLeft = mwestleft;
kernRight = mwestright;
lastChange = "2023-01-13 15:29:06 +0000";
layers = (
{
layerId = "96DCC2AB-F6C9-4D02-A366-260ACDE51568";
shapes = (
{
closed = 1;
nodes = (
(159,357,l),
(170,409,ls),
(190,503,o),
(237,543,o),
(329,543,cs),
(365,543,l),
(401,714,l),
(331,714,l),
(300,569,l),
(350,600,l),
(314,600,ls),
(198,600,o),
(126,538,o),
(101,414,cs),
(89,357,l)
);
}
);
width = 368;
}
);
metricLeft = "=|s-canadian";
metricRight = "=|s-canadian";
note = uni1507;
unicode = 5383;
},
{
glyphname = "sBlackfoot-canadian";
lastChange = "2023-01-13 15:28:23 +0000";
layers = (
{
layerId = "96DCC2AB-F6C9-4D02-A366-260ACDE51568";
shapes = (
{
closed = 1;
nodes = (
(333,357,l),
(347,423,l),
(257,423,ls),
(203,423,o),
(180,450,o),
(192,509,cs),
(236,714,l),
(165,714,l),
(122,510,ls),
(102,415,o),
(147,357,o),
(246,357,cs)
);
}
);
width = 360;
}
);
metricLeft = "ai-canadian";
metricRight = "m-canadian";
note = uni1508;
unicode = 5384;
},
{
glyphname = "moosecreesk-canadian";
kernLeft = mwestleft;
kernRight = mwestright;
lastChange = "2023-01-13 15:29:06 +0000";
layers = (
{
layerId = "96DCC2AB-F6C9-4D02-A366-260ACDE51568";
shapes = (
{
closed = 1;
nodes = (
(318,225,o),
(362,332,o),
(362,436,cs),
(362,541,o),
(311,600,o),
(198,600,cs),
(180,600,l),
(206,569,l),
(237,714,l),
(166,714,l),
(130,543,l),
(179,543,ls),
(268,543,o),
(300,513,o),
(296,427,c),
(314,433,l),
(306,468,o),
(276,494,o),
(226,494,cs),
(135,494,o),
(90,411,o),
(90,340,cs),
(90,271,o),
(136,225,o),
(209,225,cs)
);
},
{
closed = 1;
nodes = (
(173,277,o),
(152,302,o),
(152,340,cs),
(152,385,o),
(180,444,o),
(233,444,cs),
(269,444,o),
(291,420,o),
(291,383,cs),
(291,334,o),
(260,277,o),
(212,277,cs)
);
}
);
width = 397;
}
);
metricRight = "=|";
note = uni1509;
unicode = 5385;
},
{
glyphname = "skwNaskapi-canadian";
kernLeft = mwestleft;
kernRight = mwestright;
lastChange = "2023-01-13 15:29:06 +0000";
layers = (
{
layerId = "96DCC2AB-F6C9-4D02-A366-260ACDE51568";
shapes = (
{
closed = 1;
nodes = (
(307,225,o),
(356,309,o),
(356,386,cs),
(356,451,o),
(317,494,o),
(256,494,cs),
(213,494,o),
(177,470,o),
(160,428,c),
(177,438,l),
(203,509,o),
(252,543,o),
(337,543,cs),
(391,543,l),
(427,714,l),
(356,714,l),
(325,568,l),
(366,600,l),
(333,600,ls),
(159,600,o),
(94,451,o),
(94,347,cs),
(94,274,o),
(138,225,o),
(213,225,cs)
);
},
{
closed = 1;
nodes = (
(177,277,o),
(157,302,o),
(157,340,cs),
(157,385,o),
(184,444,o),
(236,444,cs),
(272,444,o),
(293,420,o),
(293,383,cs),
(293,334,o),
(263,277,o),
(215,277,cs)
);
}
);
width = 398;
}
);
metricLeft = "=|moosecreesk-canadian";
metricRight = "=|moosecreesk-canadian";
note = uni150A;
unicode = 5386;
},
{
glyphname = "swNaskapi-canadian";
lastChange = "2023-01-13 15:29:06 +0000";
layers = (
{
layerId = "96DCC2AB-F6C9-4D02-A366-260ACDE51568";
shapes = (
{
closed = 1;
nodes = (
(309,189,l),
(319,235,ls),
(343,348,o),
(289,420,o),
(176,420,cs),
(151,420,l),
(179,388,l),
(209,526,l),
(138,526,l),
(104,363,l),
(149,363,ls),
(233,363,o),
(268,325,o),
(249,237,cs),
(239,189,l)
);
},
{
closed = 1;
nodes = (
(284,43,o),
(309,68,o),
(309,98,cs),
(309,128,o),
(284,153,o),
(254,153,cs),
(224,153,o),
(199,128,o),
(199,98,cs),
(199,68,o),
(224,43,o),
(254,43,cs)
);
},
{
closed = 1;
nodes = (
(224,561,o),
(248,586,o),
(248,616,cs),
(248,647,o),
(224,671,o),
(193,671,cs),
(164,671,o),
(139,647,o),
(139,616,cs),
(139,586,o),
(164,561,o),
(193,561,cs)
);
}
);
width = 402;
}
);
metricRight = "=|";
note = uni150B;
unicode = 5387;
},
{
glyphname = "spwaNaskapi-canadian";
lastChange = "2023-01-13 15:28:23 +0000";
layers = (
{
layerId = "96DCC2AB-F6C9-4D02-A366-260ACDE51568";
shapes = (
{
closed = 1;
nodes = (
(564,0,l),
(582,83,l),
(174,370,l),
(165,325,l),
(694,611,l),
(716,714,l),
(689,714,l),
(62,375,l),
(55,339,l),
(538,0,l)
);
},
{
closed = 1;
nodes = (
(228,509,o),
(252,534,o),
(252,564,cs),
(252,595,o),
(227,619,o),
(197,619,cs),
(167,619,o),
(142,595,o),
(142,564,cs),
(142,533,o),
(167,509,o),
(197,509,cs)
);
},
{
closed = 1;
nodes = (
(438,624,l),
(447,667,ls),
(464,749,o),
(425,803,o),
(346,803,cs),
(322,803,l),
(358,777,l),
(380,880,l),
(311,880,l),
(284,750,l),
(313,750,ls),
(370,750,o),
(390,722,o),
(377,663,cs),
(369,624,l)
);
},
{
closed = 1;
nodes = (
(640,729,o),
(664,754,o),
(664,785,cs),
(664,816,o),
(640,840,o),
(609,840,cs),
(579,840,o),
(554,816,o),
(554,785,cs),
(554,754,o),
(579,729,o),
(609,729,cs)
);
}
);
width = 672;
}
);
metricRight = "pa-canadian";
metricWidth = "pa-canadian";
note = uni150C;
unicode = 5388;
},
{
glyphname = "she-canadian";
kernRight = caright;
lastChange = "2023-01-13 15:29:06 +0000";
layers = (
{
anchors = (
{
name = top_left_can;
pos = (391,714);
},
{
name = top_right_can;
pos = (823,714);
}
);
layerId = "96DCC2AB-F6C9-4D02-A366-260ACDE51568";
shapes = (
{
closed = 1;
nodes = (
(755,-13,o),
(839,78,o),
(872,237,cs),
(888,313,l),
(789,313,l),
(774,239,ls),
(750,128,o),
(704,74,o),
(625,74,cs),
(539,74,o),
(506,132,o),
(524,252,cs),
(555,450,ls),
(582,629,o),
(512,727,o),
(364,727,cs),
(228,727,o),
(144,636,o),
(111,477,cs),
(95,401,l),
(194,401,l),
(210,475,ls),
(233,586,o),
(279,640,o),
(358,640,cs),
(444,640,o),
(477,581,o),
(459,462,cs),
(428,265,ls),
(401,85,o),
(471,-13,o),
(619,-13,cs)
);
}
);
width = 936;
}
);
metricRight = "=|";
note = uni1510;
unicode = 5392;
},
{
glyphname = "shi-canadian";
kernLeft = coleft;
lastChange = "2023-01-13 15:29:06 +0000";
layers = (
{
anchors = (
{
name = top_left_can;
pos = (314,714);
},
{
name = top_right_can;
pos = (746,714);
}
);
layerId = "96DCC2AB-F6C9-4D02-A366-260ACDE51568";
shapes = (
{
closed = 1;
nodes = (
(390,-13,o),
(465,68,o),
(511,244,cs),
(569,464,ls),
(601,587,o),
(643,640,o),
(722,640,cs),
(807,640,o),
(847,582,o),
(820,460,cs),
(808,401,l),
(907,401,l),
(916,447,ls),
(953,619,o),
(875,727,o),
(726,727,cs),
(593,727,o),
(518,645,o),
(472,470,cs),
(414,250,ls),
(382,128,o),
(340,74,o),
(260,74,cs),
(176,74,o),
(136,131,o),
(163,254,cs),
(175,313,l),
(76,313,l),
(66,267,ls),
(30,94,o),
(108,-13,o),
(257,-13,cs)
);
}
);
width = 936;
}
);
metricLeft = "she-canadian";
metricRight = "she-canadian";
note = uni1511;
unicode = 5393;
},
{
glyphname = "sho-canadian";
lastChange = "2023-01-13 15:29:06 +0000";
layers = (
{
anchors = (
{
name = top_center_can;
pos = (537,515);
},
{
name = top_left_can;
pos = (345,515);
},
{
name = top_right_can;
pos = (729,515);
}
);
layerId = "96DCC2AB-F6C9-4D02-A366-260ACDE51568";
shapes = (
{
closed = 1;
nodes = (
(317,71,l),
(207,71,o),
(147,110,o),
(147,173,cs),
(147,234,o),
(186,284,o),
(267,284,cs),
(408,284,o),
(523,125,o),
(703,125,cs),
(833,125,o),
(911,210,o),
(911,325,cs),
(911,436,o),
(818,508,o),
(662,509,c),
(645,425,l),
(755,424,o),
(815,386,o),
(815,322,cs),
(815,262,o),
(776,212,o),
(696,212,cs),
(554,212,o),
(439,371,o),
(259,371,cs),
(129,371,o),
(51,285,o),
(51,171,cs),
(51,59,o),
(145,-13,o),
(300,-13,c)
);
}
);
width = 962;
}
);
metricLeft = "ke-canadian";
metricRight = "=|ke-canadian";
note = uni1513;
unicode = 5395;
},
{
glyphname = "sha-canadian";
lastChange = "2023-01-13 15:29:06 +0000";
layers = (
{
anchors = (
{
name = top_center_can;
pos = (538,515);
},
{
name = top_left_can;
pos = (345,515);
},
{
name = top_right_can;
pos = (730,515);
}
);
layerId = "96DCC2AB-F6C9-4D02-A366-260ACDE51568";
shapes = (
{
closed = 1;
nodes = (
(739,-18,o),
(887,51,o),
(887,211,cs),
(887,306,o),
(819,371,o),
(705,371,cs),
(544,371,o),
(392,212,o),
(270,212,cs),
(208,212,o),
(172,243,o),
(172,293,cs),
(172,386,o),
(258,426,o),
(373,425,c),
(391,509,l),
(223,514,o),
(75,445,o),
(75,285,cs),
(75,190,o),
(143,125,o),
(257,125,cs),
(418,125,o),
(570,284,o),
(693,284,cs),
(755,284,o),
(790,252,o),
(790,203,cs),
(790,110,o),
(705,70,o),
(588,71,c),
(570,-13,l)
);
}
);
width = 962;
}
);
metricLeft = "ke-canadian";
metricRight = "=|ke-canadian";
note = uni1515;
unicode = 5397;
},
{
glyphname = "sh-canadian";
kernLeft = mwestleft;
kernRight = mwestright;
lastChange = "2023-01-13 15:28:23 +0000";
layers = (
{
layerId = "96DCC2AB-F6C9-4D02-A366-260ACDE51568";
shapes = (
{
closed = 1;
nodes = (
(616,292,o),
(727,352,o),
(727,475,cs),
(727,548,o),
(676,599,o),
(589,599,cs),
(471,599,o),
(365,489,o),
(273,489,cs),
(227,489,o),
(201,513,o),
(201,551,cs),
(201,623,o),
(266,662,o),
(362,659,c),
(375,722,l),
(241,729,o),
(129,670,o),
(129,545,cs),
(129,473,o),
(181,422,o),
(268,422,cs),
(386,422,o),
(492,532,o),
(584,532,cs),
(629,532,o),
(656,508,o),
(656,470,cs),
(656,399,o),
(592,359,o),
(495,362,c),
(483,299,l)
);
}
);
width = 745;
}
);
metricLeft = "t-canadian";
metricRight = "=|";
note = uni1525;
unicode = 5413;
},
{
glyphname = "ye-canadian";
kernLeft = yeleft;
lastChange = "2023-01-13 15:28:23 +0000";
layers = (
{
anchors = (
{
name = middle_right_can;
pos = (686,357);
},
{
name = top_left_can;
pos = (192,714);
},
{
name = top_right_can;
pos = (563,714);
}
);
layerId = "96DCC2AB-F6C9-4D02-A366-260ACDE51568";
shapes = (
{
closed = 1;
nodes = (
(459,0,l),
(531,337,l),
(184,337,l),
(185,286,l),
(613,662,l),
(553,726,l),
(50,280,l),
(44,249,l),
(413,249,l),
(360,0,l)
);
}
);
width = 590;
}
);
note = uni1526;
unicode = 5414;
},
{
glyphname = "yi-canadian";
kernRight = yiright;
lastChange = "2023-01-13 15:29:06 +0000";
layers = (
{
anchors = (
{
name = top_left_can;
pos = (232,714);
},
{
name = top_right_can;
pos = (602,714);
}
);
layerId = "96DCC2AB-F6C9-4D02-A366-260ACDE51568";
shapes = (
{
closed = 1;
nodes = (
(125,0,l),
(178,249,l),
(547,249,l),
(554,280,l),
(227,726,l),
(155,673,l),
(441,288,l),
(446,337,l),
(97,337,l),
(26,0,l)
);
}
);
width = 590;
}
);
metricRight = "=|ye-canadian";
metricWidth = "ye-canadian";
note = uni1528;
unicode = 5416;
},
{
glyphname = "yo-canadian";
kernLeft = yoleft;
lastChange = "2023-01-13 15:28:23 +0000";
layers = (
{
anchors = (
{
name = middle_right_can;
pos = (685,357);
},
{
name = top_double;
pos = (562,714);
},
{
name = top_left_can;
pos = (192,714);
},
{
name = top_right_can;
pos = (562,714);
}
);
layerId = "96DCC2AB-F6C9-4D02-A366-260ACDE51568";
shapes = (
{
closed = 1;
nodes = (
(482,41,l),
(196,426,l),
(191,377,l),
(540,377,l),
(611,714,l),
(512,714,l),
(459,465,l),
(90,465,l),
(83,434,l),
(410,-12,l)
);
}
);
width = 590;
}
);
metricLeft = "ye-canadian";
metricWidth = "ye-canadian";
note = uni152A;
unicode = 5418;
},
{
glyphname = "ya-canadian";
kernRight = yaright;
lastChange = "2023-01-13 15:28:23 +0000";
layers = (
{
anchors = (
{
name = top_left_can;
pos = (227,714);
},
{
name = top_right_can;
pos = (596,714);
}
);
layerId = "96DCC2AB-F6C9-4D02-A366-260ACDE51568";
shapes = (
{
closed = 1;
nodes = (
(586,434,l),
(593,465,l),
(223,465,l),
(277,714,l),
(177,714,l),
(105,377,l),
(453,377,l),
(451,428,l),
(23,52,l),
(83,-12,l)
);
}
);
width = 590;
}
);
metricRight = "=|ye-canadian";
metricWidth = "ye-canadian";
note = uni152D;
unicode = 5421;
},
{
glyphname = "y-canadian";
kernLeft = mwestleft;
kernRight = mwestright;
lastChange = "2023-01-13 15:28:23 +0000";
layers = (
{
layerId = "96DCC2AB-F6C9-4D02-A366-260ACDE51568";
shapes = (
{
closed = 1;
nodes = (
(384,569,l),
(389,589,l),
(211,589,l),
(237,714,l),
(167,714,l),
(128,532,l),
(304,532,l),
(300,573,l),
(98,391,l),
(141,347,l)
);
}
);
width = 354;
}
);
note = uni153E;
unicode = 5438;
},
{
glyphname = "biblecreey-canadian";
lastChange = "2023-01-13 15:28:23 +0000";
layers = (
{
layerId = "96DCC2AB-F6C9-4D02-A366-260ACDE51568";
shapes = (
{
closed = 1;
nodes = (
(148,357,l),
(275,640,l),
(236,640,l),
(274,357,l),
(317,357,l),
(478,640,l),
(434,640,l),
(444,357,l),
(505,357,l),
(509,374,l),
(499,714,l),
(452,714,l),
(287,422,l),
(326,422,l),
(287,714,l),
(240,714,l),
(85,374,l),
(81,357,l)
);
}
);
width = 540;
}
);
metricRight = "=|";
note = uni153F;
unicode = 5439;
},
{
glyphname = "yWestCree-canadian";
lastChange = "2023-01-13 15:28:23 +0000";
layers = (
{
layerId = "96DCC2AB-F6C9-4D02-A366-260ACDE51568";
shapes = (
{
closed = 1;
nodes = (
(255,198,l),
(284,335,l),
(415,335,l),
(430,402,l),
(298,402,l),
(327,537,l),
(258,537,l),
(229,402,l),
(97,402,l),
(83,335,l),
(215,335,l),
(185,198,l)
);
}
);
width = 461;
}
);
metricLeft = "shorthorizontalstrokeFinal-canadian";
metricRight = "shorthorizontalstrokeFinal-canadian";
note = uni1540;
unicode = 5440;
},
{
glyphname = "re-canadian";
kernRight = niright;
lastChange = "2023-01-13 15:28:23 +0000";
layers = (
{
anchors = (
{
name = top_center_can;
pos = (367,515);
},
{
name = top_left_can;
pos = (179,515);
},
{
name = top_right_can;
pos = (829,515);
}
);
layerId = "96DCC2AB-F6C9-4D02-A366-260ACDE51568";
shapes = (
{
closed = 1;
nodes = (
(420,-13,o),
(508,67,o),
(543,228,cs),
(581,407,l),
(857,407,l),
(876,496,l),
(503,496,l),
(446,232,ls),
(423,124,o),
(372,73,o),
(290,73,cs),
(192,73,o),
(149,133,o),
(173,244,cs),
(227,496,l),
(127,496,l),
(75,253,ls),
(41,91,o),
(125,-13,o),
(284,-13,cs)
);
}
);
width = 880;
}
);
metricRight = "=|ne-canadian";
note = uni1542;
unicode = 5442;
},
{
glyphname = "reRCree-canadian";
kernLeft = neleft;
lastChange = "2023-01-13 15:28:23 +0000";
layers = (
{
anchors = (
{
name = top_center_can;
pos = (625,515);
},
{
name = top_left_can;
pos = (163,515);
},
{
name = top_right_can;
pos = (813,515);
}
);
layerId = "96DCC2AB-F6C9-4D02-A366-260ACDE51568";
shapes = (
{
closed = 1;
nodes = (
(679,-13,o),
(767,67,o),
(801,228,cs),
(859,496,l),
(759,496,l),
(703,232,ls),
(680,124,o),
(629,73,o),
(547,73,cs),
(449,73,o),
(406,134,o),
(429,244,cs),
(483,496,l),
(110,496,l),
(91,407,l),
(367,407,l),
(334,253,ls),
(300,91,o),
(383,-13,o),
(543,-13,cs)
);
}
);
width = 880;
}
);
metricLeft = "ne-canadian";
metricRight = "=|re-canadian";
note = uni1543;
unicode = 5443;
},
{
glyphname = "leWestCree-canadian";
kernLeft = noleft;
lastChange = "2023-01-13 15:28:23 +0000";
layers = (
{
anchors = (
{
name = top_center_can;
pos = (625,515);
},
{
name = top_left_can;
pos = (163,515);
},
{
name = top_right_can;
pos = (813,515);
}
);
layerId = "96DCC2AB-F6C9-4D02-A366-260ACDE51568";
shapes = (
{
closed = 1;
nodes = (
(378,0,l),
(434,264,ls),
(457,371,o),
(508,423,o),
(590,423,cs),
(688,423,o),
(731,363,o),
(707,252,cs),
(654,0,l),
(753,0,l),
(805,243,ls),
(839,405,o),
(756,509,o),
(596,509,cs),
(460,509,o),
(372,429,o),
(338,268,cs),
(299,89,l),
(23,89,l),
(4,0,l)
);
}
);
width = 880;
}
);
metricLeft = "ne-canadian";
metricRight = "=|re-canadian";
note = uni1544;
unicode = 5444;
},
{
glyphname = "ri-canadian";
kernRight = naright;
lastChange = "2023-01-13 15:29:06 +0000";
layers = (
{
anchors = (
{
name = top_center_can;
pos = (368,515);
},
{
name = top_left_can;
pos = (180,515);
},
{
name = top_right_can;
pos = (830,515);
}
);
layerId = "96DCC2AB-F6C9-4D02-A366-260ACDE51568";
shapes = (
{
closed = 1;
nodes = (
(120,0,l),
(176,264,ls),
(199,371,o),
(251,423,o),
(337,423,cs),
(431,423,o),
(473,362,o),
(450,252,cs),
(396,0,l),
(769,0,l),
(788,89,l),
(512,89,l),
(545,243,ls),
(580,405,o),
(496,509,o),
(342,509,cs),
(200,509,o),
(112,429,o),
(78,268,cs),
(21,0,l)
);
}
);
width = 879;
}
);
metricLeft = "re-canadian";
metricRight = "=|ne-canadian";
note = uni1546;
unicode = 5446;
},
{
glyphname = "ro-canadian";
lastChange = "2023-01-13 15:28:23 +0000";
layers = (
{
anchors = (
{
name = top_center_can;
pos = (344,714);
}
);
layerId = "96DCC2AB-F6C9-4D02-A366-260ACDE51568";
shapes = (
{
closed = 1;
nodes = (
(125,0,l),
(187,293,l),
(134,249,l),
(256,249,ls),
(447,249,o),
(553,361,o),
(553,518,cs),
(553,636,o),
(470,714,o),
(337,714,cs),
(178,714,l),
(159,625,l),
(322,625,ls),
(407,625,o),
(455,582,o),
(455,511,cs),
(455,408,o),
(385,337,o),
(266,337,cs),
(98,337,l),
(26,0,l)
);
}
);
width = 562;
}
);
metricLeft = "nunavuth-canadian";
note = uni1548;
unicode = 5448;
},
{
glyphname = "loWestCree-canadian";
lastChange = "2023-01-13 15:28:23 +0000";
layers = (
{
anchors = (
{
name = top_center_can;
pos = (364,714);
},
{
name = top_left_can;
pos = (228,714);
}
);
layerId = "96DCC2AB-F6C9-4D02-A366-260ACDE51568";
shapes = (
{
closed = 1;
nodes = (
(204,0,ls),
(395,0,o),
(500,112,o),
(500,268,cs),
(500,387,o),
(418,465,o),
(285,465,cs),
(179,465,l),
(215,419,l),
(277,714,l),
(178,714,l),
(106,377,l),
(270,377,ls),
(355,377,o),
(403,333,o),
(403,263,cs),
(403,159,o),
(332,89,o),
(213,89,cs),
(45,89,l),
(26,0,l)
);
}
);
width = 562;
}
);
metricLeft = "nunavuth-canadian";
metricRight = "ro-canadian";
note = uni154A;
unicode = 5450;
},
{
glyphname = "ra-canadian";
lastChange = "2023-01-13 15:29:07 +0000";
layers = (
{
anchors = (
{
name = top_center_can;
pos = (415,714);
},
{
name = top_right_can;
pos = (532,714);
}
);
layerId = "96DCC2AB-F6C9-4D02-A366-260ACDE51568";
shapes = (
{
closed = 1;
nodes = (
(429,0,l),
(501,337,l),
(338,337,ls),
(253,337,o),
(205,381,o),
(205,451,cs),
(205,555,o),
(275,625,o),
(394,625,cs),
(562,625,l),
(581,714,l),
(404,714,ls),
(213,714,o),
(108,602,o),
(108,446,cs),
(108,327,o),
(190,249,o),
(323,249,cs),
(428,249,l),
(392,295,l),
(330,0,l)
);
}
);
width = 561;
}
);
metricLeft = "=|ro-canadian";
metricRight = "nunavuth-canadian";
note = uni154B;
unicode = 5451;
},
{
glyphname = "laWestCree-canadian";
lastChange = "2023-01-13 15:29:07 +0000";
layers = (
{
anchors = (
{
name = top_center_can;
pos = (533,714);
}
);
layerId = "96DCC2AB-F6C9-4D02-A366-260ACDE51568";
shapes = (
{
closed = 1;
nodes = (
(430,0,l),
(449,89,l),
(285,89,ls),
(200,89,o),
(153,132,o),
(153,203,cs),
(153,306,o),
(223,377,o),
(342,377,cs),
(510,377,l),
(582,714,l),
(483,714,l),
(421,421,l),
(474,465,l),
(351,465,ls),
(160,465,o),
(55,353,o),
(55,196,cs),
(55,78,o),
(137,0,o),
(270,0,cs)
);
}
);
width = 562;
}
);
metricLeft = "=|ro-canadian";
metricRight = "nunavuth-canadian";
note = uni154D;
unicode = 5453;
},
{
glyphname = "r-canadian";
kernLeft = mwestleft;
kernRight = mwestright;
lastChange = "2023-01-13 15:28:23 +0000";
layers = (
{
layerId = "96DCC2AB-F6C9-4D02-A366-260ACDE51568";
shapes = (
{
closed = 1;
nodes = (
(298,357,l),
(336,535,l),
(255,535,ls),
(215,535,o),
(196,552,o),
(196,583,cs),
(196,630,o),
(223,658,o),
(280,658,cs),
(362,658,l),
(374,714,l),
(292,714,ls),
(194,714,o),
(131,669,o),
(131,579,cs),
(131,519,o),
(172,479,o),
(243,479,cs),
(291,479,l),
(259,505,l),
(227,357,l)
);
}
);
width = 341;
}
);
metricLeft = "=|k-canadian";
note = uni1550;
unicode = 5456;
},
{
glyphname = "rWestCree-canadian";
kernLeft = mwestleft;
kernRight = mwestright;
lastChange = "2023-01-13 15:29:06 +0000";
layers = (
{
layerId = "96DCC2AB-F6C9-4D02-A366-260ACDE51568";
shapes = (
{
closed = 1;
nodes = (
(166,714,l),
(157,671,l),
(330,596,l),
(338,630,l),
(132,555,l),
(125,524,l),
(299,450,l),
(307,484,l),
(101,408,l),
(90,357,l),
(103,357,l),
(358,450,l),
(363,475,l),
(184,548,l),
(178,523,l),
(389,596,l),
(395,622,l),
(179,714,l)
);
}
);
width = 382;
}
);
metricLeft = "=|lWestCree-canadian";
metricRight = "=|lWestCree-canadian";
note = uni1551;
unicode = 5457;
},
{
glyphname = "rMedial-canadian";
lastChange = "2023-01-13 15:28:23 +0000";
layers = (
{
layerId = "96DCC2AB-F6C9-4D02-A366-260ACDE51568";
shapes = (
{
closed = 1;
nodes = (
(44,-13,l),
(574,179,l),
(582,218,l),
(199,375,l),
(191,339,l),
(642,496,l),
(650,535,l),
(201,727,l),
(175,727,l),
(160,661,l),
(542,498,l),
(552,546,l),
(102,384,l),
(93,341,l),
(475,185,l),
(485,229,l),
(34,67,l),
(17,-13,l)
);
}
);
width = 661;
}
);
metricLeft = "mediall-canadian";
metricRight = "mediall-canadian";
note = uni1552;
unicode = 5458;
},
{
glyphname = "fe-canadian";
kernLeft = ecanleft;
kernRight = ecanright;
lastChange = "2023-01-13 15:28:23 +0000";
layers = (
{
layerId = "96DCC2AB-F6C9-4D02-A366-260ACDE51568";
shapes = (
{
closed = 1;
nodes = (
(348,0,l),
(848,687,l),
(854,714,l),
(764,714,l),
(335,111,l),
(352,110,l),
(264,373,l),
(204,374,l),
(229,344,o),
(261,329,o),
(304,329,cs),
(435,329,o),
(502,464,o),
(502,568,cs),
(502,662,o),
(446,727,o),
(347,727,cs),
(212,727,o),
(147,595,o),
(147,485,cs),
(147,445,o),
(155,407,o),
(172,365,cs),
(311,0,l)
);
},
{
closed = 1;
nodes = (
(257,399,o),
(229,433,o),
(229,491,cs),
(229,549,o),
(258,653,o),
(343,653,cs),
(392,653,o),
(421,618,o),
(421,562,cs),
(421,503,o),
(392,399,o),
(307,399,cs)
);
}
);
width = 789;
}
);
metricRight = "e-canadian";
note = uni1553;
unicode = 5459;
},
{
glyphname = "fi-canadian";
kernLeft = icanleft;
kernRight = icanright;
lastChange = "2023-01-13 15:28:23 +0000";
layers = (
{
anchors = (
{
name = top_center_can;
pos = (476,714);
},
{
name = top_left_can;
pos = (235,714);
},
{
name = top_right_can;
pos = (745,714);
}
);
layerId = "96DCC2AB-F6C9-4D02-A366-260ACDE51568";
shapes = (
{
closed = 1;
nodes = (
(371,-13,o),
(429,124,o),
(429,223,cs),
(429,319,o),
(372,388,o),
(286,388,cs),
(255,388,o),
(225,376,o),
(198,353,c),
(265,350,l),
(468,603,l),
(442,604,l),
(625,0,l),
(702,0,l),
(708,27,l),
(495,714,l),
(458,714,l),
(157,354,ls),
(106,293,o),
(75,224,o),
(75,148,cs),
(75,52,o),
(135,-13,o),
(230,-13,cs)
);
},
{
closed = 1;
nodes = (
(184,61,o),
(156,95,o),
(156,153,cs),
(156,211,o),
(185,315,o),
(270,315,cs),
(320,315,o),
(348,280,o),
(348,223,cs),
(348,164,o),
(319,61,o),
(234,61,cs)
);
}
);
width = 789;
}
);
metricLeft = "fe-canadian";
metricRight = "e-canadian";
note = uni1555;
unicode = 5461;
},
{
glyphname = "fo-canadian";
kernLeft = ocanleft;
kernRight = ocanright;
lastChange = "2023-01-13 15:28:23 +0000";
layers = (
{
anchors = (
{
name = top_center_can;
pos = (331,714);
}
);
layerId = "96DCC2AB-F6C9-4D02-A366-260ACDE51568";
shapes = (
{
closed = 1;
nodes = (
(68,0,l),
(693,339,l),
(701,374,l),
(444,662,ls),
(406,705,o),
(365,727,o),
(311,727,cs),
(180,727,o),
(117,596,o),
(114,495,cs),
(111,394,o),
(169,326,o),
(262,326,cs),
(384,326,o),
(455,437,o),
(458,548,cs),
(459,576,o),
(455,602,o),
(448,624,c),
(412,578,l),
(602,364,l),
(607,382,l),
(60,88,l),
(41,0,l)
);
},
{
closed = 1;
nodes = (
(222,399,o),
(194,436,o),
(195,499,cs),
(197,559,o),
(226,654,o),
(309,654,cs),
(359,654,o),
(388,616,o),
(386,555,cs),
(385,493,o),
(356,399,o),
(273,399,cs)
);
}
);
width = 709;
}
);
metricRight = "o-canadian";
note = uni1557;
unicode = 5463;
},
{
glyphname = "fa-canadian";
kernLeft = acanleft;
kernRight = acanright;
lastChange = "2023-01-13 15:28:23 +0000";
layers = (
{
anchors = (
{
name = top_center_can;
pos = (575,714);
}
);
layerId = "96DCC2AB-F6C9-4D02-A366-260ACDE51568";
shapes = (
{
closed = 1;
nodes = (
(561,0,l),
(577,75,l),
(157,370,l),
(154,349,l),
(435,575,l),
(416,640,l),
(384,596,o),
(365,532,o),
(365,483,cs),
(365,390,o),
(426,324,o),
(522,324,cs),
(649,324,o),
(713,461,o),
(713,562,cs),
(713,661,o),
(654,727,o),
(560,727,cs),
(514,727,o),
(473,711,o),
(431,675,cs),
(62,374,l),
(55,339,l),
(534,0,l)
);
},
{
closed = 1;
nodes = (
(469,398,o),
(441,433,o),
(441,491,cs),
(441,548,o),
(470,653,o),
(555,653,cs),
(605,653,o),
(634,618,o),
(634,562,cs),
(634,503,o),
(605,398,o),
(519,398,cs)
);
}
);
width = 709;
}
);
metricRight = "=|fo-canadian";
note = uni1559;
unicode = 5465;
},
{
glyphname = "f-canadian";
kernLeft = mwestleft;
kernRight = mwestright;
lastChange = "2023-01-13 15:28:23 +0000";
layers = (
{
layerId = "96DCC2AB-F6C9-4D02-A366-260ACDE51568";
shapes = (
{
closed = 1;
nodes = (
(373,357,l),
(383,404,l),
(177,547,l),
(174,528,l),
(309,640,l),
(305,683,l),
(288,664,o),
(275,626,o),
(275,598,cs),
(275,552,o),
(306,519,o),
(351,519,cs),
(414,519,o),
(447,583,o),
(447,639,cs),
(447,690,o),
(419,720,o),
(374,720,cs),
(349,720,o),
(325,711,o),
(300,690,cs),
(123,545,l),
(119,525,l),
(357,357,l)
);
},
{
closed = 1;
nodes = (
(330,559,o),
(317,575,o),
(317,601,cs),
(317,638,o),
(338,679,o),
(371,679,cs),
(392,679,o),
(405,664,o),
(405,638,cs),
(405,602,o),
(386,559,o),
(352,559,cs)
);
}
);
width = 427;
}
);
note = uni155D;
unicode = 5469;
},
{
glyphname = "the-canadian";
lastChange = "2023-01-13 15:29:06 +0000";
layers = (
{
anchors = (
{
name = middle_right_can;
pos = (867,357);
},
{
name = top_center_can;
pos = (476,714);
},
{
name = top_left_can;
pos = (221,714);
},
{
name = top_right_can;
pos = (729,714);
}
);
layerId = "96DCC2AB-F6C9-4D02-A366-260ACDE51568";
shapes = (
{
closed = 1;
nodes = (
(535,-13,o),
(640,84,o),
(684,287,cs),
(775,714,l),
(675,714,l),
(585,288,ls),
(553,142,o),
(482,76,o),
(350,76,cs),
(184,76,o),
(152,173,o),
(181,309,cs),
(209,435,l),
(168,411,l),
(180,360,o),
(220,318,o),
(284,318,cs),
(416,318,o),
(477,450,o),
(481,557,cs),
(485,659,o),
(428,727,o),
(329,727,cs),
(223,727,o),
(156,654,o),
(130,528,cs),
(87,327,ls),
(45,132,o),
(116,-13,o),
(349,-13,cs)
);
},
{
closed = 1;
nodes = (
(236,392,o),
(208,427,o),
(208,486,cs),
(208,544,o),
(237,653,o),
(323,653,cs),
(372,653,o),
(400,618,o),
(400,561,cs),
(400,501,o),
(372,392,o),
(285,392,cs)
);
}
);
width = 746;
}
);
metricLeft = "te-canadian";
metricRight = "te-canadian";
note = uni155E;
unicode = 5470;
},
{
glyphname = "theNCree-canadian";
lastChange = "2023-01-13 15:28:23 +0000";
layers = (
{
layerId = "96DCC2AB-F6C9-4D02-A366-260ACDE51568";
shapes = (
{
closed = 1;
nodes = (
(537,-13,o),
(642,86,o),
(686,294,cs),
(728,488,ls),
(757,627,o),
(703,727,o),
(584,727,cs),
(448,727,o),
(384,592,o),
(384,480,cs),
(384,391,o),
(431,318,o),
(526,318,cs),
(576,318,o),
(619,343,o),
(645,385,c),
(615,418,l),
(587,286,ls),
(556,140,o),
(483,75,o),
(353,75,cs),
(200,75,o),
(152,161,o),
(184,313,cs),
(269,714,l),
(170,714,l),
(85,317,ls),
(41,108,o),
(140,-13,o),
(347,-13,cs)
);
},
{
closed = 1;
nodes = (
(493,392,o),
(465,427,o),
(465,486,cs),
(465,544,o),
(495,653,o),
(580,653,cs),
(629,653,o),
(657,618,o),
(657,561,cs),
(657,501,o),
(628,392,o),
(542,392,cs)
);
}
);
width = 747;
}
);
metricLeft = "te-canadian";
metricRight = "te-canadian";
note = uni155F;
unicode = 5471;
},
{
glyphname = "thi-canadian";
lastChange = "2023-01-13 15:28:23 +0000";
layers = (
{
anchors = (
{
name = top_center_can;
pos = (471,714);
}
);
layerId = "96DCC2AB-F6C9-4D02-A366-260ACDE51568";
shapes = (
{
closed = 1;
nodes = (
(346,-13,o),
(410,122,o),
(410,234,cs),
(410,323,o),
(362,396,o),
(267,396,cs),
(217,396,o),
(174,371,o),
(149,329,c),
(179,296,l),
(207,428,ls),
(238,574,o),
(311,639,o),
(441,639,cs),
(593,639,o),
(642,553,o),
(609,401,cs),
(524,0,l),
(624,0,l),
(708,397,ls),
(752,606,o),
(654,727,o),
(447,727,cs),
(257,727,o),
(152,628,o),
(107,420,cs),
(66,226,ls),
(37,87,o),
(90,-13,o),
(210,-13,cs)
);
},
{
closed = 1;
nodes = (
(165,61,o),
(137,96,o),
(137,153,cs),
(137,213,o),
(165,322,o),
(251,322,cs),
(300,322,o),
(328,287,o),
(328,228,cs),
(328,170,o),
(299,61,o),
(214,61,cs)
);
}
);
width = 747;
}
);
metricLeft = "te-canadian";
metricRight = "te-canadian";
note = uni1560;
unicode = 5472;
},
{
glyphname = "thiNCree-canadian";
lastChange = "2023-01-13 15:29:06 +0000";
layers = (
{
anchors = (
{
name = top_center_can;
pos = (470,714);
}
);
layerId = "96DCC2AB-F6C9-4D02-A366-260ACDE51568";
shapes = (
{
closed = 1;
nodes = (
(569,-13,o),
(635,60,o),
(662,186,cs),
(705,387,ls),
(747,582,o),
(676,727,o),
(443,727,cs),
(257,727,o),
(151,630,o),
(108,427,cs),
(17,0,l),
(116,0,l),
(207,426,ls),
(238,572,o),
(310,638,o),
(442,638,cs),
(608,638,o),
(640,541,o),
(610,405,cs),
(583,279,l),
(624,303,l),
(612,354,o),
(572,396,o),
(508,396,cs),
(376,396,o),
(315,264,o),
(311,157,cs),
(307,55,o),
(364,-13,o),
(462,-13,cs)
);
},
{
closed = 1;
nodes = (
(420,61,o),
(391,96,o),
(391,153,cs),
(391,213,o),
(420,322,o),
(506,322,cs),
(556,322,o),
(584,287,o),
(584,228,cs),
(584,170,o),
(554,61,o),
(469,61,cs)
);
}
);
width = 745;
}
);
metricLeft = "te-canadian";
metricRight = "te-canadian";
note = uni1561;
unicode = 5473;
},
{
glyphname = "tho-canadian";
lastChange = "2023-01-13 15:29:06 +0000";
layers = (
{
anchors = (
{
name = top_center_can;
pos = (415,714);
}
);
layerId = "96DCC2AB-F6C9-4D02-A366-260ACDE51568";
shapes = (
{
closed = 1;
nodes = (
(244,0,ls),
(542,0,o),
(660,229,o),
(660,436,cs),
(660,614,o),
(552,727,o),
(390,727,cs),
(216,727,o),
(120,601,o),
(120,458,cs),
(120,360,o),
(178,295,o),
(272,295,cs),
(398,295,o),
(465,422,o),
(465,529,cs),
(465,616,o),
(414,674,o),
(329,675,c),
(319,644,l),
(335,652,o),
(358,657,o),
(385,657,cs),
(488,656,o),
(564,577,o),
(564,441,cs),
(564,305,o),
(506,90,o),
(253,90,cs),
(71,90,l),
(52,0,l)
);
},
{
closed = 1;
nodes = (
(228,369,o),
(201,403,o),
(201,459,cs),
(201,517,o),
(230,633,o),
(317,633,cs),
(365,633,o),
(392,598,o),
(392,543,cs),
(392,486,o),
(362,369,o),
(276,369,cs)
);
}
);
width = 695;
}
);
metricRight = "to-canadian";
note = uni1564;
unicode = 5476;
},
{
glyphname = "tha-canadian";
lastChange = "2023-01-13 15:29:07 +0000";
layers = (
{
anchors = (
{
name = top_center_can;
pos = (481,714);
}
);
layerId = "96DCC2AB-F6C9-4D02-A366-260ACDE51568";
shapes = (
{
closed = 1;
nodes = (
(539,0,l),
(558,90,l),
(387,90,ls),
(253,90,o),
(180,161,o),
(180,289,cs),
(180,421,o),
(253,653,o),
(452,653,cs),
(487,653,o),
(523,646,o),
(550,632,c),
(529,672,l),
(403,684,o),
(333,561,o),
(333,450,cs),
(333,358,o),
(389,295,o),
(482,295,cs),
(609,295,o),
(681,418,o),
(681,534,cs),
(681,653,o),
(595,727,o),
(455,727,cs),
(191,727,o),
(81,464,o),
(81,278,cs),
(81,106,o),
(185,0,o),
(366,0,cs)
);
},
{
closed = 1;
nodes = (
(438,369,o),
(410,403,o),
(410,459,cs),
(410,517,o),
(439,633,o),
(526,633,cs),
(574,633,o),
(601,598,o),
(601,543,cs),
(601,486,o),
(572,369,o),
(486,369,cs)
);
}
);
width = 695;
}
);
metricLeft = "=|theCarrier-canadian";
metricRight = "=|tho-canadian";
note = uni1566;
unicode = 5478;
},
{
glyphname = "th-canadian";
kernLeft = mwestleft;
kernRight = mwestright;
lastChange = "2023-01-13 15:29:06 +0000";
layers = (
{
layerId = "96DCC2AB-F6C9-4D02-A366-260ACDE51568";
shapes = (
{
closed = 1;
nodes = (
(351,357,l),
(363,415,l),
(281,415,ls),
(216,415,o),
(184,446,o),
(184,504,cs),
(184,569,o),
(221,676,o),
(315,676,cs),
(330,676,o),
(350,672,o),
(362,666,c),
(343,689,l),
(275,693,o),
(250,629,o),
(250,584,cs),
(250,536,o),
(278,504,o),
(323,504,cs),
(391,504,o),
(421,576,o),
(421,625,cs),
(421,683,o),
(380,720,o),
(310,720,cs),
(179,720,o),
(121,591,o),
(121,498,cs),
(121,410,o),
(177,357,o),
(268,357,cs)
);
},
{
closed = 1;
nodes = (
(302,544,o),
(290,560,o),
(290,585,cs),
(290,615,o),
(304,664,o),
(342,664,cs),
(365,664,o),
(378,649,o),
(378,624,cs),
(378,594,o),
(364,544,o),
(325,544,cs)
);
}
);
width = 403;
}
);
metricLeft = "t-canadian";
note = uni156A;
unicode = 5482;
},
{
glyphname = "tthe-canadian";
lastChange = "2023-01-13 15:29:06 +0000";
layers = (
{
anchors = (
{
name = middle_right_can;
pos = (855,357);
},
{
name = top_center_can;
pos = (468,714);
},
{
name = top_left_can;
pos = (220,714);
},
{
name = top_right_can;
pos = (717,714);
}
);
layerId = "96DCC2AB-F6C9-4D02-A366-260ACDE51568";
shapes = (
{
closed = 1;
nodes = (
(526,-13,o),
(632,82,o),
(676,289,cs),
(766,714,l),
(669,714,l),
(579,290,ls),
(547,143,o),
(475,78,o),
(349,78,cs),
(206,78,o),
(148,155,o),
(182,311,cs),
(267,714,l),
(170,714,l),
(85,317,ls),
(41,107,o),
(141,-13,o),
(343,-13,cs)
);
},
{
closed = 1;
nodes = (
(442,401,l),
(509,714,l),
(427,714,l),
(360,401,l)
);
}
);
width = 737;
}
);
metricLeft = "te-canadian";
metricRight = "te-canadian";
note = uni156B;
unicode = 5483;
},
{
glyphname = "tthi-canadian";
lastChange = "2023-01-13 15:29:06 +0000";
layers = (
{
layerId = "96DCC2AB-F6C9-4D02-A366-260ACDE51568";
shapes = (
{
closed = 1;
nodes = (
(115,0,l),
(205,424,ls),
(237,571,o),
(309,636,o),
(435,636,cs),
(578,636,o),
(636,559,o),
(603,403,cs),
(517,0,l),
(614,0,l),
(699,397,ls),
(743,607,o),
(643,727,o),
(441,727,cs),
(258,727,o),
(152,632,o),
(108,425,cs),
(18,0,l)
);
},
{
closed = 1;
nodes = (
(357,0,l),
(424,313,l),
(342,313,l),
(275,0,l)
);
}
);
width = 737;
}
);
metricLeft = "te-canadian";
metricRight = "te-canadian";
note = uni156C;
unicode = 5484;
},
{
glyphname = "ttho-canadian";
lastChange = "2023-01-13 15:28:23 +0000";
layers = (
{
anchors = (
{
name = top_center_can;
pos = (410,714);
},
{
name = top_left_can;
pos = (217,714);
},
{
name = top_right_can;
pos = (635,714);
}
);
layerId = "96DCC2AB-F6C9-4D02-A366-260ACDE51568";
shapes = (
{
closed = 1;
nodes = (
(192,0,ls),
(522,0,o),
(610,262,o),
(610,439,cs),
(610,612,o),
(506,714,o),
(321,714,cs),
(174,714,l),
(156,624,l),
(307,624,ls),
(441,624,o),
(510,557,o),
(510,432,cs),
(510,294,o),
(445,90,o),
(202,90,cs),
(41,90,l),
(23,0,l)
);
},
{
closed = 1;
nodes = (
(334,317,l),
(351,399,l),
(107,399,l),
(90,317,l)
);
}
);
width = 645;
}
);
metricRight = "to-canadian";
note = uni156D;
unicode = 5485;
},
{
glyphname = "ttha-canadian";
lastChange = "2023-01-13 15:29:06 +0000";
layers = (
{
anchors = (
{
name = top_center_can;
pos = (427,714);
},
{
name = top_left_can;
pos = (210,714);
},
{
name = top_right_can;
pos = (617,714);
}
);
layerId = "96DCC2AB-F6C9-4D02-A366-260ACDE51568";
shapes = (
{
closed = 1;
nodes = (
(516,0,l),
(535,90,l),
(383,90,ls),
(249,90,o),
(181,157,o),
(181,282,cs),
(181,422,o),
(248,624,o),
(488,624,cs),
(649,624,l),
(668,714,l),
(498,714,ls),
(170,714,o),
(81,454,o),
(81,275,cs),
(81,102,o),
(184,0,o),
(369,0,cs)
);
},
{
closed = 1;
nodes = (
(582,317,l),
(599,399,l),
(355,399,l),
(338,317,l)
);
}
);
width = 644;
}
);
metricLeft = "=|to-canadian";
metricRight = "=|ttho-canadian";
note = uni156E;
unicode = 5486;
},
{
glyphname = "tth-canadian";
lastChange = "2023-01-13 15:28:23 +0000";
layers = (
{
layerId = "96DCC2AB-F6C9-4D02-A366-260ACDE51568";
shapes = (
{
closed = 1;
nodes = (
(292,494,l),
(265,494,l),
(334,359,l),
(389,388,l),
(318,528,l),
(303,502,l),
(470,557,l),
(452,613,l),
(296,561,l),
(316,546,l),
(351,714,l),
(290,714,l),
(254,546,l),
(279,559,l),
(135,613,l),
(114,558,l),
(250,507,l),
(247,533,l),
(123,401,l),
(168,359,l)
);
},
{
closed = 1;
nodes = (
(713,494,l),
(685,494,l),
(754,359,l),
(810,388,l),
(738,528,l),
(723,502,l),
(891,557,l),
(872,613,l),
(716,561,l),
(736,546,l),
(772,714,l),
(710,714,l),
(674,546,l),
(699,559,l),
(555,613,l),
(534,558,l),
(670,507,l),
(667,533,l),
(543,401,l),
(588,359,l)
);
}
);
width = 873;
}
);
metricRight = "=|";
note = uni156F;
unicode = 5487;
},
{
glyphname = "tye-canadian";
lastChange = "2023-01-13 15:29:06 +0000";
layers = (
{
layerId = "96DCC2AB-F6C9-4D02-A366-260ACDE51568";
shapes = (
{
closed = 1;
nodes = (
(528,-13,o),
(632,85,o),
(676,289,cs),
(766,714,l),
(670,714,l),
(581,299,ls),
(549,146,o),
(476,78,o),
(347,78,cs),
(205,78,o),
(148,155,o),
(181,311,cs),
(267,714,l),
(170,714,l),
(85,317,ls),
(41,107,o),
(140,-13,o),
(344,-13,cs)
);
},
{
closed = 1;
nodes = (
(489,426,o),
(532,467,o),
(551,551,cs),
(586,714,l),
(534,714,l),
(501,559,ls),
(489,503,o),
(464,478,o),
(419,478,cs),
(373,478,o),
(358,504,o),
(370,561,cs),
(402,714,l),
(350,714,l),
(318,560,ls),
(300,477,o),
(338,426,o),
(417,426,cs)
);
}
);
width = 737;
}
);
metricLeft = "te-canadian";
metricRight = "te-canadian";
note = uni1570;
unicode = 5488;
},
{
glyphname = "tyi-canadian";
lastChange = "2023-01-13 15:29:06 +0000";
layers = (
{
layerId = "96DCC2AB-F6C9-4D02-A366-260ACDE51568";
shapes = (
{
closed = 1;
nodes = (
(115,0,l),
(203,415,ls),
(235,568,o),
(308,636,o),
(437,636,cs),
(579,636,o),
(637,559,o),
(603,403,cs),
(518,0,l),
(614,0,l),
(699,397,ls),
(743,607,o),
(644,727,o),
(440,727,cs),
(256,727,o),
(152,629,o),
(108,425,cs),
(18,0,l)
);
},
{
closed = 1;
nodes = (
(250,0,l),
(283,155,ls),
(295,211,o),
(320,236,o),
(365,236,cs),
(411,236,o),
(426,210,o),
(414,153,cs),
(382,0,l),
(434,0,l),
(466,154,ls),
(484,237,o),
(446,288,o),
(367,288,cs),
(296,288,o),
(252,247,o),
(234,163,cs),
(199,0,l)
);
}
);
width = 737;
}
);
metricLeft = "te-canadian";
metricRight = "te-canadian";
note = uni1571;
unicode = 5489;
},
{
glyphname = "tyo-canadian";
lastChange = "2023-01-13 15:29:07 +0000";
layers = (
{
layerId = "96DCC2AB-F6C9-4D02-A366-260ACDE51568";
shapes = (
{
closed = 1;
nodes = (
(195,0,ls),
(525,0,o),
(614,262,o),
(614,439,cs),
(614,612,o),
(509,714,o),
(324,714,cs),
(179,714,l),
(160,625,l),
(311,625,ls),
(444,625,o),
(515,557,o),
(515,432,cs),
(515,283,o),
(438,89,o),
(205,89,cs),
(45,89,l),
(27,0,l)
);
},
{
closed = 1;
nodes = (
(169,221,ls),
(281,221,o),
(336,291,o),
(338,377,cs),
(341,449,o),
(296,493,o),
(218,493,cs),
(131,493,l),
(120,441,l),
(205,441,ls),
(255,441,o),
(281,417,o),
(280,375,cs),
(279,323,o),
(249,273,o),
(174,273,cs),
(85,273,l),
(73,221,l)
);
}
);
width = 649;
}
);
metricLeft = "nunavuth-canadian";
metricRight = "theCarrier-canadian";
note = uni1572;
unicode = 5490;
},
{
glyphname = "tya-canadian";
lastChange = "2023-01-13 15:29:07 +0000";
layers = (
{
layerId = "96DCC2AB-F6C9-4D02-A366-260ACDE51568";
shapes = (
{
closed = 1;
nodes = (
(516,0,l),
(534,89,l),
(384,89,ls),
(251,89,o),
(180,157,o),
(180,282,cs),
(180,431,o),
(257,625,o),
(490,625,cs),
(649,625,l),
(667,714,l),
(500,714,ls),
(170,714,o),
(81,452,o),
(81,275,cs),
(81,102,o),
(186,0,o),
(371,0,cs)
);
},
{
closed = 1;
nodes = (
(563,221,l),
(574,273,l),
(490,273,ls),
(440,273,o),
(414,297,o),
(415,339,cs),
(416,391,o),
(446,441,o),
(521,441,cs),
(610,441,l),
(621,493,l),
(526,493,ls),
(414,493,o),
(359,423,o),
(357,337,cs),
(354,265,o),
(399,221,o),
(477,221,cs)
);
}
);
width = 648;
}
);
metricLeft = "=|theCarrier-canadian";
metricRight = "nunavuth-canadian";
note = uni1573;
unicode = 5491;
},
{
glyphname = "heNunavik-canadian";
lastChange = "2023-01-13 15:28:23 +0000";
layers = (
{
layerId = "96DCC2AB-F6C9-4D02-A366-260ACDE51568";
shapes = (
{
closed = 1;
nodes = (
(472,0,l),
(760,201,l),
(710,274,l),
(467,106,l),
(500,80,l),
(574,427,ls),
(605,573,o),
(555,727,o),
(374,727,cs),
(190,727,o),
(106,557,o),
(106,414,cs),
(106,288,o),
(182,205,o),
(301,205,cs),
(378,205,o),
(439,244,o),
(468,309,c),
(448,302,l),
(384,0,l)
);
},
{
closed = 1;
nodes = (
(247,290,o),
(202,339,o),
(202,420,cs),
(202,500,o),
(244,642,o),
(366,642,cs),
(442,642,o),
(487,593,o),
(487,511,cs),
(487,429,o),
(445,290,o),
(323,290,cs)
);
}
);
width = 797;
}
);
metricLeft = "ke-canadian";
note = uni1574;
unicode = 5492;
},
{
glyphname = "hiNunavik-canadian";
lastChange = "2023-01-13 15:29:06 +0000";
layers = (
{
anchors = (
{
name = top_center_can;
pos = (599,714);
}
);
layerId = "96DCC2AB-F6C9-4D02-A366-260ACDE51568";
shapes = (
{
closed = 1;
nodes = (
(309,0,l),
(383,346,l),
(369,336,l),
(367,268,o),
(433,205,o),
(529,205,cs),
(709,205,o),
(785,383,o),
(785,513,cs),
(785,645,o),
(704,727,o),
(574,727,cs),
(440,727,o),
(346,643,o),
(314,493,cs),
(226,77,l),
(263,87,l),
(80,265,l),
(17,201,l),
(221,0,l)
);
},
{
closed = 1;
nodes = (
(449,290,o),
(404,339,o),
(404,420,cs),
(404,500,o),
(445,642,o),
(567,642,cs),
(643,642,o),
(688,593,o),
(688,512,cs),
(688,432,o),
(647,290,o),
(525,290,cs)
);
}
);
width = 799;
}
);
metricLeft = "=|heNunavik-canadian";
metricRight = "=|ke-canadian";
note = uni1575;
unicode = 5493;
},
{
glyphname = "hoNunavik-canadian";
lastChange = "2023-01-13 15:29:06 +0000";
layers = (
{
anchors = (
{
name = top_center_can;
pos = (398,714);
},
{
name = top_right_can;
pos = (586,714);
}
);
layerId = "96DCC2AB-F6C9-4D02-A366-260ACDE51568";
shapes = (
{
closed = 1;
nodes = (
(404,-13,o),
(498,71,o),
(530,221,cs),
(618,637,l),
(581,627,l),
(764,449,l),
(827,513,l),
(624,714,l),
(535,714,l),
(462,368,l),
(476,378,l),
(478,446,o),
(412,509,o),
(316,509,cs),
(135,509,o),
(60,331,o),
(60,201,cs),
(60,69,o),
(140,-13,o),
(270,-13,cs)
);
},
{
closed = 1;
nodes = (
(201,72,o),
(156,121,o),
(156,202,cs),
(156,282,o),
(198,424,o),
(320,424,cs),
(396,424,o),
(440,375,o),
(440,294,cs),
(440,214,o),
(399,72,o),
(277,72,cs)
);
}
);
width = 798;
}
);
metricLeft = "ke-canadian";
metricRight = "heNunavik-canadian";
note = uni1577;
unicode = 5495;
},
{
glyphname = "haNunavik-canadian";
lastChange = "2023-01-13 15:28:23 +0000";
layers = (
{
anchors = (
{
name = top_center_can;
pos = (598,714);
},
{
name = top_left_can;
pos = (410,714);
}
);
layerId = "96DCC2AB-F6C9-4D02-A366-260ACDE51568";
shapes = (
{
closed = 1;
nodes = (
(654,-13,o),
(738,157,o),
(738,300,cs),
(738,426,o),
(661,509,o),
(542,509,cs),
(465,509,o),
(404,470,o),
(376,405,c),
(395,412,l),
(460,714,l),
(371,714,l),
(83,513,l),
(133,440,l),
(376,608,l),
(343,634,l),
(270,287,ls),
(239,141,o),
(289,-13,o),
(469,-13,cs)
);
},
{
closed = 1;
nodes = (
(401,72,o),
(357,121,o),
(357,203,cs),
(357,285,o),
(399,424,o),
(520,424,cs),
(596,424,o),
(641,375,o),
(641,294,cs),
(641,214,o),
(600,72,o),
(478,72,cs)
);
}
);
width = 797;
}
);
metricLeft = "=|heNunavik-canadian";
metricRight = "=|ke-canadian";
note = uni1579;
unicode = 5497;
},
{
glyphname = "hNunavik-canadian";
kernLeft = mwestleft;
kernRight = mwestright;
lastChange = "2023-01-13 15:28:23 +0000";
layers = (
{
layerId = "96DCC2AB-F6C9-4D02-A366-260ACDE51568";
shapes = (
{
closed = 1;
nodes = (
(423,351,o),
(477,437,o),
(477,515,cs),
(477,578,o),
(437,622,o),
(376,622,cs),
(337,622,o),
(304,605,o),
(287,571,c),
(297,558,l),
(331,714,l),
(266,714,l),
(120,613,l),
(153,568,l),
(286,661,l),
(255,689,l),
(216,504,ls),
(197,418,o),
(240,351,o),
(328,351,cs)
);
},
{
closed = 1;
nodes = (
(297,404,o),
(275,426,o),
(275,465,cs),
(275,516,o),
(304,569,o),
(356,569,cs),
(391,569,o),
(414,546,o),
(414,508,cs),
(414,458,o),
(384,404,o),
(332,404,cs)
);
}
);
width = 481;
}
);
metricRight = "k-canadian";
note = uni157B;
unicode = 5499;
},
{
color = 4;
glyphname = "nunavuth-canadian";
lastChange = "2023-01-13 15:29:06 +0000";
layers = (
{
layerId = "96DCC2AB-F6C9-4D02-A366-260ACDE51568";
shapes = (
{
closed = 1;
nodes = (
(125,0,l),
(194,326,l),
(550,326,l),
(481,0,l),
(580,0,l),
(732,714,l),
(633,714,l),
(569,414,l),
(213,414,l),
(277,714,l),
(178,714,l),
(26,0,l)
);
}
);
width = 712;
}
);
metricRight = "=|";
note = uni157C;
unicode = 5500;
},
{
glyphname = "tlhe-canadian";
lastChange = "2023-01-13 15:29:06 +0000";
layers = (
{
anchors = (
{
name = top_center_can;
pos = (408,714);
}
);
layerId = "96DCC2AB-F6C9-4D02-A366-260ACDE51568";
shapes = (
{
closed = 1;
nodes = (
(147,0,l),
(348,279,l),
(279,241,l),
(289,241,o),
(301,240,o),
(311,240,cs),
(383,240,o),
(443,270,o),
(474,325,c),
(469,351,l),
(395,0,l),
(493,0,l),
(590,457,ls),
(622,607,o),
(549,727,o),
(385,727,cs),
(214,727,o),
(117,591,o),
(117,442,cs),
(117,358,o),
(160,290,o),
(232,263,c),
(42,0,l)
);
},
{
closed = 1;
nodes = (
(259,326,o),
(213,376,o),
(213,452,cs),
(213,538,o),
(267,642,o),
(376,642,cs),
(456,642,o),
(501,595,o),
(501,521,cs),
(501,432,o),
(445,326,o),
(335,326,cs)
);
}
);
width = 616;
}
);
metricRight = "te-canadian";
note = uni1586;
unicode = 5510;
},
{
glyphname = "tlhi-canadian";
lastChange = "2023-01-13 15:28:23 +0000";
layers = (
{
layerId = "96DCC2AB-F6C9-4D02-A366-260ACDE51568";
shapes = (
{
closed = 1;
nodes = (
(116,0,l),
(196,375,l),
(160,360,l),
(182,293,o),
(246,246,o),
(330,242,c),
(280,283,l),
(364,0,l),
(469,0,l),
(395,251,l),
(521,268,o),
(600,398,o),
(600,520,cs),
(600,643,o),
(516,727,o),
(381,727,cs),
(247,727,o),
(155,646,o),
(122,493,cs),
(18,0,l)
);
},
{
closed = 1;
nodes = (
(263,326,o),
(216,372,o),
(216,449,cs),
(216,535,o),
(269,642,o),
(379,642,cs),
(458,642,o),
(504,595,o),
(504,520,cs),
(504,434,o),
(450,326,o),
(340,326,cs)
);
}
);
width = 617;
}
);
metricLeft = "te-canadian";
metricRight = "=|tlhe-canadian";
note = uni1587;
unicode = 5511;
},
{
glyphname = "tlho-canadian";
lastChange = "2023-01-13 15:29:06 +0000";
layers = (
{
anchors = (
{
name = top_center_can;
pos = (424,714);
}
);
layerId = "96DCC2AB-F6C9-4D02-A366-260ACDE51568";
shapes = (
{
closed = 1;
nodes = (
(416,-13,o),
(508,68,o),
(541,221,cs),
(646,714,l),
(547,714,l),
(468,339,l),
(504,354,l),
(481,421,o),
(417,468,o),
(333,472,c),
(384,431,l),
(300,714,l),
(194,714,l),
(269,463,l),
(143,446,o),
(63,316,o),
(63,194,cs),
(63,71,o),
(147,-13,o),
(282,-13,cs)
);
},
{
closed = 1;
nodes = (
(205,72,o),
(160,119,o),
(160,194,cs),
(160,280,o),
(213,388,o),
(323,388,cs),
(401,388,o),
(447,342,o),
(447,265,cs),
(447,179,o),
(394,72,o),
(284,72,cs)
);
}
);
width = 617;
}
);
metricLeft = "tlhe-canadian";
metricRight = "te-canadian";
note = uni1588;
unicode = 5512;
},
{
glyphname = "tlha-canadian";
lastChange = "2023-01-13 15:29:06 +0000";
layers = (
{
layerId = "96DCC2AB-F6C9-4D02-A366-260ACDE51568";
shapes = (
{
closed = 1;
nodes = (
(448,-13,o),
(545,123,o),
(545,272,cs),
(545,356,o),
(502,424,o),
(430,451,c),
(620,714,l),
(515,714,l),
(314,435,l),
(383,473,l),
(373,473,o),
(361,474,o),
(351,474,cs),
(279,474,o),
(219,444,o),
(188,389,c),
(193,363,l),
(267,714,l),
(169,714,l),
(72,257,ls),
(40,107,o),
(113,-13,o),
(277,-13,cs)
);
},
{
closed = 1;
nodes = (
(206,72,o),
(161,119,o),
(161,193,cs),
(161,282,o),
(217,388,o),
(327,388,cs),
(403,388,o),
(449,338,o),
(449,262,cs),
(449,176,o),
(395,72,o),
(286,72,cs)
);
}
);
width = 616;
}
);
metricLeft = "te-canadian";
note = uni1589;
unicode = 5513;
},
{
glyphname = "reWestCree-canadian";
lastChange = "2023-01-13 15:29:06 +0000";
layers = (
{
layerId = "96DCC2AB-F6C9-4D02-A366-260ACDE51568";
shapes = (
{
closed = 1;
nodes = (
(467,0,l),
(755,202,l),
(703,275,l),
(462,107,l),
(495,81,l),
(573,450,ls),
(608,614,o),
(529,727,o),
(373,727,cs),
(232,727,o),
(147,645,o),
(111,481,cs),
(94,401,l),
(192,401,l),
(209,478,ls),
(232,590,o),
(282,640,o),
(365,640,cs),
(462,640,o),
(500,571,o),
(476,461,cs),
(379,0,l)
);
}
);
width = 792;
}
);
metricLeft = "ce-canadian";
metricRight = "heNunavik-canadian";
note = uni158A;
unicode = 5514;
},
{
glyphname = "riWestCree-canadian";
lastChange = "2023-01-13 15:29:06 +0000";
layers = (
{
layerId = "96DCC2AB-F6C9-4D02-A366-260ACDE51568";
shapes = (
{
closed = 1;
nodes = (
(308,0,l),
(409,478,ls),
(432,590,o),
(482,640,o),
(565,640,cs),
(662,640,o),
(701,571,o),
(677,461,cs),
(664,401,l),
(763,401,l),
(773,450,ls),
(809,614,o),
(728,727,o),
(572,727,cs),
(431,727,o),
(347,645,o),
(311,481,cs),
(226,79,l),
(265,91,l),
(85,269,l),
(17,202,l),
(219,0,l)
);
}
);
width = 791;
}
);
metricLeft = "=|heNunavik-canadian";
metricRight = "=|ce-canadian";
note = uni158B;
unicode = 5515;
},
{
glyphname = "roWestCree-canadian";
lastChange = "2023-01-13 15:29:06 +0000";
layers = (
{
layerId = "96DCC2AB-F6C9-4D02-A366-260ACDE51568";
shapes = (
{
closed = 1;
nodes = (
(407,-13,o),
(491,69,o),
(527,233,cs),
(612,635,l),
(573,623,l),
(753,445,l),
(821,512,l),
(619,714,l),
(531,714,l),
(429,236,ls),
(406,124,o),
(356,74,o),
(273,74,cs),
(176,74,o),
(137,143,o),
(161,253,cs),
(174,313,l),
(75,313,l),
(65,264,ls),
(29,100,o),
(110,-13,o),
(266,-13,cs)
);
}
);
width = 792;
}
);
metricLeft = "ce-canadian";
metricRight = "heNunavik-canadian";
note = uni158C;
unicode = 5516;
},
{
glyphname = "raWestCree-canadian";
lastChange = "2023-01-13 15:29:06 +0000";
layers = (
{
layerId = "96DCC2AB-F6C9-4D02-A366-260ACDE51568";
shapes = (
{
closed = 1;
nodes = (
(606,-13,o),
(691,69,o),
(727,233,cs),
(744,313,l),
(646,313,l),
(629,236,ls),
(606,124,o),
(556,74,o),
(473,74,cs),
(376,74,o),
(338,143,o),
(362,253,cs),
(459,714,l),
(371,714,l),
(83,512,l),
(135,439,l),
(376,607,l),
(343,633,l),
(265,264,ls),
(230,100,o),
(309,-13,o),
(465,-13,cs)
);
}
);
width = 791;
}
);
metricLeft = "=|heNunavik-canadian";
metricRight = "=|ce-canadian";
note = uni158D;
unicode = 5517;
},
{
glyphname = "ng-canadian";
kernLeft = mwestleft;
kernRight = mwestright;
lastChange = "2023-01-13 15:28:23 +0000";
layers = (
{
layerId = "96DCC2AB-F6C9-4D02-A366-260ACDE51568";
shapes = (
{
closed = 1;
nodes = (
(567,225,o),
(621,271,o),
(639,355,cs),
(644,378,l),
(578,378,l),
(572,351,ls),
(561,305,o),
(535,281,o),
(495,281,cs),
(452,281,o),
(434,309,o),
(445,357,cs),
(479,515,l),
(325,515,l),
(326,479,l),
(369,501,o),
(389,559,o),
(390,602,cs),
(392,672,o),
(346,721,o),
(271,721,cs),
(183,721,o),
(131,648,o),
(128,571,cs),
(126,498,o),
(173,450,o),
(247,450,cs),
(414,450,l),
(399,473,l),
(377,370,ls),
(359,284,o),
(403,225,o),
(489,225,cs)
);
},
{
closed = 1;
nodes = (
(212,502,o),
(190,528,o),
(191,569,cs),
(192,609,o),
(214,668,o),
(270,668,cs),
(307,668,o),
(329,642,o),
(328,602,cs),
(327,561,o),
(305,502,o),
(249,502,cs)
);
}
);
width = 661;
}
);
metricLeft = "n-canadian";
metricRight = "c-canadian";
note = uni1595;
unicode = 5525;
},
{
glyphname = "nng-canadian";
kernLeft = mwestleft;
kernRight = mwestright;
lastChange = "2023-01-13 15:29:06 +0000";
layers = (
{
layerId = "96DCC2AB-F6C9-4D02-A366-260ACDE51568";
shapes = (
{
closed = 1;
nodes = (
(869,225,o),
(920,271,o),
(938,355,cs),
(944,378,l),
(877,378,l),
(871,351,ls),
(860,305,o),
(834,281,o),
(795,281,cs),
(751,281,o),
(734,309,o),
(744,357,cs),
(778,515,l),
(631,515,l),
(629,479,l),
(673,502,o),
(694,564,o),
(694,605,cs),
(693,675,o),
(648,721,o),
(574,721,cs),
(484,721,o),
(431,645,o),
(431,566,cs),
(431,532,o),
(443,505,o),
(463,486,c),
(475,515,l),
(329,515,l),
(327,479,l),
(371,503,o),
(392,564,o),
(392,605,cs),
(392,674,o),
(345,721,o),
(272,721,cs),
(182,721,o),
(129,645,o),
(129,566,cs),
(129,496,o),
(175,450,o),
(248,450,cs),
(694,450,l),
(677,370,ls),
(658,283,o),
(705,225,o),
(791,225,cs)
);
},
{
closed = 1;
nodes = (
(213,502,o),
(191,527,o),
(191,565,cs),
(191,605,o),
(213,668,o),
(271,668,cs),
(308,668,o),
(330,643,o),
(330,606,cs),
(330,566,o),
(308,502,o),
(250,502,cs)
);
},
{
closed = 1;
nodes = (
(515,502,o),
(493,527,o),
(493,565,cs),
(493,605,o),
(515,668,o),
(573,668,cs),
(610,668,o),
(632,643,o),
(632,606,cs),
(632,566,o),
(610,502,o),
(552,502,cs)
);
}
);
width = 961;
}
);
metricLeft = "n-canadian";
metricRight = "c-canadian";
note = uni1596;
unicode = 5526;
},
{
glyphname = "sheSayisi-canadian";
lastChange = "2023-01-13 15:29:06 +0000";
layers = (
{
anchors = (
{
name = middle_right_can;
pos = (729,357);
},
{
name = top_center_can;
pos = (406,714);
}
);
layerId = "96DCC2AB-F6C9-4D02-A366-260ACDE51568";
shapes = (
{
closed = 1;
nodes = (
(490,0,l),
(584,443,ls),
(618,601,o),
(556,727,o),
(387,727,cs),
(183,727,o),
(100,530,o),
(100,384,cs),
(100,274,o),
(154,206,o),
(245,206,cs),
(338,206,o),
(394,277,o),
(421,426,c),
(363,426,l),
(345,331,o),
(314,289,o),
(264,289,cs),
(220,289,o),
(195,322,o),
(195,382,cs),
(195,472,o),
(240,642,o),
(377,642,cs),
(485,642,o),
(508,552,o),
(484,441,cs),
(391,0,l)
);
}
);
width = 613;
}
);
metricLeft = "ke-canadian";
metricRight = "te-canadian";
note = uni1597;
unicode = 5527;
},
{
glyphname = "shiSayisi-canadian";
lastChange = "2023-01-13 15:29:06 +0000";
layers = (
{
layerId = "96DCC2AB-F6C9-4D02-A366-260ACDE51568";
shapes = (
{
closed = 1;
nodes = (
(116,0,l),
(217,475,ls),
(241,586,o),
(296,642,o),
(380,642,cs),
(459,642,o),
(503,594,o),
(503,511,cs),
(503,444,o),
(467,289,o),
(381,289,cs),
(325,289,o),
(303,337,o),
(325,426,c),
(267,426,l),
(231,295,o),
(281,206,o),
(387,206,cs),
(538,206,o),
(598,401,o),
(598,513,cs),
(598,645,o),
(518,727,o),
(383,727,cs),
(246,727,o),
(153,643,o),
(121,489,cs),
(17,0,l)
);
}
);
width = 612;
}
);
metricLeft = "te-canadian";
metricRight = "=|ke-canadian";
note = uni1598;
unicode = 5528;
},
{
glyphname = "shoSayisi-canadian";
lastChange = "2023-01-13 15:29:06 +0000";
layers = (
{
anchors = (
{
name = top_center_can;
pos = (402,714);
},
{
name = top_left_can;
pos = (210,714);
},
{
name = top_right_can;
pos = (593,714);
}
);
layerId = "96DCC2AB-F6C9-4D02-A366-260ACDE51568";
shapes = (
{
closed = 1;
nodes = (
(413,-13,o),
(505,71,o),
(538,225,cs),
(642,714,l),
(542,714,l),
(441,239,ls),
(418,128,o),
(363,72,o),
(279,72,cs),
(200,72,o),
(156,120,o),
(156,203,cs),
(156,270,o),
(192,425,o),
(278,425,cs),
(334,425,o),
(356,377,o),
(334,288,c),
(392,288,l),
(428,419,o),
(378,508,o),
(272,508,cs),
(121,508,o),
(61,313,o),
(61,201,cs),
(61,69,o),
(141,-13,o),
(276,-13,cs)
);
}
);
width = 613;
}
);
metricLeft = "ke-canadian";
metricRight = "te-canadian";
note = uni1599;
unicode = 5529;
},
{
glyphname = "shaSayisi-canadian";
lastChange = "2023-01-13 15:29:06 +0000";
layers = (
{
layerId = "96DCC2AB-F6C9-4D02-A366-260ACDE51568";
shapes = (
{
closed = 1;
nodes = (
(477,-13,o),
(558,184,o),
(558,330,cs),
(558,440,o),
(505,508,o),
(414,508,cs),
(321,508,o),
(265,437,o),
(238,288,c),
(296,288,l),
(314,383,o),
(345,425,o),
(395,425,cs),
(439,425,o),
(464,392,o),
(464,332,cs),
(464,242,o),
(419,72,o),
(282,72,cs),
(174,72,o),
(151,162,o),
(175,273,cs),
(268,714,l),
(169,714,l),
(75,271,ls),
(41,113,o),
(103,-13,o),
(273,-13,cs)
);
}
);
width = 612;
}
);
metricLeft = "te-canadian";
metricRight = "=|ke-canadian";
note = uni159A;
unicode = 5530;
},
{
glyphname = "theWoodScree-canadian";
lastChange = "2023-01-13 15:28:23 +0000";
layers = (
{
layerId = "96DCC2AB-F6C9-4D02-A366-260ACDE51568";
shapes = (
{
closed = 1;
nodes = (
(691,-13,o),
(782,146,o),
(782,283,cs),
(782,410,o),
(697,496,o),
(559,496,cs),
(120,496,l),
(103,414,l),
(442,414,l),
(437,447,l),
(328,406,o),
(291,286,o),
(291,201,cs),
(291,74,o),
(377,-13,o),
(511,-13,cs)
);
},
{
closed = 1;
nodes = (
(437,72,o),
(388,126,o),
(388,206,cs),
(388,297,o),
(445,411,o),
(555,411,cs),
(636,411,o),
(685,359,o),
(685,279,cs),
(685,189,o),
(630,72,o),
(516,72,cs)
);
},
{
closed = 1;
nodes = (
(852,632,l),
(869,714,l),
(167,714,l),
(150,632,l)
);
}
);
width = 849;
}
);
note = uni159B;
unicode = 5531;
},
{
glyphname = "thiWoodScree-canadian";
kernRight = niright;
lastChange = "2023-01-13 15:29:06 +0000";
layers = (
{
layerId = "96DCC2AB-F6C9-4D02-A366-260ACDE51568";
shapes = (
{
closed = 1;
nodes = (
(464,-13,o),
(556,145,o),
(556,283,cs),
(556,343,o),
(532,393,o),
(492,422,c),
(475,414,l),
(816,414,l),
(833,496,l),
(341,496,ls),
(157,496,o),
(65,344,o),
(65,201,cs),
(65,74,o),
(151,-13,o),
(285,-13,cs)
);
},
{
closed = 1;
nodes = (
(211,72,o),
(162,126,o),
(162,206,cs),
(162,297,o),
(219,411,o),
(330,411,cs),
(410,411,o),
(459,359,o),
(459,279,cs),
(459,189,o),
(404,72,o),
(290,72,cs)
);
},
{
closed = 1;
nodes = (
(862,632,l),
(880,714,l),
(178,714,l),
(161,632,l)
);
}
);
width = 848;
}
);
metricLeft = "theWoodScree-canadian";
metricRight = "theWoodScree-canadian";
note = uni159C;
unicode = 5532;
},
{
glyphname = "thoWoodScree-canadian";
lastChange = "2023-01-13 15:28:23 +0000";
layers = (
{
layerId = "96DCC2AB-F6C9-4D02-A366-260ACDE51568";
shapes = (
{
closed = 1;
nodes = (
(508,0,ls),
(692,0,o),
(784,152,o),
(784,295,cs),
(784,422,o),
(697,509,o),
(563,509,cs),
(385,509,o),
(293,351,o),
(293,213,cs),
(293,152,o),
(317,103,o),
(357,74,c),
(374,82,l),
(32,82,l),
(15,0,l)
);
},
{
closed = 1;
nodes = (
(438,85,o),
(389,137,o),
(389,217,cs),
(389,307,o),
(445,424,o),
(559,424,cs),
(638,424,o),
(687,370,o),
(687,289,cs),
(687,198,o),
(630,85,o),
(519,85,cs)
);
},
{
closed = 1;
nodes = (
(851,632,l),
(869,714,l),
(167,714,l),
(149,632,l)
);
}
);
width = 849;
}
);
metricLeft = "theWoodScree-canadian";
metricRight = "theWoodScree-canadian";
note = uni159D;
unicode = 5533;
},
{
glyphname = "thaWoodScree-canadian";
lastChange = "2023-01-13 15:29:06 +0000";
layers = (
{
layerId = "96DCC2AB-F6C9-4D02-A366-260ACDE51568";
shapes = (
{
closed = 1;
nodes = (
(728,0,l),
(746,82,l),
(406,82,l),
(411,49,l),
(520,90,o),
(558,210,o),
(558,295,cs),
(558,421,o),
(472,509,o),
(338,509,cs),
(158,509,o),
(67,350,o),
(67,213,cs),
(67,86,o),
(152,0,o),
(290,0,cs)
);
},
{
closed = 1;
nodes = (
(213,85,o),
(164,137,o),
(164,217,cs),
(164,307,o),
(219,424,o),
(333,424,cs),
(412,424,o),
(461,370,o),
(461,289,cs),
(461,198,o),
(404,85,o),
(293,85,cs)
);
},
{
closed = 1;
nodes = (
(862,632,l),
(880,714,l),
(178,714,l),
(160,632,l)
);
}
);
width = 848;
}
);
metricLeft = "theWoodScree-canadian";
metricRight = "theWoodScree-canadian";
note = uni159E;
unicode = 5534;
},
{
glyphname = "thWoodScree-canadian";
lastChange = "2023-01-13 15:28:23 +0000";
layers = (
{
layerId = "96DCC2AB-F6C9-4D02-A366-260ACDE51568";
shapes = (
{
closed = 1;
nodes = (
(479,356,l),
(492,417,l),
(309,417,l),
(305,381,l),
(359,401,o),
(381,468,o),
(381,513,cs),
(381,581,o),
(334,628,o),
(261,628,cs),
(171,628,o),
(118,551,o),
(118,473,cs),
(118,403,o),
(165,356,o),
(237,356,cs)
);
},
{
closed = 1;
nodes = (
(202,409,o),
(180,434,o),
(180,472,cs),
(180,511,o),
(202,575,o),
(260,575,cs),
(297,575,o),
(319,550,o),
(319,512,cs),
(319,472,o),
(297,409,o),
(239,409,cs)
);
},
{
closed = 1;
nodes = (
(546,686,l),
(559,747,l),
(177,747,l),
(164,686,l)
);
}
);
width = 522;
}
);
metricRight = "=|";
note = uni159F;
unicode = 5535;
},
{
glyphname = "lhi-canadian";
kernRight = niright;
lastChange = "2023-01-13 15:29:06 +0000";
layers = (
{
anchors = (
{
name = top_center_can;
pos = (574,714);
},
{
name = top_right_can;
pos = (674,714);
}
);
layerId = "96DCC2AB-F6C9-4D02-A366-260ACDE51568";
shapes = (
{
closed = 1;
nodes = (
(324,0,l),
(343,88,l),
(298,88,ls),
(209,88,o),
(159,134,o),
(159,212,cs),
(159,304,o),
(210,406,o),
(362,406,cs),
(811,406,l),
(827,486,l),
(700,754,l),
(613,712,l),
(735,455,l),
(762,496,l),
(371,496,ls),
(157,496,o),
(61,360,o),
(61,209,cs),
(61,85,o),
(145,0,o),
(278,0,cs)
);
}
);
width = 834;
}
);
metricLeft = "ke-canadian";
metricRight = "=|ne-canadian";
note = uni15A0;
unicode = 5536;
},
{
glyphname = "lho-canadian";
kernLeft = noleft;
lastChange = "2023-01-13 15:29:06 +0000";
layers = (
{
anchors = (
{
name = top_center_can;
pos = (464,514);
},
{
name = top_right_can;
pos = (579,514);
}
);
layerId = "96DCC2AB-F6C9-4D02-A366-260ACDE51568";
shapes = (
{
closed = 1;
nodes = (
(220,-216,l),
(98,40,l),
(71,0,l),
(462,0,ls),
(676,0,o),
(772,135,o),
(772,286,cs),
(772,411,o),
(688,496,o),
(555,496,cs),
(509,496,l),
(490,408,l),
(535,408,ls),
(624,408,o),
(674,361,o),
(674,284,cs),
(674,192,o),
(623,89,o),
(471,89,cs),
(23,89,l),
(6,10,l),
(133,-258,l)
);
}
);
width = 834;
}
);
metricLeft = "ne-canadian";
metricRight = "=|ke-canadian";
note = uni15A2;
unicode = 5538;
},
{
glyphname = "lha-canadian";
kernRight = naright;
lastChange = "2023-01-13 15:29:06 +0000";
layers = (
{
anchors = (
{
name = top_center_can;
pos = (485,514);
},
{
name = top_left_can;
pos = (369,514);
}
);
layerId = "96DCC2AB-F6C9-4D02-A366-260ACDE51568";
shapes = (
{
closed = 1;
nodes = (
(726,10,l),
(743,90,l),
(300,90,ls),
(209,90,o),
(161,134,o),
(161,213,cs),
(161,307,o),
(211,408,o),
(362,408,cs),
(411,408,l),
(429,496,l),
(374,496,ls),
(152,496,o),
(61,354,o),
(61,205,cs),
(61,80,o),
(144,0,o),
(282,0,cs),
(654,0,l),
(633,39,l),
(419,-199,l),
(485,-258,l)
);
}
);
width = 834;
}
);
metricLeft = "ke-canadian";
metricRight = "=|ne-canadian";
note = uni15A4;
unicode = 5540;
},
{
glyphname = "lh-canadian";
kernLeft = mwestleft;
kernRight = mwestright;
lastChange = "2023-01-13 15:29:06 +0000";
layers = (
{
layerId = "96DCC2AB-F6C9-4D02-A366-260ACDE51568";
shapes = (
{
closed = 1;
nodes = (
(481,364,l),
(494,423,l),
(281,423,ls),
(223,423,o),
(191,452,o),
(191,504,cs),
(191,568,o),
(222,650,o),
(325,650,cs),
(348,650,l),
(361,714,l),
(332,714,ls),
(191,714,o),
(121,615,o),
(121,498,cs),
(121,410,o),
(178,357,o),
(276,357,cs),
(440,357,l),
(418,399,l),
(297,262,l),
(348,215,l)
);
}
);
width = 519;
}
);
metricLeft = "t-canadian";
metricRight = "=|";
note = uni15A6;
unicode = 5542;
},
{
glyphname = "theThCree-canadian";
lastChange = "2023-01-13 15:28:23 +0000";
layers = (
{
anchors = (
{
name = top_left_can;
pos = (192,714);
},
{
name = top_right_can;
pos = (562,714);
}
);
layerId = "96DCC2AB-F6C9-4D02-A366-260ACDE51568";
shapes = (
{
closed = 1;
nodes = (
(383,106,l),
(360,0,l),
(459,0,l),
(482,106,l),
(564,106,l),
(576,164,l),
(494,164,l),
(531,337,l),
(197,337,l),
(209,306,l),
(613,662,l),
(553,726,l),
(50,280,l),
(44,249,l),
(413,249,l),
(395,164,l),
(149,164,l),
(137,106,l)
);
}
);
width = 628;
}
);
metricLeft = "ye-canadian";
note = uni15A7;
unicode = 5543;
},
{
glyphname = "thiThCree-canadian";
kernRight = yiright;
lastChange = "2023-01-13 15:28:23 +0000";
layers = (
{
anchors = (
{
name = top_left_can;
pos = (265,714);
},
{
name = top_right_can;
pos = (635,714);
}
);
layerId = "96DCC2AB-F6C9-4D02-A366-260ACDE51568";
shapes = (
{
closed = 1;
nodes = (
(163,0,l),
(186,106,l),
(431,106,l),
(443,164,l),
(198,164,l),
(216,249,l),
(585,249,l),
(592,280,l),
(264,726,l),
(193,673,l),
(468,300,l),
(486,337,l),
(135,337,l),
(98,164,l),
(16,164,l),
(4,106,l),
(86,106,l),
(63,0,l)
);
}
);
width = 628;
}
);
metricLeft = "=|theThCree-canadian";
metricRight = "=|ye-canadian";
note = uni15A8;
unicode = 5544;
},
{
glyphname = "thoThCree-canadian";
kernLeft = yoleft;
lastChange = "2023-01-13 15:28:23 +0000";
layers = (
{
anchors = (
{
name = top_left_can;
pos = (191,714);
},
{
name = top_right_can;
pos = (562,714);
}
);
layerId = "96DCC2AB-F6C9-4D02-A366-260ACDE51568";
shapes = (
{
closed = 1;
nodes = (
(482,41,l),
(207,414,l),
(188,377,l),
(539,377,l),
(576,550,l),
(658,550,l),
(670,608,l),
(588,608,l),
(611,714,l),
(511,714,l),
(489,608,l),
(243,608,l),
(231,550,l),
(476,550,l),
(458,465,l),
(90,465,l),
(83,434,l),
(410,-12,l)
);
}
);
width = 628;
}
);
metricLeft = "ye-canadian";
metricRight = "theThCree-canadian";
note = uni15AA;
unicode = 5546;
},
{
glyphname = "thaThCree-canadian";
kernRight = yaright;
lastChange = "2023-01-13 15:29:06 +0000";
layers = (
{
anchors = (
{
name = top_left_can;
pos = (266,714);
},
{
name = top_right_can;
pos = (636,714);
}
);
layerId = "96DCC2AB-F6C9-4D02-A366-260ACDE51568";
shapes = (
{
closed = 1;
nodes = (
(626,434,l),
(632,465,l),
(262,465,l),
(280,550,l),
(526,550,l),
(538,608,l),
(292,608,l),
(315,714,l),
(216,714,l),
(193,608,l),
(111,608,l),
(99,550,l),
(181,550,l),
(144,377,l),
(479,377,l),
(467,408,l),
(62,52,l),
(122,-12,l)
);
}
);
width = 629;
}
);
metricLeft = "=|theThCree-canadian";
metricRight = "=|ye-canadian";
note = uni15AC;
unicode = 5548;
},
{
glyphname = "thThCree-canadian";
kernLeft = mwestleft;
kernRight = mwestright;
lastChange = "2023-01-13 15:29:06 +0000";
layers = (
{
layerId = "96DCC2AB-F6C9-4D02-A366-260ACDE51568";
shapes = (
{
closed = 1;
nodes = (
(178,635,l),
(156,532,l),
(329,532,l),
(316,563,l),
(125,391,l),
(169,347,l),
(412,569,l),
(417,589,l),
(239,589,l),
(248,635,l),
(365,635,l),
(372,668,l),
(255,668,l),
(265,714,l),
(195,714,l),
(185,668,l),
(144,668,l),
(137,635,l)
);
}
);
width = 382;
}
);
metricRight = "y-canadian";
note = uni15AE;
unicode = 5550;
},
{
glyphname = "bAivilik-canadian";
lastChange = "2023-01-13 15:28:23 +0000";
layers = (
{
layerId = "96DCC2AB-F6C9-4D02-A366-260ACDE51568";
shapes = (
{
closed = 1;
nodes = (
(470,-13,o),
(557,157,o),
(557,299,cs),
(557,425,o),
(479,509,o),
(360,509,cs),
(285,509,o),
(227,471,o),
(199,413,c),
(210,398,l),
(277,714,l),
(178,714,l),
(26,0,l),
(121,0,l),
(147,122,l),
(137,109,l),
(149,34,o),
(210,-13,o),
(298,-13,cs)
);
},
{
closed = 1;
nodes = (
(220,72,o),
(175,121,o),
(175,203,cs),
(175,285,o),
(217,424,o),
(339,424,cs),
(415,424,o),
(460,375,o),
(460,294,cs),
(460,214,o),
(418,72,o),
(296,72,cs)
);
}
);
width = 616;
}
);
metricLeft = "nunavuth-canadian";
metricRight = "=|ke-canadian";
note = uni15AF;
unicode = 5551;
},
{
glyphname = "eBlackfoot-canadian";
lastChange = "2023-01-13 15:28:23 +0000";
layers = (
{
layerId = "96DCC2AB-F6C9-4D02-A366-260ACDE51568";
shapes = (
{
closed = 1;
nodes = (
(125,0,l),
(217,431,l),
(242,387,o),
(289,361,o),
(348,361,cs),
(471,361,o),
(544,471,o),
(544,573,cs),
(544,663,o),
(484,727,o),
(391,727,cs),
(343,727,o),
(298,709,o),
(266,679,c),
(273,714,l),
(178,714,l),
(26,0,l)
);
}
);
width = 524;
}
);
metricLeft = "nunavuth-canadian";
note = uni15B0;
unicode = 5552;
},
{
glyphname = "iBlackfoot-canadian";
lastChange = "2023-01-13 15:29:06 +0000";
layers = (
{
layerId = "96DCC2AB-F6C9-4D02-A366-260ACDE51568";
shapes = (
{
closed = 1;
nodes = (
(226,-13,o),
(271,5,o),
(304,35,c),
(297,0,l),
(392,0,l),
(544,714,l),
(445,714,l),
(353,283,l),
(328,327,o),
(281,353,o),
(222,353,cs),
(99,353,o),
(26,243,o),
(26,141,cs),
(26,51,o),
(86,-13,o),
(179,-13,cs)
);
}
);
width = 524;
}
);
metricLeft = "=|eBlackfoot-canadian";
metricRight = "nunavuth-canadian";
note = uni15B1;
unicode = 5553;
},
{
glyphname = "oBlackfoot-canadian";
lastChange = "2023-01-13 15:28:23 +0000";
layers = (
{
layerId = "96DCC2AB-F6C9-4D02-A366-260ACDE51568";
shapes = (
{
closed = 1;
nodes = (
(391,-13,o),
(464,93,o),
(464,197,cs),
(464,288,o),
(404,353,o),
(313,353,cs),
(267,353,o),
(223,336,o),
(190,307,c),
(277,714,l),
(178,714,l),
(26,0,l),
(121,0,l),
(135,65,l),
(158,16,o),
(207,-13,o),
(270,-13,cs)
);
}
);
width = 524;
}
);
metricLeft = "nunavuth-canadian";
metricRight = "eBlackfoot-canadian";
note = uni15B2;
unicode = 5554;
},
{
glyphname = "aBlackfoot-canadian";
lastChange = "2023-01-13 15:29:06 +0000";
layers = (
{
layerId = "96DCC2AB-F6C9-4D02-A366-260ACDE51568";
shapes = (
{
closed = 1;
nodes = (
(392,0,l),
(544,714,l),
(448,714,l),
(435,649,l),
(411,698,o),
(362,727,o),
(300,727,cs),
(179,727,o),
(106,621,o),
(106,517,cs),
(106,426,o),
(165,361,o),
(256,361,cs),
(303,361,o),
(347,378,o),
(379,407,c),
(293,0,l)
);
}
);
width = 524;
}
);
metricLeft = "=|eBlackfoot-canadian";
metricRight = "nunavuth-canadian";
note = uni15B3;
unicode = 5555;
},
{
glyphname = "weBlackfoot-canadian";
lastChange = "2023-01-13 15:28:23 +0000";
layers = (
{
layerId = "96DCC2AB-F6C9-4D02-A366-260ACDE51568";
shapes = (
{
closed = 1;
nodes = (
(125,0,l),
(192,314,l),
(551,314,l),
(568,398,l),
(210,398,l),
(259,630,l),
(618,630,l),
(635,714,l),
(178,714,l),
(26,0,l)
);
}
);
width = 597;
}
);
metricLeft = "nunavuth-canadian";
note = uni15B4;
unicode = 5556;
},
{
glyphname = "wiBlackfoot-canadian";
lastChange = "2023-01-13 15:28:23 +0000";
layers = (
{
layerId = "96DCC2AB-F6C9-4D02-A366-260ACDE51568";
shapes = (
{
closed = 1;
nodes = (
(465,0,l),
(617,714,l),
(518,714,l),
(451,400,l),
(92,400,l),
(75,316,l),
(433,316,l),
(384,84,l),
(25,84,l),
(8,0,l)
);
}
);
width = 597;
}
);
metricLeft = "=|weBlackfoot-canadian";
metricRight = "nunavuth-canadian";
note = uni15B5;
unicode = 5557;
},
{
glyphname = "woBlackfoot-canadian";
lastChange = "2023-01-13 15:28:23 +0000";
layers = (
{
layerId = "96DCC2AB-F6C9-4D02-A366-260ACDE51568";
shapes = (
{
closed = 1;
nodes = (
(484,0,l),
(501,84,l),
(143,84,l),
(192,316,l),
(551,316,l),
(569,400,l),
(210,400,l),
(277,714,l),
(178,714,l),
(26,0,l)
);
}
);
width = 597;
}
);
metricLeft = "nunavuth-canadian";
metricRight = "weBlackfoot-canadian";
note = uni15B6;
unicode = 5558;
},
{
glyphname = "waBlackfoot-canadian";
lastChange = "2023-01-13 15:28:23 +0000";
layers = (
{
layerId = "96DCC2AB-F6C9-4D02-A366-260ACDE51568";
shapes = (
{
closed = 1;
nodes = (
(465,0,l),
(617,714,l),
(159,714,l),
(142,630,l),
(500,630,l),
(451,398,l),
(92,398,l),
(74,314,l),
(433,314,l),
(366,0,l)
);
}
);
width = 597;
}
);
metricLeft = "=|weBlackfoot-canadian";
metricRight = "nunavuth-canadian";
note = uni15B7;
unicode = 5559;
},
{
glyphname = "neBlackfoot-canadian";
lastChange = "2023-01-13 15:28:23 +0000";
layers = (
{
layerId = "96DCC2AB-F6C9-4D02-A366-260ACDE51568";
shapes = (
{
closed = 1;
nodes = (
(125,0,l),
(261,639,l),
(310,639,l),
(293,701,l),
(288,677,ls),
(254,521,o),
(337,413,o),
(493,413,cs),
(631,413,o),
(724,496,o),
(756,649,cs),
(770,714,l),
(672,714,l),
(659,651,ls),
(639,550,o),
(584,499,o),
(499,499,cs),
(405,499,o),
(362,561,o),
(383,662,cs),
(394,714,l),
(178,714,l),
(26,0,l)
);
}
);
width = 711;
}
);
metricLeft = "nunavuth-canadian";
note = uni15B8;
unicode = 5560;
},
{
glyphname = "niBlackfoot-canadian";
lastChange = "2023-01-13 15:29:06 +0000";
layers = (
{
layerId = "96DCC2AB-F6C9-4D02-A366-260ACDE51568";
shapes = (
{
closed = 1;
nodes = (
(85,0,l),
(98,63,ls),
(119,164,o),
(174,215,o),
(259,215,cs),
(353,215,o),
(396,153,o),
(375,52,cs),
(364,0,l),
(580,0,l),
(732,714,l),
(633,714,l),
(496,75,l),
(447,75,l),
(464,13,l),
(469,37,ls),
(503,193,o),
(421,301,o),
(265,301,cs),
(127,301,o),
(33,218,o),
(1,65,cs),
(-12,0,l)
);
}
);
width = 712;
}
);
metricLeft = "=|neBlackfoot-canadian";
metricRight = "nunavuth-canadian";
note = uni15B9;
unicode = 5561;
},
{
glyphname = "noBlackfoot-canadian";
lastChange = "2023-01-13 15:28:23 +0000";
layers = (
{
layerId = "96DCC2AB-F6C9-4D02-A366-260ACDE51568";
shapes = (
{
closed = 1;
nodes = (
(242,0,l),
(255,60,ls),
(277,164,o),
(328,215,o),
(413,215,cs),
(508,215,o),
(552,152,o),
(531,49,cs),
(520,0,l),
(618,0,l),
(626,38,ls),
(657,195,o),
(575,302,o),
(420,302,cs),
(283,302,o),
(191,219,o),
(155,53,cs),
(147,14,l),
(190,75,l),
(141,75,l),
(277,714,l),
(178,714,l),
(26,0,l)
);
}
);
width = 711;
}
);
metricLeft = "nunavuth-canadian";
metricRight = "neBlackfoot-canadian";
note = uni15BA;
unicode = 5562;
},
{
glyphname = "naBlackfoot-canadian";
lastChange = "2023-01-13 15:29:06 +0000";
layers = (
{
layerId = "96DCC2AB-F6C9-4D02-A366-260ACDE51568";
shapes = (
{
closed = 1;
nodes = (
(580,0,l),
(732,714,l),
(516,714,l),
(503,654,ls),
(481,550,o),
(430,499,o),
(345,499,cs),
(250,499,o),
(205,562,o),
(227,665,cs),
(237,714,l),
(139,714,l),
(132,676,ls),
(100,519,o),
(183,412,o),
(338,412,cs),
(475,412,o),
(566,495,o),
(602,661,cs),
(610,700,l),
(567,639,l),
(617,639,l),
(481,0,l)
);
}
);
width = 712;
}
);
metricLeft = "=|neBlackfoot-canadian";
metricRight = "nunavuth-canadian";
note = uni15BB;
unicode = 5563;
},
{
glyphname = "keBlackfoot-canadian";
lastChange = "2023-01-13 15:28:23 +0000";
layers = (
{
layerId = "96DCC2AB-F6C9-4D02-A366-260ACDE51568";
shapes = (
{
closed = 1;
nodes = (
(125,0,l),
(254,603,l),
(218,603,l),
(327,264,l),
(370,264,l),
(712,714,l),
(595,714,l),
(346,381,l),
(375,378,l),
(269,714,l),
(178,714,l),
(26,0,l)
);
}
);
width = 635;
}
);
metricLeft = "nunavuth-canadian";
note = uni15BC;
unicode = 5564;
},
{
glyphname = "kiBlackfoot-canadian";
lastChange = "2023-01-13 15:29:06 +0000";
layers = (
{
layerId = "96DCC2AB-F6C9-4D02-A366-260ACDE51568";
shapes = (
{
closed = 1;
nodes = (
(86,0,l),
(335,333,l),
(305,336,l),
(411,0,l),
(503,0,l),
(655,714,l),
(556,714,l),
(427,112,l),
(463,112,l),
(353,450,l),
(310,450,l),
(-31,0,l)
);
}
);
width = 635;
}
);
metricLeft = "=|keBlackfoot-canadian";
metricRight = "nunavuth-canadian";
note = uni15BD;
unicode = 5565;
},
{
glyphname = "koBlackfoot-canadian";
lastChange = "2023-01-13 15:28:23 +0000";
layers = (
{
layerId = "96DCC2AB-F6C9-4D02-A366-260ACDE51568";
shapes = (
{
closed = 1;
nodes = (
(118,0,l),
(394,349,l),
(339,355,l),
(457,0,l),
(560,0,l),
(409,450,l),
(366,450,l),
(110,111,l),
(149,111,l),
(277,714,l),
(178,714,l),
(26,0,l)
);
}
);
width = 635;
}
);
metricLeft = "nunavuth-canadian";
metricRight = "keBlackfoot-canadian";
note = uni15BE;
unicode = 5566;
},
{
glyphname = "kaBlackfoot-canadian";
lastChange = "2023-01-13 15:29:06 +0000";
layers = (
{
layerId = "96DCC2AB-F6C9-4D02-A366-260ACDE51568";
shapes = (
{
closed = 1;
nodes = (
(503,1,l),
(655,715,l),
(562,715,l),
(287,366,l),
(342,359,l),
(224,715,l),
(121,715,l),
(271,265,l),
(315,265,l),
(570,603,l),
(532,603,l),
(404,1,l)
);
}
);
width = 635;
}
);
metricLeft = "=|keBlackfoot-canadian";
metricRight = "nunavuth-canadian";
note = uni15BF;
unicode = 5567;
},
{
color = 9;
glyphname = "heSayisi-canadian";
lastChange = "2023-01-13 15:29:06 +0000";
layers = (
{
anchors = (
{
name = top_right_can;
pos = (666,714);
}
);
layerId = "96DCC2AB-F6C9-4D02-A366-260ACDE51568";
shapes = (
{
closed = 1;
nodes = (
(563,0,l),
(715,714,l),
(617,714,l),
(524,278,l),
(543,277,l),
(593,555,o),
(518,727,o),
(345,727,cs),
(227,727,o),
(146,647,o),
(110,495,cs),
(100,449,o),
(94,402,o),
(92,348,c),
(187,348,l),
(190,397,o),
(195,437,o),
(203,473,cs),
(228,583,o),
(280,640,o),
(358,640,cs),
(514,640,o),
(552,417,o),
(464,0,c)
);
}
);
width = 695;
}
);
metricRight = "nunavuth-canadian";
note = uni15C0;
unicode = 5568;
},
{
color = 9;
glyphname = "hiSayisi-canadian";
lastChange = "2023-01-13 15:28:23 +0000";
layers = (
{
layerId = "96DCC2AB-F6C9-4D02-A366-260ACDE51568";
shapes = (
{
closed = 1;
nodes = (
(125,0,l),
(214,417,o),
(340,640,o),
(486,640,cs),
(573,640,o),
(608,564,o),
(580,436,cs),
(573,403,o),
(564,376,o),
(553,348,c),
(648,348,l),
(661,381,o),
(672,411,o),
(678,439,cs),
(713,613,o),
(649,727,o),
(515,727,cs),
(364,727,o),
(235,571,o),
(173,308,c),
(189,307,l),
(276,714,l),
(178,714,l),
(26,0,l)
);
}
);
width = 694;
}
);
metricLeft = "nunavuth-canadian";
metricRight = "=|heSayisi-canadian";
note = uni15C1;
unicode = 5569;
},
{
color = 9;
glyphname = "hoSayisi-canadian";
lastChange = "2023-01-13 15:29:06 +0000";
layers = (
{
anchors = (
{
name = top_center_can;
pos = (441,714);
},
{
name = top_left_can;
pos = (216,714);
},
{
name = top_right_can;
pos = (666,714);
}
);
layerId = "96DCC2AB-F6C9-4D02-A366-260ACDE51568";
shapes = (
{
closed = 1;
nodes = (
(376,-13,o),
(505,143,o),
(568,406,c),
(551,407,l),
(465,0,l),
(563,0,l),
(715,714,l),
(616,714,l),
(527,297,o),
(401,74,o),
(255,74,cs),
(168,74,o),
(133,150,o),
(160,278,cs),
(168,311,o),
(177,338,o),
(188,366,c),
(93,366,l),
(79,333,o),
(69,303,o),
(63,275,cs),
(28,101,o),
(92,-13,o),
(226,-13,cs)
);
}
);
width = 695;
}
);
metricLeft = "heSayisi-canadian";
metricRight = "nunavuth-canadian";
note = uni15C2;
unicode = 5570;
},
{
color = 9;
glyphname = "haSayisi-canadian";
lastChange = "2023-01-13 15:28:23 +0000";
layers = (
{
layerId = "96DCC2AB-F6C9-4D02-A366-260ACDE51568";
shapes = (
{
closed = 1;
nodes = (
(514,-13,o),
(595,67,o),
(631,219,cs),
(641,265,o),
(647,312,o),
(649,366,c),
(553,366,l),
(551,317,o),
(546,277,o),
(537,241,cs),
(513,131,o),
(460,74,o),
(383,74,cs),
(227,74,o),
(189,297,o),
(277,714,c),
(178,714,l),
(26,0,l),
(124,0,l),
(216,436,l),
(198,437,l),
(147,159,o),
(223,-13,o),
(395,-13,cs)
);
}
);
width = 694;
}
);
metricLeft = "nunavuth-canadian";
metricRight = "=|heSayisi-canadian";
note = uni15C3;
unicode = 5571;
},
{
color = 9;
glyphname = "ghuCarrier-canadian";
lastChange = "2023-01-13 15:28:23 +0000";
layers = (
{
layerId = "96DCC2AB-F6C9-4D02-A366-260ACDE51568";
shapes = (
{
closed = 1;
nodes = (
(337,0,l),
(801,687,l),
(807,714,l),
(715,714,l),
(561,483,l),
(596,502,l),
(237,502,l),
(267,483,l),
(214,714,l),
(133,714,l),
(127,687,l),
(300,0,l)
);
},
{
closed = 1;
nodes = (
(549,426,l),
(537,442,l),
(319,111,l),
(357,105,l),
(276,444,l),
(256,426,l)
);
}
);
width = 742;
}
);
metricLeft = "e-canadian";
metricRight = "e-canadian";
note = uni15C4;
unicode = 5572;
},
{
color = 9;
glyphname = "ghoCarrier-canadian";
lastChange = "2023-01-13 15:29:06 +0000";
layers = (
{
layerId = "96DCC2AB-F6C9-4D02-A366-260ACDE51568";
shapes = (
{
closed = 1;
nodes = (
(73,0,l),
(228,231,l),
(192,212,l),
(551,212,l),
(521,231,l),
(574,0,l),
(655,0,l),
(661,27,l),
(488,714,l),
(451,714,l),
(-13,27,l),
(-19,0,l)
);
},
{
closed = 1;
nodes = (
(528,313,l),
(253,315,l),
(265,273,l),
(473,578,l),
(416,582,l),
(497,268,l)
);
}
);
width = 742;
}
);
metricLeft = "e-canadian";
metricRight = "e-canadian";
note = uni15C5;
unicode = 5573;
},
{
color = 9;
glyphname = "gheCarrier-canadian";
lastChange = "2023-01-13 15:28:23 +0000";
layers = (
{
anchors = (
{
name = middle_center_can;
pos = (106,366);
}
);
layerId = "96DCC2AB-F6C9-4D02-A366-260ACDE51568";
shapes = (
{
closed = 1;
nodes = (
(29,0,l),
(656,338,l),
(664,375,l),
(181,714,l),
(154,714,l),
(139,641,l),
(288,536,l),
(282,592,l),
(186,142,l),
(213,195,l),
(22,92,l),
(2,0,l)
);
},
{
closed = 1;
nodes = (
(349,553,l),
(323,521,l),
(578,340,l),
(581,387,l),
(257,212,l),
(269,179,l)
);
}
);
width = 672;
}
);
metricLeft = "po-canadian";
metricRight = "o-canadian";
note = uni15C6;
unicode = 5574;
},
{
color = 9;
glyphname = "ghaCarrier-canadian";
lastChange = "2023-01-13 15:29:06 +0000";
layers = (
{
layerId = "96DCC2AB-F6C9-4D02-A366-260ACDE51568";
shapes = (
{
closed = 1;
nodes = (
(564,0,l),
(580,73,l),
(431,178,l),
(437,122,l),
(533,572,l),
(506,519,l),
(697,622,l),
(716,714,l),
(690,714,l),
(62,376,l),
(54,339,l),
(537,0,l)
);
},
{
closed = 1;
nodes = (
(396,193,l),
(146,370,l),
(143,330,l),
(462,502,l),
(448,528,l),
(371,169,l)
);
}
);
width = 673;
}
);
metricLeft = "=|o-canadian";
metricRight = "=|po-canadian";
note = uni15C9;
unicode = 5577;
},
{
color = 9;
glyphname = "ruCarrier-canadian";
lastChange = "2023-01-13 15:28:23 +0000";
layers = (
{
layerId = "96DCC2AB-F6C9-4D02-A366-260ACDE51568";
shapes = (
{
closed = 1;
nodes = (
(337,0,l),
(801,687,l),
(807,714,l),
(714,714,l),
(649,618,l),
(690,636,l),
(205,636,l),
(236,617,l),
(213,714,l),
(133,714,l),
(127,687,l),
(300,0,l)
);
},
{
closed = 1;
nodes = (
(641,558,l),
(624,575,l),
(320,114,l),
(357,108,l),
(245,577,l),
(223,558,l)
);
}
);
width = 742;
}
);
metricLeft = "e-canadian";
metricRight = "e-canadian";
note = uni15CA;
unicode = 5578;
},
{
color = 9;
glyphname = "roCarrier-canadian";
lastChange = "2023-01-13 15:28:23 +0000";
layers = (
{
layerId = "96DCC2AB-F6C9-4D02-A366-260ACDE51568";
shapes = (
{
closed = 1;
nodes = (
(452,714,l),
(-13,27,l),
(-19,0,l),
(74,0,l),
(139,96,l),
(98,78,l),
(583,78,l),
(553,97,l),
(575,0,l),
(655,0,l),
(661,27,l),
(488,714,l)
);
},
{
closed = 1;
nodes = (
(148,156,l),
(165,139,l),
(469,600,l),
(431,606,l),
(543,137,l),
(565,156,l)
);
}
);
width = 742;
}
);
metricLeft = "e-canadian";
metricRight = "e-canadian";
note = uni15CB;
unicode = 5579;
},
{
color = 9;
glyphname = "reCarrier-canadian";
lastChange = "2023-01-13 15:29:06 +0000";
layers = (
{
layerId = "96DCC2AB-F6C9-4D02-A366-260ACDE51568";
shapes = (
{
closed = 1;
nodes = (
(29,0,l),
(657,339,l),
(664,375,l),
(181,714,l),
(154,714,l),
(139,642,l),
(214,589,l),
(205,646,l),
(86,87,l),
(116,140,l),
(22,89,l),
(3,0,l)
);
},
{
closed = 1;
nodes = (
(274,602,l),
(248,569,l),
(572,340,l),
(574,385,l),
(161,162,l),
(173,131,l)
);
}
);
width = 673;
}
);
metricLeft = "po-canadian";
metricRight = "o-canadian";
note = uni15CC;
unicode = 5580;
},
{
color = 9;
glyphname = "reeCarrier-canadian";
lastChange = "2023-01-13 15:29:06 +0000";
layers = (
{
layerId = "96DCC2AB-F6C9-4D02-A366-260ACDE51568";
shapes = (
{
closed = 1;
nodes = (
(29,0,l),
(657,339,l),
(664,375,l),
(181,714,l),
(154,714,l),
(141,652,l),
(212,602,l),
(207,655,l),
(84,77,l),
(108,129,l),
(19,80,l),
(2,0,l)
);
},
{
closed = 1;
nodes = (
(268,619,l),
(239,589,l),
(594,341,l),
(596,386,l),
(149,145,l),
(161,112,l)
);
},
{
closed = 1;
nodes = (
(298,278,l),
(335,450,l),
(290,450,l),
(253,278,l)
);
}
);
width = 673;
}
);
metricLeft = "po-canadian";
metricRight = "o-canadian";
note = uni15CD;
unicode = 5581;
},
{
color = 9;
glyphname = "riCarrier-canadian";
lastChange = "2023-01-13 15:29:06 +0000";
layers = (
{
layerId = "96DCC2AB-F6C9-4D02-A366-260ACDE51568";
shapes = (
{
closed = 1;
nodes = (
(29,0,l),
(657,339,l),
(664,375,l),
(181,714,l),
(154,714,l),
(141,652,l),
(212,601,l),
(207,655,l),
(84,77,l),
(113,131,l),
(19,80,l),
(2,0,l)
);
},
{
closed = 1;
nodes = (
(360,323,o),
(380,341,o),
(380,366,cs),
(380,391,o),
(360,410,o),
(337,410,cs),
(313,410,o),
(293,391,o),
(293,366,cs),
(293,341,o),
(313,323,o),
(337,323,cs)
);
},
{
closed = 1;
nodes = (
(268,619,l),
(239,589,l),
(594,341,l),
(596,386,l),
(150,146,l),
(161,112,l)
);
}
);
width = 673;
}
);
metricLeft = "po-canadian";
metricRight = "o-canadian";
note = uni15CE;
unicode = 5582;
},
{
color = 9;
glyphname = "raCarrier-canadian";
lastChange = "2023-01-13 15:28:23 +0000";
layers = (
{
layerId = "96DCC2AB-F6C9-4D02-A366-260ACDE51568";
shapes = (
{
closed = 1;
nodes = (
(564,0,l),
(580,72,l),
(505,125,l),
(514,68,l),
(632,627,l),
(603,574,l),
(697,625,l),
(716,714,l),
(690,714,l),
(62,375,l),
(55,339,l),
(538,0,l)
);
},
{
closed = 1;
nodes = (
(471,145,l),
(147,374,l),
(145,329,l),
(558,552,l),
(546,583,l),
(445,112,l)
);
}
);
width = 672;
}
);
metricLeft = "=|o-canadian";
metricRight = "=|po-canadian";
note = uni15CF;
unicode = 5583;
},
{
color = 9;
glyphname = "wuCarrier-canadian";
lastChange = "2023-01-13 15:28:23 +0000";
layers = (
{
layerId = "96DCC2AB-F6C9-4D02-A366-260ACDE51568";
shapes = (
{
closed = 1;
nodes = (
(341,0,l),
(810,687,l),
(816,714,l),
(727,714,l),
(373,177,l),
(395,177,l),
(509,714,l),
(428,714,l),
(314,176,l),
(337,176,l),
(208,714,l),
(133,714,l),
(127,687,l),
(304,0,l)
);
}
);
width = 751;
}
);
metricLeft = "e-canadian";
metricRight = "e-canadian";
note = uni15D0;
unicode = 5584;
},
{
color = 9;
glyphname = "woCarrier-canadian";
lastChange = "2023-01-13 15:28:23 +0000";
layers = (
{
layerId = "96DCC2AB-F6C9-4D02-A366-260ACDE51568";
shapes = (
{
closed = 1;
nodes = (
(71,0,l),
(424,537,l),
(402,537,l),
(288,0,l),
(369,0,l),
(484,538,l),
(460,538,l),
(589,0,l),
(664,0,l),
(670,27,l),
(493,714,l),
(456,714,l),
(-13,27,l),
(-19,0,l)
);
}
);
width = 751;
}
);
metricLeft = "e-canadian";
metricRight = "e-canadian";
note = uni15D1;
unicode = 5585;
},
{
color = 9;
glyphname = "weCarrier-canadian";
lastChange = "2023-01-13 15:29:06 +0000";
layers = (
{
layerId = "96DCC2AB-F6C9-4D02-A366-260ACDE51568";
shapes = (
{
closed = 1;
nodes = (
(50,0,l),
(678,339,l),
(685,375,l),
(202,714,l),
(175,714,l),
(160,641,l),
(526,386,l),
(532,404,l),
(110,404,l),
(93,328,l),
(519,328,l),
(520,344,l),
(43,89,l),
(24,0,l)
);
}
);
width = 694;
}
);
metricRight = "o-canadian";
note = uni15D2;
unicode = 5586;
},
{
color = 9;
glyphname = "weeCarrier-canadian";
lastChange = "2023-01-13 15:29:06 +0000";
layers = (
{
layerId = "96DCC2AB-F6C9-4D02-A366-260ACDE51568";
shapes = (
{
closed = 1;
nodes = (
(50,0,l),
(678,339,l),
(685,375,l),
(202,714,l),
(176,714,l),
(162,649,l),
(550,379,l),
(557,397,l),
(244,397,l),
(261,478,l),
(205,478,l),
(188,397,l),
(108,397,l),
(95,335,l),
(174,335,l),
(157,254,l),
(214,254,l),
(230,335,l),
(547,335,l),
(545,350,l),
(41,81,l),
(24,0,l)
);
}
);
width = 694;
}
);
metricLeft = "weCarrier-canadian";
metricRight = "o-canadian";
note = uni15D3;
unicode = 5587;
},
{
color = 9;
glyphname = "wiCarrier-canadian";
lastChange = "2023-01-13 15:29:06 +0000";
layers = (
{
layerId = "96DCC2AB-F6C9-4D02-A366-260ACDE51568";
shapes = (
{
closed = 1;
nodes = (
(50,0,l),
(678,339,l),
(685,375,l),
(202,714,l),
(176,714,l),
(162,649,l),
(544,384,l),
(556,398,l),
(311,398,l),
(300,425,o),
(274,445,o),
(242,445,cs),
(210,445,o),
(184,425,o),
(174,398,c),
(108,398,l),
(96,339,l),
(175,339,l),
(187,313,o),
(212,295,o),
(243,295,cs),
(273,295,o),
(298,313,o),
(309,339,c),
(546,339,l),
(540,348,l),
(41,82,l),
(24,0,l)
);
}
);
width = 694;
}
);
metricLeft = "weCarrier-canadian";
metricRight = "o-canadian";
note = uni15D4;
unicode = 5588;
},
{
color = 9;
glyphname = "waCarrier-canadian";
lastChange = "2023-01-13 15:28:23 +0000";
layers = (
{
layerId = "96DCC2AB-F6C9-4D02-A366-260ACDE51568";
shapes = (
{
closed = 1;
nodes = (
(564,0,l),
(580,73,l),
(214,328,l),
(208,310,l),
(630,310,l),
(646,386,l),
(221,386,l),
(220,370,l),
(697,625,l),
(716,714,l),
(690,714,l),
(62,375,l),
(55,339,l),
(538,0,l)
);
}
);
width = 693;
}
);
metricLeft = "=|o-canadian";
metricRight = "=|weCarrier-canadian";
note = uni15D5;
unicode = 5589;
},
{
color = 9;
glyphname = "hwuCarrier-canadian";
lastChange = "2023-01-13 15:28:23 +0000";
layers = (
{
layerId = "96DCC2AB-F6C9-4D02-A366-260ACDE51568";
shapes = (
{
closed = 1;
nodes = (
(341,0,l),
(810,687,l),
(816,714,l),
(732,714,l),
(588,498,l),
(615,514,l),
(458,514,l),
(501,714,l),
(436,714,l),
(393,514,l),
(235,514,l),
(254,502,l),
(203,714,l),
(133,714,l),
(127,687,l),
(304,0,l)
);
},
{
closed = 1;
nodes = (
(339,138,l),
(258,475,l),
(247,457,l),
(386,457,l),
(319,137,l)
);
},
{
closed = 1;
nodes = (
(440,457,l),
(581,457,l),
(576,474,l),
(356,141,l),
(372,134,l)
);
}
);
width = 751;
}
);
metricLeft = "e-canadian";
metricRight = "e-canadian";
note = uni15D6;
unicode = 5590;
},
{
color = 9;
glyphname = "hwoCarrier-canadian";
lastChange = "2023-01-13 15:28:23 +0000";
layers = (
{
layerId = "96DCC2AB-F6C9-4D02-A366-260ACDE51568";
shapes = (
{
closed = 1;
nodes = (
(65,0,l),
(209,216,l),
(183,200,l),
(339,200,l),
(296,0,l),
(361,0,l),
(404,200,l),
(562,200,l),
(543,212,l),
(594,0,l),
(664,0,l),
(670,27,l),
(493,714,l),
(456,714,l),
(-13,27,l),
(-19,0,l)
);
},
{
closed = 1;
nodes = (
(441,573,l),
(425,580,l),
(357,257,l),
(216,257,l),
(221,240,l)
);
},
{
closed = 1;
nodes = (
(550,257,l),
(411,257,l),
(478,577,l),
(458,576,l),
(539,239,l)
);
}
);
width = 751;
}
);
metricLeft = "e-canadian";
metricRight = "e-canadian";
note = uni15D7;
unicode = 5591;
},
{
color = 9;
glyphname = "hweCarrier-canadian";
lastChange = "2023-01-13 15:29:06 +0000";
layers = (
{
layerId = "96DCC2AB-F6C9-4D02-A366-260ACDE51568";
shapes = (
{
closed = 1;
nodes = (
(50,0,l),
(678,339,l),
(685,375,l),
(202,714,l),
(175,714,l),
(162,650,l),
(293,559,l),
(260,400,l),
(109,400,l),
(95,334,l),
(246,334,l),
(212,173,l),
(41,82,l),
(23,0,l)
);
},
{
closed = 1;
nodes = (
(298,339,l),
(537,339,l),
(268,197,l)
);
},
{
closed = 1;
nodes = (
(339,533,l),
(541,394,l),
(310,394,l)
);
}
);
width = 694;
}
);
metricLeft = "weCarrier-canadian";
metricRight = "o-canadian";
note = uni15D8;
unicode = 5592;
},
{
color = 9;
glyphname = "hweeCarrier-canadian";
lastChange = "2023-01-13 15:29:06 +0000";
layers = (
{
layerId = "96DCC2AB-F6C9-4D02-A366-260ACDE51568";
shapes = (
{
closed = 1;
nodes = (
(50,0,l),
(678,339,l),
(685,375,l),
(202,714,l),
(175,714,l),
(162,651,l),
(314,549,l),
(281,395,l),
(223,395,l),
(240,475,l),
(192,475,l),
(175,395,l),
(108,395,l),
(96,338,l),
(163,338,l),
(146,258,l),
(194,258,l),
(210,338,l),
(269,338,l),
(236,182,l),
(41,81,l),
(23,0,l)
);
},
{
closed = 1;
nodes = (
(316,342,l),
(543,342,l),
(288,206,l)
);
},
{
closed = 1;
nodes = (
(355,524,l),
(548,390,l),
(327,390,l)
);
}
);
width = 694;
}
);
metricLeft = "weCarrier-canadian";
metricRight = "o-canadian";
note = uni15D9;
unicode = 5593;
},
{
color = 9;
glyphname = "hwiCarrier-canadian";
lastChange = "2023-01-13 15:29:06 +0000";
layers = (
{
layerId = "96DCC2AB-F6C9-4D02-A366-260ACDE51568";
shapes = (
{
closed = 1;
nodes = (
(50,0,l),
(678,339,l),
(685,375,l),
(202,714,l),
(175,714,l),
(162,651,l),
(314,549,l),
(280,390,l),
(248,390,l),
(240,414,o),
(217,430,o),
(191,430,cs),
(165,430,o),
(145,413,o),
(136,390,c),
(107,390,l),
(96,342,l),
(135,342,l),
(144,319,o),
(166,302,o),
(191,302,cs),
(217,302,o),
(239,319,o),
(247,342,c),
(270,342,l),
(236,182,l),
(41,81,l),
(23,0,l)
);
},
{
closed = 1;
nodes = (
(317,342,l),
(543,342,l),
(288,206,l)
);
},
{
closed = 1;
nodes = (
(355,524,l),
(548,390,l),
(327,390,l)
);
}
);
width = 694;
}
);
metricLeft = "weCarrier-canadian";
metricRight = "o-canadian";
note = uni15DA;
unicode = 5594;
},
{
color = 9;
glyphname = "hwaCarrier-canadian";
lastChange = "2023-01-13 15:28:23 +0000";
layers = (
{
layerId = "96DCC2AB-F6C9-4D02-A366-260ACDE51568";
shapes = (
{
closed = 1;
nodes = (
(689.993,714,l),
(62,375,l),
(55,339,l),
(537.993,0,l),
(564,0,l),
(578,64,l),
(446,155,l),
(480,314,l),
(631,314,l),
(645,380,l),
(494,380,l),
(528,541,l),
(699,632,l),
(716,714,l)
);
},
{
closed = 1;
nodes = (
(442,375,l),
(203,375,l),
(472,517,l)
);
},
{
closed = 1;
nodes = (
(401,181,l),
(199,320,l),
(430,320,l)
);
}
);
width = 693;
}
);
metricLeft = "=|o-canadian";
metricRight = "=|weCarrier-canadian";
note = uni15DB;
unicode = 5595;
},
{
color = 9;
glyphname = "thuCarrier-canadian";
lastChange = "2023-01-13 15:29:06 +0000";
layers = (
{
layerId = "96DCC2AB-F6C9-4D02-A366-260ACDE51568";
shapes = (
{
closed = 1;
nodes = (
(527,-13,o),
(632,85,o),
(675,287,cs),
(766,714,l),
(170,714,l),
(85,317,ls),
(41,107,o),
(141,-13,o),
(342,-13,cs)
);
},
{
closed = 1;
nodes = (
(251,626,l),
(648,626,l),
(577,290,ls),
(545,144,o),
(474,78,o),
(350,78,cs),
(207,78,o),
(150,155,o),
(184,311,cs)
);
}
);
width = 737;
}
);
metricLeft = "te-canadian";
metricRight = "te-canadian";
note = uni15DC;
unicode = 5596;
},
{
color = 9;
glyphname = "thoCarrier-canadian";
lastChange = "2023-01-13 15:29:06 +0000";
layers = (
{
layerId = "96DCC2AB-F6C9-4D02-A366-260ACDE51568";
shapes = (
{
closed = 1;
nodes = (
(613,0,l),
(698,397,ls),
(742,607,o),
(642,727,o),
(441,727,cs),
(256,727,o),
(151,629,o),
(108,427,cs),
(17,0,l)
);
},
{
closed = 1;
nodes = (
(207,424,ls),
(238,570,o),
(310,636,o),
(433,636,cs),
(576,636,o),
(633,559,o),
(599,403,cs),
(532,88,l),
(135,88,l)
);
}
);
width = 736;
}
);
metricLeft = "te-canadian";
metricRight = "te-canadian";
note = uni15DD;
unicode = 5597;
},
{
color = 9;
glyphname = "theCarrier-canadian";
lastChange = "2023-01-13 15:29:06 +0000";
layers = (
{
anchors = (
{
name = middle_center_can;
pos = (384,357);
}
);
layerId = "96DCC2AB-F6C9-4D02-A366-260ACDE51568";
shapes = (
{
closed = 1;
nodes = (
(267,0,ls),
(592,0,o),
(689,255,o),
(689,440,cs),
(689,612,o),
(585,714,o),
(400,714,cs),
(178,714,l),
(26,0,l)
);
},
{
closed = 1;
nodes = (
(265,657,l),
(229,626,l),
(381,626,ls),
(517,626,o),
(591,558,o),
(591,433,cs),
(591,282,o),
(509,88,o),
(272,88,cs),
(119,88,l),
(137,58,l)
);
}
);
width = 723;
}
);
metricLeft = "nunavuth-canadian";
metricRight = "to-canadian";
note = uni15DE;
unicode = 5598;
},
{
color = 9;
glyphname = "thaCarrier-canadian";
lastChange = "2023-01-13 15:29:06 +0000";
layers = (
{
layerId = "96DCC2AB-F6C9-4D02-A366-260ACDE51568";
shapes = (
{
closed = 1;
nodes = (
(592,0,l),
(744,714,l),
(503,714,ls),
(177,714,o),
(81,459,o),
(81,274,cs),
(81,102,o),
(185,0,o),
(369,0,cs)
);
},
{
closed = 1;
nodes = (
(179,432,o),
(261,626,o),
(497,626,cs),
(651,626,l),
(632,656,l),
(505,57,l),
(541,88,l),
(389,88,ls),
(252,88,o),
(179,156,o),
(179,281,cs)
);
}
);
width = 724;
}
);
metricLeft = "=|theCarrier-canadian";
metricRight = "nunavuth-canadian";
note = uni15E1;
unicode = 5601;
},
{
color = 9;
glyphname = "ttuCarrier-canadian";
lastChange = "2023-01-13 15:29:06 +0000";
layers = (
{
layerId = "96DCC2AB-F6C9-4D02-A366-260ACDE51568";
shapes = (
{
closed = 1;
nodes = (
(526,-13,o),
(631,82,o),
(675,290,cs),
(765,714,l),
(730,714,l),
(388,517,l),
(467,503,l),
(206,714,l),
(169,714,l),
(84,315,ls),
(39,106,o),
(139,-13,o),
(343,-13,cs)
);
},
{
closed = 1;
nodes = (
(207,78,o),
(150,155,o),
(182,309,cs),
(249,624,l),
(200,611,l),
(401,445,l),
(423,445,l),
(678,596,l),
(646,622,l),
(578,298,ls),
(545,145,o),
(473,78,o),
(345,78,cs)
);
}
);
width = 736;
}
);
metricLeft = "te-canadian";
metricRight = "te-canadian";
note = uni15E2;
unicode = 5602;
},
{
color = 9;
glyphname = "ttoCarrier-canadian";
lastChange = "2023-01-13 15:29:06 +0000";
layers = (
{
layerId = "96DCC2AB-F6C9-4D02-A366-260ACDE51568";
shapes = (
{
closed = 1;
nodes = (
(52,0,l),
(394,197,l),
(316,211,l),
(576,0,l),
(613,0,l),
(698,399,ls),
(743,608,o),
(643,727,o),
(439,727,cs),
(256,727,o),
(151,632,o),
(107,424,cs),
(17,0,l)
);
},
{
closed = 1;
nodes = (
(575,636,o),
(632,559,o),
(600,405,cs),
(533,90,l),
(582,103,l),
(382,269,l),
(359,269,l),
(105,118,l),
(136,92,l),
(205,416,ls),
(237,569,o),
(310,636,o),
(437,636,cs)
);
}
);
width = 736;
}
);
metricLeft = "te-canadian";
metricRight = "te-canadian";
note = uni15E3;
unicode = 5603;
},
{
color = 9;
glyphname = "tteCarrier-canadian";
lastChange = "2023-01-13 15:29:06 +0000";
layers = (
{
anchors = (
{
name = middle_center_can;
pos = (437,357);
}
);
layerId = "96DCC2AB-F6C9-4D02-A366-260ACDE51568";
shapes = (
{
closed = 1;
nodes = (
(277,0,ls),
(577.996,0,o),
(699,232,o),
(699,439,cs),
(699,612,o),
(595,714,o),
(411,714,cs),
(169,714,l),
(163,687,l),
(226,319,l),
(235,401,l),
(24,27,l),
(18,0,l)
);
},
{
closed = 1;
nodes = (
(310,346,l),
(314,365,l),
(262,670,l),
(227,626,l),
(390,626,ls),
(528,626,o),
(601,558,o),
(601,432,cs),
(601,282,o),
(519,88,o),
(282,88,cs),
(118,88,l),
(142,49,l)
);
}
);
width = 733;
}
);
metricRight = "theCarrier-canadian";
note = uni15E4;
unicode = 5604;
},
{
color = 9;
glyphname = "ttaCarrier-canadian";
lastChange = "2023-01-13 15:28:23 +0000";
layers = (
{
layerId = "96DCC2AB-F6C9-4D02-A366-260ACDE51568";
shapes = (
{
closed = 1;
nodes = (
(611,0,l),
(617,27,l),
(554,395,l),
(545,313,l),
(757,687,l),
(763,714,l),
(503,714,ls),
(202,714,o),
(81,482,o),
(81,275,cs),
(81,102,o),
(186,0,o),
(369,0,cs)
);
},
{
closed = 1;
nodes = (
(553,88,l),
(390,88,ls),
(253,88,o),
(179,156,o),
(179,282,cs),
(179,432,o),
(261,626,o),
(498,626,cs),
(663,626,l),
(638,665,l),
(471,368,l),
(467,349,l),
(519,44,l)
);
}
);
width = 734;
}
);
metricLeft = "=|theCarrier-canadian";
metricRight = "=|tteCarrier-canadian";
note = uni15E7;
unicode = 5607;
},
{
color = 9;
glyphname = "puCarrier-canadian";
lastChange = "2023-01-13 15:29:06 +0000";
layers = (
{
layerId = "96DCC2AB-F6C9-4D02-A366-260ACDE51568";
shapes = (
{
closed = 1;
nodes = (
(527,-13,o),
(632,85,o),
(675,287,cs),
(766,714,l),
(667,714,l),
(632,549,l),
(234,549,l),
(269,714,l),
(170,714,l),
(85,317,ls),
(41,107,o),
(141,-13,o),
(342,-13,cs)
);
},
{
closed = 1;
nodes = (
(207,78,o),
(150,155,o),
(184,311,cs),
(216,462,l),
(613,462,l),
(577,290,ls),
(545,144,o),
(474,78,o),
(350,78,cs)
);
}
);
width = 737;
}
);
metricLeft = "te-canadian";
metricRight = "te-canadian";
note = uni15E8;
unicode = 5608;
},
{
color = 9;
glyphname = "poCarrier-canadian";
lastChange = "2023-01-13 15:29:06 +0000";
layers = (
{
layerId = "96DCC2AB-F6C9-4D02-A366-260ACDE51568";
shapes = (
{
closed = 1;
nodes = (
(116,0,l),
(151,165,l),
(549,165,l),
(514,0,l),
(613,0,l),
(698,397,ls),
(742,607,o),
(642,727,o),
(441,727,cs),
(256,727,o),
(151,629,o),
(108,427,cs),
(17,0,l)
);
},
{
closed = 1;
nodes = (
(207,424,ls),
(238,570,o),
(310,636,o),
(433,636,cs),
(576,636,o),
(633,559,o),
(599,403,cs),
(568,252,l),
(170,252,l)
);
}
);
width = 736;
}
);
metricLeft = "te-canadian";
metricRight = "te-canadian";
note = uni15E9;
unicode = 5609;
},
{
color = 9;
glyphname = "peCarrier-canadian";
lastChange = "2023-01-13 15:29:06 +0000";
layers = (
{
anchors = (
{
name = middle_center_can;
pos = (423,357);
}
);
layerId = "96DCC2AB-F6C9-4D02-A366-260ACDE51568";
shapes = (
{
closed = 1;
nodes = (
(273,0,ls),
(597,0,o),
(694,254,o),
(694,440,cs),
(694,612,o),
(590,714,o),
(407,714,cs),
(165,714,l),
(147,626,l),
(238,626,l),
(123,88,l),
(32,88,l),
(14,0,l)
);
},
{
closed = 1;
nodes = (
(346,670,l),
(278,626,l),
(386,626,ls),
(523,626,o),
(596,558,o),
(596,433,cs),
(596,282,o),
(515,88,o),
(278,88,cs),
(164,88,l),
(213,44,l)
);
}
);
width = 728;
}
);
metricRight = "theCarrier-canadian";
note = uni15EA;
unicode = 5610;
},
{
color = 9;
glyphname = "paCarrier-canadian";
lastChange = "2023-01-13 15:29:06 +0000";
layers = (
{
layerId = "96DCC2AB-F6C9-4D02-A366-260ACDE51568";
shapes = (
{
closed = 1;
nodes = (
(611,0,l),
(629,88,l),
(538,88,l),
(653,626,l),
(744,626,l),
(762,714,l),
(503,714,ls),
(179,714,o),
(81,460,o),
(81,274,cs),
(81,102,o),
(185,0,o),
(369,0,cs)
);
},
{
closed = 1;
nodes = (
(497,88,l),
(390,88,ls),
(253,88,o),
(179,156,o),
(179,281,cs),
(179,432,o),
(261,626,o),
(498,626,cs),
(612,626,l),
(563,670,l),
(430,44,l)
);
}
);
width = 730;
}
);
metricLeft = "=|theCarrier-canadian";
metricRight = "=|peCarrier-canadian";
note = uni15ED;
unicode = 5613;
},
{
color = 6;
glyphname = "pCarrier-canadian";
lastChange = "2023-01-13 15:28:23 +0000";
layers = (
{
layerId = "96DCC2AB-F6C9-4D02-A366-260ACDE51568";
shapes = (
{
closed = 1;
nodes = (
(384,189,l),
(398,256,l),
(268,256,l),
(330,546,l),
(259,546,l),
(198,256,l),
(66,256,l),
(51.997,189,l)
);
}
);
width = 461;
}
);
metricLeft = "shorthorizontalstrokeFinal-canadian";
metricRight = "shorthorizontalstrokeFinal-canadian";
note = uni15EE;
unicode = 5614;
},
{
color = 9;
glyphname = "guCarrier-canadian";
lastChange = "2023-01-13 15:29:06 +0000";
layers = (
{
anchors = (
{
name = top_center_can;
pos = (544,714);
}
);
layerId = "96DCC2AB-F6C9-4D02-A366-260ACDE51568";
shapes = (
{
closed = 1;
nodes = (
(331,-13,o),
(401,38,o),
(444,138,c),
(403,138,l),
(417,41,o),
(479,-13,o),
(577,-13,cs),
(697,-13,o),
(773,60,o),
(804,202,cs),
(912,714,l),
(817,714,l),
(708,205,ls),
(690,119,o),
(645,75,o),
(575,75,cs),
(500,75,o),
(466,127,o),
(485,216,cs),
(590,714,l),
(497,714,l),
(391,217,ls),
(371,124,o),
(324,75,o),
(251,75,cs),
(173,75,o),
(143,125,o),
(164,222,cs),
(268,714,l),
(173,714,l),
(70,229,ls),
(37,77,o),
(99,-13,o),
(235,-13,cs)
);
}
);
width = 888;
}
);
metricRight = "=|";
note = uni15EF;
unicode = 5615;
},
{
color = 9;
glyphname = "goCarrier-canadian";
lastChange = "2023-01-13 15:29:06 +0000";
layers = (
{
layerId = "96DCC2AB-F6C9-4D02-A366-260ACDE51568";
shapes = (
{
closed = 1;
nodes = (
(117,0,l),
(226,509,ls),
(244,595,o),
(289,639,o),
(359,639,cs),
(434,639,o),
(468,587,o),
(449,498,cs),
(343,0,l),
(437,0,l),
(543,497,ls),
(563,590,o),
(610,639,o),
(683,639,cs),
(760,639,o),
(790,589,o),
(770,492,cs),
(665,0,l),
(761,0,l),
(864,485,ls),
(896,637,o),
(835,727,o),
(699,727,cs),
(603,727,o),
(533,676,o),
(490,576,c),
(531,576,l),
(517,673,o),
(455,727,o),
(357,727,cs),
(237,727,o),
(161,654,o),
(130,512,cs),
(22,0,l)
);
}
);
width = 888;
}
);
metricLeft = "guCarrier-canadian";
metricRight = "guCarrier-canadian";
note = uni15F0;
unicode = 5616;
},
{
color = 9;
glyphname = "geCarrier-canadian";
lastChange = "2023-01-13 15:28:23 +0000";
layers = (
{
anchors = (
{
name = top_center_can;
pos = (469,714);
}
);
layerId = "96DCC2AB-F6C9-4D02-A366-260ACDE51568";
shapes = (
{
closed = 1;
nodes = (
(387,0,ls),
(549,0,o),
(647,78,o),
(647,217,cs),
(647,289,o),
(611,344,o),
(545,368,c),
(539,336,l),
(662,360,o),
(717,449,o),
(717,547,cs),
(717,648,o),
(643,714,o),
(529,714,cs),
(178.006,714,l),
(161,632,l),
(506,632,ls),
(578,632,o),
(618,597,o),
(618,538,cs),
(618,449,o),
(561,398,o),
(457,398,cs),
(111,398,l),
(94,317,l),
(441,317,ls),
(512,317,o),
(550,282,o),
(550,222,cs),
(550,140,o),
(503,82,o),
(389,82,cs),
(44,82,l),
(26,0,l)
);
}
);
width = 733;
}
);
metricLeft = "nunavuth-canadian";
note = uni15F1;
unicode = 5617;
},
{
color = 9;
glyphname = "geeCarrier-canadian";
lastChange = "2023-01-13 15:28:23 +0000";
layers = (
{
layerId = "96DCC2AB-F6C9-4D02-A366-260ACDE51568";
shapes = (
{
closed = 1;
nodes = (
(387,0,ls),
(549,0,o),
(647,78,o),
(647,217,cs),
(647,289,o),
(611,344,o),
(545,368,c),
(539,336,l),
(662,360,o),
(717,449,o),
(717,547,cs),
(717,648,o),
(643,714,o),
(529,714,cs),
(178.006,714,l),
(161,632,l),
(506,632,ls),
(578,632,o),
(618,597,o),
(618,538,cs),
(618,449,o),
(561,398,o),
(457,398,cs),
(388,398,l),
(406,483,l),
(345,483,l),
(327,398,l),
(111,398,l),
(94,317,l),
(309,317,l),
(291,232,l),
(352,232,l),
(370,317,l),
(441,317,ls),
(512,317,o),
(550,282,o),
(550,222,cs),
(550,140,o),
(503,82,o),
(389,82,cs),
(44,82,l),
(26,0,l)
);
}
);
width = 733;
}
);
metricLeft = "geCarrier-canadian";
metricRight = "geCarrier-canadian";
note = uni15F2;
unicode = 5618;
},
{
color = 9;
glyphname = "giCarrier-canadian";
lastChange = "2023-01-13 15:28:23 +0000";
layers = (
{
layerId = "96DCC2AB-F6C9-4D02-A366-260ACDE51568";
shapes = (
{
closed = 1;
nodes = (
(387,0,ls),
(549,0,o),
(647,78,o),
(647,217,cs),
(647,288,o),
(611,344,o),
(546,368,c),
(541,337,l),
(662,361,o),
(717,450,o),
(717,547,cs),
(717,648,o),
(643,714,o),
(529,714,cs),
(178.006,714,l),
(161,632,l),
(506,632,ls),
(578,632,o),
(618,597,o),
(618,538,cs),
(618,449,o),
(561,398,o),
(457,398,cs),
(402,398,l),
(436,370,l),
(431,411,o),
(396,443,o),
(352,443,cs),
(320,443,o),
(292,424,o),
(279,398,c),
(111,398,l),
(94,317,l),
(280,317,l),
(293,291,o),
(320,272,o),
(353,272,cs),
(395,272,o),
(428,304,o),
(435,344,c),
(396,317,l),
(441,317,ls),
(512,317,o),
(550,282,o),
(550,222,cs),
(550,140,o),
(503,82,o),
(389,82,cs),
(44,82,l),
(26,0,l)
);
}
);
width = 733;
}
);
metricLeft = "geCarrier-canadian";
metricRight = "geCarrier-canadian";
note = uni15F3;
unicode = 5619;
},
{
color = 9;
glyphname = "gaCarrier-canadian";
lastChange = "2023-01-13 15:29:06 +0000";
layers = (
{
anchors = (
{
name = top_center_can;
pos = (481,714);
}
);
layerId = "96DCC2AB-F6C9-4D02-A366-260ACDE51568";
shapes = (
{
closed = 1;
nodes = (
(601,0,l),
(618,82,l),
(273,82,ls),
(200,82,o),
(161,117,o),
(161,176,cs),
(161,265,o),
(218,316,o),
(322,316,cs),
(669,316,l),
(686,397,l),
(338,397,ls),
(267,397,o),
(229,432,o),
(229,492,cs),
(229,574,o),
(276,632,o),
(390,632,cs),
(735,632,l),
(753,714,l),
(392,714,ls),
(230,714,o),
(132,636,o),
(132,497,cs),
(132,425,o),
(168,370,o),
(234,346,c),
(240,378,l),
(117,354,o),
(62,265,o),
(62,167,cs),
(62,66,o),
(136,0,o),
(250,0,cs)
);
}
);
width = 734;
}
);
metricLeft = "=|geCarrier-canadian";
metricRight = "=|geCarrier-canadian";
note = uni15F4;
unicode = 5620;
},
{
color = 9;
glyphname = "khuCarrier-canadian";
lastChange = "2023-01-13 15:29:06 +0000";
layers = (
{
layerId = "96DCC2AB-F6C9-4D02-A366-260ACDE51568";
shapes = (
{
closed = 1;
nodes = (
(327,-13,o),
(395,34,o),
(437,126,c),
(406,128,l),
(422,38,o),
(482,-13,o),
(577,-13,cs),
(697,-13,o),
(773,60,o),
(804,202,cs),
(912,714,l),
(173,714,l),
(70,229,ls),
(37,77,o),
(99,-13,o),
(235,-13,cs)
);
},
{
closed = 1;
nodes = (
(173,75,o),
(143,125,o),
(164,222,cs),
(250,628,l),
(479,628,l),
(391,217,ls),
(371,124,o),
(324,75,o),
(251,75,cs)
);
},
{
closed = 1;
nodes = (
(500,75,o),
(466,127,o),
(485,216,cs),
(572,628,l),
(799,628,l),
(708,205,ls),
(690,119,o),
(645,75,o),
(575,75,cs)
);
}
);
width = 888;
}
);
metricLeft = "guCarrier-canadian";
metricRight = "guCarrier-canadian";
note = uni15F5;
unicode = 5621;
},
{
color = 9;
glyphname = "khoCarrier-canadian";
lastChange = "2023-01-13 15:29:06 +0000";
layers = (
{
layerId = "96DCC2AB-F6C9-4D02-A366-260ACDE51568";
shapes = (
{
closed = 1;
nodes = (
(761,0,l),
(864,485,ls),
(896,637,o),
(835,727,o),
(699,727,cs),
(607,727,o),
(539,680,o),
(497,588,c),
(528,586,l),
(512,676,o),
(452,727,o),
(357,727,cs),
(237,727,o),
(161,654,o),
(130,512,cs),
(22,0,l)
);
},
{
closed = 1;
nodes = (
(225,509,ls),
(244,595,o),
(289,639,o),
(359,639,cs),
(434,639,o),
(468,587,o),
(449,498,cs),
(361,86,l),
(135,86,l)
);
},
{
closed = 1;
nodes = (
(543,497,ls),
(563,590,o),
(610,639,o),
(683,639,cs),
(760,639,o),
(790,589,o),
(770,492,cs),
(684,86,l),
(455,86,l)
);
}
);
width = 888;
}
);
metricLeft = "guCarrier-canadian";
metricRight = "guCarrier-canadian";
note = uni15F6;
unicode = 5622;
},
{
color = 9;
glyphname = "kheCarrier-canadian";
lastChange = "2023-01-13 15:29:06 +0000";
layers = (
{
layerId = "96DCC2AB-F6C9-4D02-A366-260ACDE51568";
shapes = (
{
closed = 1;
nodes = (
(391,0,ls),
(553,0,o),
(651,79,o),
(651,218,cs),
(651,289,o),
(615,343,o),
(550,367,c),
(545,337,l),
(669,361,o),
(721,454,o),
(721,547,cs),
(721,648,o),
(647,714,o),
(533,714,cs),
(178,714,l),
(26,0,l)
);
},
{
closed = 1;
nodes = (
(192,317,l),
(445,317,ls),
(515,317,o),
(555,282,o),
(555,222,cs),
(555,139,o),
(506,81,o),
(393,81,cs),
(142,81,l)
);
},
{
closed = 1;
nodes = (
(260,633,l),
(510,633,ls),
(583,633,o),
(622,597,o),
(622,538,cs),
(622,451,o),
(566,397,o),
(461,397,cs),
(209,397,l)
);
}
);
width = 736;
}
);
metricLeft = "nunavuth-canadian";
metricRight = "geCarrier-canadian";
note = uni15F7;
unicode = 5623;
},
{
color = 9;
glyphname = "kheeCarrier-canadian";
lastChange = "2023-01-13 15:29:06 +0000";
layers = (
{
layerId = "96DCC2AB-F6C9-4D02-A366-260ACDE51568";
shapes = (
{
closed = 1;
nodes = (
(391,0,ls),
(553,0,o),
(651,79,o),
(651,218,cs),
(651,289,o),
(615,343,o),
(550,367,c),
(545,337,l),
(669,361,o),
(721,454,o),
(721,547,cs),
(721,648,o),
(647,714,o),
(533,714,cs),
(178,714,l),
(26,0,l)
);
},
{
closed = 1;
nodes = (
(192,318,l),
(338,318,l),
(319,230,l),
(385,230,l),
(407,335,l),
(380,318,l),
(445,318,ls),
(515,318,o),
(555,283,o),
(555,223,cs),
(555,140,o),
(506,81,o),
(393,81,cs),
(142,81,l)
);
},
{
closed = 1;
nodes = (
(439,485,l),
(373,485,l),
(354,397,l),
(209,397,l),
(260,633,l),
(510,633,ls),
(583,633,o),
(622,597,o),
(622,538,cs),
(622,451,o),
(566,397,o),
(461,397,cs),
(397,397,l),
(417,380,l)
);
}
);
width = 736;
}
);
metricLeft = "nunavuth-canadian";
metricRight = "geCarrier-canadian";
note = uni15F8;
unicode = 5624;
},
{
color = 9;
glyphname = "khiCarrier-canadian";
lastChange = "2023-01-13 15:29:06 +0000";
layers = (
{
layerId = "96DCC2AB-F6C9-4D02-A366-260ACDE51568";
shapes = (
{
closed = 1;
nodes = (
(391,0,ls),
(553,0,o),
(651,79,o),
(651,218,cs),
(651,288,o),
(616,343,o),
(550,367,c),
(544,336,l),
(670,361,o),
(721,454,o),
(721,547,cs),
(721,648,o),
(647,714,o),
(533,714,cs),
(178,714,l),
(26,0,l)
);
},
{
closed = 1;
nodes = (
(193,320,l),
(304,320,l),
(317,292,o),
(346,272,o),
(379,272,cs),
(422,272,o),
(456,306,o),
(461,348,c),
(403,320,l),
(446,320,ls),
(517,320,o),
(555,284,o),
(555,223,cs),
(555,140,o),
(506,81,o),
(393,81,cs),
(142,81,l)
);
},
{
closed = 1;
nodes = (
(510,633,ls),
(583,633,o),
(622,597,o),
(622,537,cs),
(622,450,o),
(568,395,o),
(463,395,cs),
(407,395,l),
(462,366,l),
(458,410,o),
(423,443,o),
(378,443,cs),
(334,443,o),
(299,410,o),
(296,366,c),
(331,395,l),
(209,395,l),
(260,633,l)
);
}
);
width = 736;
}
);
metricLeft = "nunavuth-canadian";
metricRight = "geCarrier-canadian";
note = uni15F9;
unicode = 5625;
},
{
color = 9;
glyphname = "khaCarrier-canadian";
lastChange = "2023-01-13 15:29:06 +0000";
layers = (
{
layerId = "96DCC2AB-F6C9-4D02-A366-260ACDE51568";
shapes = (
{
closed = 1;
nodes = (
(606,0,l),
(758,714,l),
(393,714,ls),
(231,714,o),
(132,635,o),
(132,496,cs),
(132,425,o),
(169,371,o),
(234,347,c),
(238,377,l),
(114,353,o),
(62,260,o),
(62,167,cs),
(62,66,o),
(136,0,o),
(251,0,cs)
);
},
{
closed = 1;
nodes = (
(201,81,o),
(161,117,o),
(161,176,cs),
(161,263,o),
(217,317,o),
(323,317,cs),
(574,317,l),
(524,81,l),
(273,81,ls)
);
},
{
closed = 1;
nodes = (
(268,397,o),
(229,432,o),
(229,492,cs),
(229,575,o),
(278,633,o),
(391,633,cs),
(642,633,l),
(592,397,l),
(339,397,ls)
);
}
);
width = 738;
}
);
metricLeft = "=|geCarrier-canadian";
metricRight = "nunavuth-canadian";
note = uni15FA;
unicode = 5626;
},
{
color = 9;
glyphname = "kkuCarrier-canadian";
lastChange = "2023-01-13 15:29:06 +0000";
layers = (
{
layerId = "96DCC2AB-F6C9-4D02-A366-260ACDE51568";
shapes = (
{
closed = 1;
nodes = (
(325,-13,o),
(394,32,o),
(438,127,c),
(406,127,l),
(422,39,o),
(481,-13,o),
(577,-13,cs),
(697,-13,o),
(773,60,o),
(804,202,cs),
(912,714,l),
(876,714,l),
(539,552,l),
(519,451,l),
(831,599,l),
(799,633,l),
(708,205,ls),
(691,119,o),
(645,75,o),
(575,75,cs),
(496,75,o),
(466,132,o),
(484,216,cs),
(590,714,l),
(497,714,l),
(391,217,ls),
(371,122,o),
(322,75,o),
(251,75,cs),
(173,75,o),
(143,125,o),
(164,222,cs),
(251,636,l),
(203,615,l),
(458,460,l),
(478,551,l),
(209,714,l),
(173,714,l),
(70,229,ls),
(37,76,o),
(100,-13,o),
(235,-13,cs)
);
}
);
width = 888;
}
);
metricLeft = "guCarrier-canadian";
metricRight = "guCarrier-canadian";
note = uni15FB;
unicode = 5627;
},
{
color = 9;
glyphname = "kkoCarrier-canadian";
lastChange = "2023-01-13 15:29:06 +0000";
layers = (
{
layerId = "96DCC2AB-F6C9-4D02-A366-260ACDE51568";
shapes = (
{
closed = 1;
nodes = (
(58,0,l),
(395,162,l),
(414,263,l),
(103,115,l),
(135,81,l),
(226,509,ls),
(243,595,o),
(288,639,o),
(358,639,cs),
(437,639,o),
(467,582,o),
(449,498,cs),
(343,0,l),
(437,0,l),
(542,497,ls),
(563,592,o),
(611,639,o),
(683,639,cs),
(760,639,o),
(790,589,o),
(770,492,cs),
(682,78,l),
(730,99,l),
(475,254,l),
(456,163,l),
(724,0,l),
(761,0,l),
(864,485,ls),
(896,638,o),
(834,727,o),
(699,727,cs),
(608,727,o),
(539,682,o),
(496,587,c),
(527,587,l),
(512,675,o),
(453,727,o),
(357,727,cs),
(236,727,o),
(161,654,o),
(130,512,cs),
(22,0,l)
);
}
);
width = 888;
}
);
metricLeft = "guCarrier-canadian";
metricRight = "guCarrier-canadian";
note = uni15FC;
unicode = 5628;
},
{
color = 9;
glyphname = "kkeCarrier-canadian";
lastChange = "2023-01-13 15:29:06 +0000";
layers = (
{
layerId = "96DCC2AB-F6C9-4D02-A366-260ACDE51568";
shapes = (
{
closed = 1;
nodes = (
(405,0,ls),
(567,0,o),
(665,78,o),
(665,217,cs),
(665,288,o),
(630,343,o),
(563,367,c),
(559,337,l),
(684,361,o),
(736,453,o),
(736,547,cs),
(736,649,o),
(662,714,o),
(547,714,cs),
(174,714,l),
(168,687,l),
(217,398,l),
(118,398,l),
(101,317,l),
(195,317,l),
(28,27,l),
(22,0,l)
);
},
{
closed = 1;
nodes = (
(297,317,l),
(460,317,ls),
(530,317,o),
(569,282,o),
(569,222,cs),
(569,140,o),
(522,82,o),
(408,82,cs),
(117,82,l),
(142,44,l)
);
},
{
closed = 1;
nodes = (
(266,676,l),
(231,632,l),
(524,632,ls),
(597,632,o),
(637,597,o),
(637,538,cs),
(637,449,o),
(579,398,o),
(475,398,cs),
(313,398,l)
);
}
);
width = 751;
}
);
metricRight = "geCarrier-canadian";
note = uni15FD;
unicode = 5629;
},
{
color = 9;
glyphname = "kkeeCarrier-canadian";
lastChange = "2023-01-13 15:29:06 +0000";
layers = (
{
layerId = "96DCC2AB-F6C9-4D02-A366-260ACDE51568";
shapes = (
{
closed = 1;
nodes = (
(405,0,ls),
(567,0,o),
(665,78,o),
(665,217,cs),
(665,288,o),
(630,343,o),
(563,367,c),
(559,337,l),
(684,361,o),
(736,453,o),
(736,547,cs),
(736,649,o),
(662,714,o),
(547,714,cs),
(174,714,l),
(168,687,l),
(217,398,l),
(118,398,l),
(101,317,l),
(195,317,l),
(28,27,l),
(22,0,l)
);
},
{
closed = 1;
nodes = (
(298,319,l),
(374,319,l),
(355,230,l),
(422,230,l),
(444,340,l),
(419,319,l),
(462,319,ls),
(532,319,o),
(569,282,o),
(569,222,cs),
(569,140,o),
(522,82,o),
(408,82,cs),
(117,82,l),
(142,44,l)
);
},
{
closed = 1;
nodes = (
(476,485,l),
(409,485,l),
(390,396,l),
(314,396,l),
(266,676,l),
(231,632,l),
(524,632,ls),
(597,632,o),
(637,597,o),
(637,538,cs),
(637,449,o),
(579,396,o),
(477,396,cs),
(435,396,l),
(453,379,l)
);
}
);
width = 751;
}
);
metricLeft = "kkeCarrier-canadian";
metricRight = "geCarrier-canadian";
note = uni15FE;
unicode = 5630;
},
{
color = 9;
glyphname = "kkiCarrier-canadian";
lastChange = "2023-01-13 15:29:06 +0000";
layers = (
{
layerId = "96DCC2AB-F6C9-4D02-A366-260ACDE51568";
shapes = (
{
closed = 1;
nodes = (
(405,0,ls),
(567,0,o),
(665,78,o),
(665,217,cs),
(665,288,o),
(630,343,o),
(563,367,c),
(559,337,l),
(684,361,o),
(736,453,o),
(736,547,cs),
(736,649,o),
(662,714,o),
(547,714,cs),
(174,714,l),
(168,687,l),
(217,398,l),
(118,398,l),
(101,317,l),
(195,317,l),
(28,27,l),
(22,0,l)
);
},
{
closed = 1;
nodes = (
(299,320,l),
(337,320,l),
(350,292,o),
(378,272,o),
(411,272,cs),
(452,272,o),
(484,303,o),
(490,342,c),
(432,320,l),
(462,320,ls),
(533,320,o),
(569,282,o),
(569,222,cs),
(569,140,o),
(522,82,o),
(408,82,cs),
(117,82,l),
(142,44,l)
);
},
{
closed = 1;
nodes = (
(487,412,o),
(453,443,o),
(410,443,cs),
(377,443,o),
(348,423,o),
(336,394,c),
(314,394,l),
(266,676,l),
(231,632,l),
(524,632,ls),
(597,632,o),
(637,597,o),
(637,538,cs),
(637,449,o),
(580,394,o),
(477,394,cs),
(433,394,l),
(492,371,l)
);
}
);
width = 751;
}
);
metricLeft = "kkeCarrier-canadian";
metricRight = "geCarrier-canadian";
note = uni15FF;
unicode = 5631;
},
{
color = 9;
glyphname = "kkaCarrier-canadian";
lastChange = "2023-01-13 15:28:23 +0000";
layers = (
{
layerId = "96DCC2AB-F6C9-4D02-A366-260ACDE51568";
shapes = (
{
closed = 1;
nodes = (
(623,0,l),
(629,27,l),
(581,316,l),
(680,316,l),
(697,397,l),
(603,397,l),
(769,687,l),
(775,714,l),
(392,714,ls),
(230,714,o),
(132,636,o),
(132,497,cs),
(132,426,o),
(167,371,o),
(235,347,c),
(239,377,l),
(114,353,o),
(62,261,o),
(62,167,cs),
(62,65,o),
(136,0,o),
(251,0,cs)
);
},
{
closed = 1;
nodes = (
(567,82,l),
(274,82,ls),
(200,82,o),
(161,117,o),
(161,176,cs),
(161,265,o),
(219,316,o),
(322,316,cs),
(484,316,l),
(532,38,l)
);
},
{
closed = 1;
nodes = (
(267,397,o),
(229,432,o),
(229,492,cs),
(229,574,o),
(276,632,o),
(390,632,cs),
(681,632,l),
(655,670,l),
(500,397,l),
(338,397,ls)
);
}
);
width = 751;
}
);
metricLeft = "=|geCarrier-canadian";
metricRight = "=|kkeCarrier-canadian";
note = uni1600;
unicode = 5632;
},
{
color = 6;
glyphname = "kkCarrier-canadian";
lastChange = "2023-01-13 15:28:23 +0000";
layers = (
{
layerId = "96DCC2AB-F6C9-4D02-A366-260ACDE51568";
shapes = (
{
closed = 1;
nodes = (
(380,546,l),
(193,260,l),
(244,260,l),
(177,546,l),
(114,546,l),
(110,531,l),
(197,189,l),
(216,189,l),
(448,531,l),
(451,546,l)
);
}
);
width = 438;
}
);
note = uni1601;
unicode = 5633;
},
{
color = 9;
glyphname = "nuCarrier-canadian";
lastChange = "2023-01-13 15:28:23 +0000";
layers = (
{
layerId = "96DCC2AB-F6C9-4D02-A366-260ACDE51568";
shapes = (
{
closed = 1;
nodes = (
(519,-13,o),
(633,86,o),
(671,267,cs),
(681,314,l),
(582,314,l),
(574,275,ls),
(546,144,o),
(471,77,o),
(353,77,cs),
(214,77,o),
(152,165,o),
(185,318,cs),
(269,714,l),
(170,714,l),
(86,322,ls),
(43,119,o),
(145,-13,o),
(347,-13,cs)
);
}
);
width = 733;
}
);
metricLeft = "te-canadian";
note = uni1602;
unicode = 5634;
},
{
color = 9;
glyphname = "noCarrier-canadian";
lastChange = "2023-01-13 15:28:23 +0000";
layers = (
{
layerId = "96DCC2AB-F6C9-4D02-A366-260ACDE51568";
shapes = (
{
closed = 1;
nodes = (
(609,0,l),
(692,392,ls),
(736,595,o),
(634,727,o),
(432,727,cs),
(260,727,o),
(146,628,o),
(108,447,cs),
(98,400,l),
(196,400,l),
(205,439,ls),
(233,570,o),
(308,637,o),
(426,637,cs),
(565,637,o),
(626,549,o),
(594,396,cs),
(510,0,l)
);
}
);
width = 732;
}
);
metricLeft = "=|nuCarrier-canadian";
metricRight = "te-canadian";
note = uni1603;
unicode = 5635;
},
{
color = 9;
glyphname = "neCarrier-canadian";
lastChange = "2023-01-13 15:28:23 +0000";
layers = (
{
anchors = (
{
name = middle_center_can;
pos = (349,356);
}
);
layerId = "96DCC2AB-F6C9-4D02-A366-260ACDE51568";
shapes = (
{
closed = 1;
nodes = (
(273,0,ls),
(591,0,o),
(690,249,o),
(690,438,cs),
(690,611,o),
(586,714,o),
(401,714,cs),
(152,714,l),
(133,624,l),
(388,624,ls),
(520,624,o),
(592,555,o),
(592,431,cs),
(592,294,o),
(522,89,o),
(283,89,cs),
(262,89,l),
(243,0,l)
);
}
);
width = 725;
}
);
metricRight = "theCarrier-canadian";
note = uni1604;
unicode = 5636;
},
{
color = 9;
glyphname = "naCarrier-canadian";
lastChange = "2023-01-13 15:29:06 +0000";
layers = (
{
layerId = "96DCC2AB-F6C9-4D02-A366-260ACDE51568";
shapes = (
{
closed = 1;
nodes = (
(619,0,l),
(638,90,l),
(383,90,ls),
(251,90,o),
(179,159,o),
(179,283,cs),
(179,420,o),
(248,625,o),
(487,625,cs),
(509,625,l),
(528,714,l),
(498,714,ls),
(180,714,o),
(81,465,o),
(81,276,cs),
(81,103,o),
(185,0,o),
(369,0,cs)
);
}
);
width = 725;
}
);
metricLeft = "=|theCarrier-canadian";
metricRight = "=|neCarrier-canadian";
note = uni1607;
unicode = 5639;
},
{
color = 9;
glyphname = "muCarrier-canadian";
lastChange = "2023-01-13 15:29:06 +0000";
layers = (
{
layerId = "96DCC2AB-F6C9-4D02-A366-260ACDE51568";
shapes = (
{
closed = 1;
nodes = (
(329,-13,o),
(401,36,o),
(444,138,c),
(403,138,l),
(417,44,o),
(477,-13,o),
(577,-13,cs),
(697,-13,o),
(773,60,o),
(804,202,cs),
(847,404,l),
(748,404,l),
(706,205,ls),
(688,119,o),
(643,75,o),
(576,75,cs),
(498,75,o),
(468,132,o),
(486,215,cs),
(526,404,l),
(430,404,l),
(390,217,ls),
(369,121,o),
(321,75,o),
(251,75,cs),
(175,75,o),
(145,124,o),
(166,222,cs),
(271,714,l),
(173,714,l),
(70,229,ls),
(37,76,o),
(99,-13,o),
(235,-13,cs)
);
}
);
width = 888;
}
);
metricLeft = "guCarrier-canadian";
metricRight = "=|";
note = uni1608;
unicode = 5640;
},
{
color = 9;
glyphname = "moCarrier-canadian";
lastChange = "2023-01-13 15:28:23 +0000";
layers = (
{
layerId = "96DCC2AB-F6C9-4D02-A366-260ACDE51568";
shapes = (
{
closed = 1;
nodes = (
(760,0,l),
(863,485,ls),
(896,638,o),
(834,727,o),
(698,727,cs),
(604,727,o),
(532,678,o),
(489,576,c),
(529,576,l),
(516,670,o),
(456,727,o),
(356,727,cs),
(236,727,o),
(160,654,o),
(130,512,cs),
(87,310,l),
(185,310,l),
(227,509,ls),
(245,595,o),
(290,639,o),
(357,639,cs),
(435,639,o),
(465,582,o),
(447,499,cs),
(407,310,l),
(503,310,l),
(543,497,ls),
(564,593,o),
(612,639,o),
(682,639,cs),
(758,639,o),
(787,590,o),
(766,492,cs),
(662,0,l)
);
}
);
width = 887;
}
);
metricLeft = "=|muCarrier-canadian";
metricRight = "guCarrier-canadian";
note = uni1609;
unicode = 5641;
},
{
color = 9;
glyphname = "meCarrier-canadian";
lastChange = "2023-01-13 15:29:06 +0000";
layers = (
{
layerId = "96DCC2AB-F6C9-4D02-A366-260ACDE51568";
shapes = (
{
closed = 1;
nodes = (
(388,0,ls),
(550,0,o),
(648,78,o),
(648,217,cs),
(648,289,o),
(612,344,o),
(547,368,c),
(541,336,l),
(663,360,o),
(719,449,o),
(719,547,cs),
(719,648,o),
(645,714,o),
(530,714,cs),
(152,714,l),
(135,632,l),
(508,632,ls),
(580,632,o),
(620,597,o),
(620,538,cs),
(620,449,o),
(562,398,o),
(459,398,cs),
(328,398,l),
(311,317,l),
(442,317,ls),
(513,317,o),
(552,282,o),
(552,222,cs),
(552,140,o),
(505,82,o),
(391,82,cs),
(261,82,l),
(244,0,l)
);
}
);
width = 734;
}
);
metricLeft = "neCarrier-canadian";
metricRight = "geCarrier-canadian";
note = uni160A;
unicode = 5642;
},
{
color = 9;
glyphname = "meeCarrier-canadian";
lastChange = "2023-01-13 15:29:06 +0000";
layers = (
{
layerId = "96DCC2AB-F6C9-4D02-A366-260ACDE51568";
shapes = (
{
closed = 1;
nodes = (
(388,0,ls),
(550,0,o),
(648,78,o),
(648,217,cs),
(648,289,o),
(612,344,o),
(547,368,c),
(541,336,l),
(663,360,o),
(719,449,o),
(719,547,cs),
(719,648,o),
(645,714,o),
(530,714,cs),
(152,714,l),
(135,632,l),
(508,632,ls),
(580,632,o),
(620,597,o),
(620,538,cs),
(620,449,o),
(562,396,o),
(459,396,cs),
(395,396,l),
(413,481,l),
(345,481,l),
(293,234,l),
(361,234,l),
(378,318,l),
(443,318,ls),
(514,318,o),
(552,282,o),
(552,222,cs),
(552,140,o),
(505,82,o),
(391,82,cs),
(261,82,l),
(244,0,l)
);
}
);
width = 734;
}
);
metricLeft = "neCarrier-canadian";
metricRight = "geCarrier-canadian";
note = uni160B;
unicode = 5643;
},
{
color = 9;
glyphname = "miCarrier-canadian";
lastChange = "2023-01-13 15:29:06 +0000";
layers = (
{
layerId = "96DCC2AB-F6C9-4D02-A366-260ACDE51568";
shapes = (
{
closed = 1;
nodes = (
(388,0,ls),
(548,0,o),
(635,72,o),
(646,195,cs),
(654,277,o),
(619,340,o),
(547,368,c),
(541,336,l),
(655,358,o),
(708,437,o),
(716,525,cs),
(729,638,o),
(653,714,o),
(530,714,cs),
(152,714,l),
(135,632,l),
(507,632,ls),
(583,632,o),
(623,594,o),
(619,530,cs),
(615,443,o),
(558,396,o),
(458,396,cs),
(383,396,l),
(437,367,l),
(432,411,o),
(398,444,o),
(353,444,cs),
(305,444,o),
(269,405,o),
(269,359,cs),
(269,312,o),
(306,273,o),
(353,273,cs),
(396,273,o),
(430,305,o),
(436,347,c),
(382,318,l),
(442,318,ls),
(516,318,o),
(555,281,o),
(551,214,cs),
(547,132,o),
(498,82,o),
(391,82,cs),
(261,82,l),
(244,0,l)
);
}
);
width = 732;
}
);
metricLeft = "neCarrier-canadian";
metricRight = "geCarrier-canadian";
note = uni160C;
unicode = 5644;
},
{
color = 9;
glyphname = "maCarrier-canadian";
lastChange = "2023-01-13 15:28:23 +0000";
layers = (
{
layerId = "96DCC2AB-F6C9-4D02-A366-260ACDE51568";
shapes = (
{
closed = 1;
nodes = (
(629,0,l),
(647,82,l),
(273,82,ls),
(200,82,o),
(161,117,o),
(161,176,cs),
(161,265,o),
(218,316,o),
(322,316,cs),
(452,316,l),
(469,397,l),
(338,397,ls),
(267,397,o),
(229,432,o),
(229,492,cs),
(229,574,o),
(276,632,o),
(390,632,cs),
(520,632,l),
(537,714,l),
(392,714,ls),
(230,714,o),
(132,636,o),
(132,497,cs),
(132,425,o),
(168,370,o),
(234,346,c),
(240,378,l),
(117,354,o),
(62,265,o),
(62,167,cs),
(62,66,o),
(136,0,o),
(250,0,cs)
);
}
);
width = 735;
}
);
metricLeft = "=|geCarrier-canadian";
metricRight = "=|neCarrier-canadian";
note = uni160D;
unicode = 5645;
},
{
color = 9;
glyphname = "yuCarrier-canadian";
lastChange = "2023-01-13 15:29:06 +0000";
layers = (
{
layerId = "96DCC2AB-F6C9-4D02-A366-260ACDE51568";
shapes = (
{
closed = 1;
nodes = (
(556,-13,o),
(681,110,o),
(735,371,cs),
(777,568,o),
(743,727,o),
(584,727,cs),
(437,727,o),
(377,582,o),
(377,473,cs),
(377,377,o),
(430,315,o),
(518,315,cs),
(532,315,o),
(544,318,o),
(563,322,c),
(580,401,l),
(570,398,o),
(558,397,o),
(546,397,cs),
(493,397,o),
(465,426,o),
(465,481,cs),
(465,537,o),
(491,645,o),
(576,645,cs),
(671,645,o),
(673,533,o),
(644,390,cs),
(600,171,o),
(517,78,o),
(364,78,cs),
(207,78,o),
(154,178,o),
(187,331,cs),
(269,714,l),
(169,714,l),
(88,332,ls),
(46,132,o),
(136,-13,o),
(356,-13,cs)
);
}
);
width = 779;
}
);
metricLeft = "te-canadian";
metricRight = "te-canadian";
note = uni160E;
unicode = 5646;
},
{
color = 9;
glyphname = "yoCarrier-canadian";
lastChange = "2023-01-13 15:29:06 +0000";
layers = (
{
layerId = "96DCC2AB-F6C9-4D02-A366-260ACDE51568";
shapes = (
{
closed = 1;
nodes = (
(389,-13,o),
(448,132,o),
(448,241,cs),
(448,337,o),
(396,399,o),
(308,399,cs),
(294,399,o),
(282,396,o),
(263,392,c),
(246,313,l),
(256,316,o),
(267,317,o),
(279,317,cs),
(333,317,o),
(361,288,o),
(361,233,cs),
(361,177,o),
(335,69,o),
(249,69,cs),
(155,69,o),
(152,181,o),
(181,324,cs),
(225,543,o),
(308,636,o),
(462,636,cs),
(619,636,o),
(671,536,o),
(639,383,cs),
(557,0,l),
(657,0,l),
(738,382,ls),
(780,582,o),
(689,727,o),
(470,727,cs),
(269,727,o),
(144,604,o),
(90,343,cs),
(48,146,o),
(83,-13,o),
(242,-13,cs)
);
}
);
width = 780;
}
);
metricLeft = "te-canadian";
metricRight = "te-canadian";
note = uni160F;
unicode = 5647;
},
{
color = 9;
glyphname = "yeCarrier-canadian";
lastChange = "2023-01-13 15:28:23 +0000";
layers = (
{
layerId = "96DCC2AB-F6C9-4D02-A366-260ACDE51568";
shapes = (
{
closed = 1;
nodes = (
(567,-13,o),
(689,226,o),
(689,426,cs),
(689,607,o),
(579,714,o),
(387,714,cs),
(178,714,l),
(159,624,l),
(370,624,ls),
(513,624,o),
(589,551,o),
(589,420,cs),
(589,274,o),
(519,72,o),
(318,72,cs),
(209,72,o),
(147,120,o),
(147,200,cs),
(147,263,o),
(181,342,o),
(255,342,cs),
(303,342,o),
(331,311,o),
(331,258,cs),
(331,226,o),
(323,193,o),
(311,164,c),
(391,164,l),
(406,199,o),
(415,237,o),
(415,273,cs),
(415,364,o),
(356,422,o),
(259,422,cs),
(132,422,o),
(58,307,o),
(58,190,cs),
(58,67,o),
(155,-13,o),
(314,-13,cs)
);
}
);
width = 726;
}
);
metricRight = "theCarrier-canadian";
note = uni1610;
unicode = 5648;
},
{
color = 9;
glyphname = "yeeCarrier-canadian";
lastChange = "2023-01-13 15:29:06 +0000";
layers = (
{
layerId = "96DCC2AB-F6C9-4D02-A366-260ACDE51568";
shapes = (
{
closed = 1;
nodes = (
(567,-13,o),
(690,226,o),
(690,428,cs),
(690,607,o),
(580,714,o),
(388,714,cs),
(179,714,l),
(160,624,l),
(371,624,ls),
(514,624,o),
(590,551,o),
(590,419,cs),
(590,295,o),
(533,72,o),
(319,72,cs),
(210,72,o),
(148,118,o),
(148,198,cs),
(148,258,o),
(181,342,o),
(259,342,cs),
(321,342,o),
(336,290,o),
(323,230,cs),
(313,186,l),
(375,186,l),
(444,513,l),
(383,513,l),
(342,320,l),
(351,319,l),
(355,383,o),
(316,422,o),
(247,422,cs),
(125,422,o),
(59,301,o),
(59,193,cs),
(59,67,o),
(156,-13,o),
(317,-13,cs)
);
}
);
width = 726;
}
);
metricRight = "theCarrier-canadian";
metricWidth = "yeCarrier-canadian";
note = uni1611;
unicode = 5649;
},
{
color = 9;
glyphname = "yiCarrier-canadian";
lastChange = "2023-01-13 15:29:06 +0000";
layers = (
{
layerId = "96DCC2AB-F6C9-4D02-A366-260ACDE51568";
shapes = (
{
closed = 1;
nodes = (
(555,-13,o),
(689,203,o),
(689,428,cs),
(689,607,o),
(579,714,o),
(387,714,cs),
(179,714,l),
(160,624,l),
(371,624,ls),
(514,624,o),
(589,551,o),
(589,419,cs),
(589,263,o),
(514,72,o),
(319,72,cs),
(209,72,o),
(146,119,o),
(146,197,cs),
(146,270,o),
(188,332,o),
(283,325,c),
(255,355,l),
(256,315,o),
(289,283,o),
(331,283,cs),
(373,283,o),
(405,316,o),
(405,358,cs),
(405,400,o),
(373,431,o),
(330,431,cs),
(302,431,o),
(279,417,o),
(267,396,c),
(136,391,o),
(58,307,o),
(58,187,cs),
(58,67,o),
(155,-13,o),
(315,-13,cs)
);
}
);
width = 726;
}
);
metricRight = "theCarrier-canadian";
metricWidth = "yeCarrier-canadian";
note = uni1612;
unicode = 5650;
},
{
color = 9;
glyphname = "yaCarrier-canadian";
lastChange = "2023-01-13 15:29:06 +0000";
layers = (
{
layerId = "96DCC2AB-F6C9-4D02-A366-260ACDE51568";
shapes = (
{
closed = 1;
nodes = (
(593,0,l),
(612,90,l),
(401,90,ls),
(258,90,o),
(183,163,o),
(183,294,cs),
(183,440,o),
(252,642,o),
(454,642,cs),
(562,642,o),
(625,594,o),
(625,514,cs),
(625,451,o),
(590,372,o),
(517,372,cs),
(468,372,o),
(440,403,o),
(440,456,cs),
(440,488,o),
(449,521,o),
(460,550,c),
(380,550,l),
(365,515,o),
(356,477,o),
(356,441,cs),
(356,350,o),
(416,292,o),
(512,292,cs),
(639,292,o),
(713,407,o),
(713,524,cs),
(713,647,o),
(616,727,o),
(457,727,cs),
(204,727,o),
(83,488,o),
(83,288,cs),
(83,107,o),
(192,0,o),
(385,0,cs)
);
}
);
width = 725;
}
);
metricLeft = "=|theCarrier-canadian";
metricRight = "=|yeCarrier-canadian";
note = uni1613;
unicode = 5651;
},
{
color = 9;
glyphname = "juCarrier-canadian";
lastChange = "2023-01-13 15:28:23 +0000";
layers = (
{
layerId = "96DCC2AB-F6C9-4D02-A366-260ACDE51568";
shapes = (
{
closed = 1;
nodes = (
(555,-13,o),
(676,103,o),
(676,257,cs),
(676,355,o),
(616,422,o),
(518,422,cs),
(398,422,o),
(335,322,o),
(323,214,cs),
(320,197,o),
(319,180,o),
(320,164,c),
(400,164,l),
(400,174,o),
(401,188,o),
(403,205,cs),
(411,275,o),
(443,342,o),
(512,342,cs),
(561,342,o),
(588,309,o),
(588,255,cs),
(588,153,o),
(516,72,o),
(391,72,cs),
(257,72,o),
(181,140,o),
(181,258,cs),
(181,475,o),
(359,624,o),
(632,624,cs),
(747,624,l),
(766,714,l),
(169,714,l),
(151,628,l),
(476,628,l),
(564,664,l),
(288,661,o),
(82,501,o),
(82,257,cs),
(82,96,o),
(199,-13,o),
(379,-13,cs)
);
}
);
width = 744;
}
);
metricRight = "=|yeCarrier-canadian";
note = uni1614;
unicode = 5652;
},
{
color = 9;
glyphname = "juSayisi-canadian";
lastChange = "2023-01-13 15:29:06 +0000";
layers = (
{
anchors = (
{
name = top_center_can;
pos = (483,714);
}
);
layerId = "96DCC2AB-F6C9-4D02-A366-260ACDE51568";
shapes = (
{
closed = 1;
nodes = (
(563,-13,o),
(683,178,o),
(689,366,cs),
(694,552,o),
(572,662,o),
(341,666,c),
(435,628,l),
(754,628,l),
(773,714,l),
(174,714,l),
(156,624,l),
(277,624,ls),
(493,624,o),
(596,538,o),
(592,373,cs),
(589,249,o),
(533,72,o),
(323,72,cs),
(206,72,o),
(144,121,o),
(146,203,cs),
(147,273,o),
(187,342,o),
(255,342,cs),
(304,342,o),
(329,310,o),
(329,254,cs),
(328,225,o),
(320,190,o),
(309,164,c),
(389,164,l),
(405,201,o),
(412,239,o),
(412,268,cs),
(415,362,o),
(357,422,o),
(259,422,cs),
(141,422,o),
(61,319,o),
(58,199,cs),
(53,71,o),
(150,-13,o),
(320,-13,cs)
);
}
);
width = 744;
}
);
metricLeft = "yeCarrier-canadian";
metricRight = "=|juCarrier-canadian";
note = uni1615;
unicode = 5653;
},
{
color = 9;
glyphname = "joCarrier-canadian";
lastChange = "2023-01-13 15:28:23 +0000";
layers = (
{
layerId = "96DCC2AB-F6C9-4D02-A366-260ACDE51568";
shapes = (
{
closed = 1;
nodes = (
(621,0,l),
(639,86,l),
(314,86,l),
(226,50,l),
(502,53,o),
(708,213,o),
(708,457,cs),
(708,618,o),
(591,727,o),
(412,727,cs),
(235,727,o),
(115,611,o),
(115,457,cs),
(115,359,o),
(174,292,o),
(272,292,cs),
(392,292,o),
(455,392,o),
(467,500,cs),
(470,517,o),
(471,534,o),
(470,550,c),
(390,550,l),
(390,540,o),
(390,526,o),
(387,509,cs),
(379,439,o),
(347,372,o),
(278,372,cs),
(229,372,o),
(202,405,o),
(202,459,cs),
(202,561,o),
(274,642,o),
(400,642,cs),
(533,642,o),
(609,574,o),
(609,456,cs),
(609,239,o),
(431,90,o),
(158,90,cs),
(43,90,l),
(24,0,l)
);
}
);
width = 744;
}
);
metricLeft = "yeCarrier-canadian";
metricRight = "=|juCarrier-canadian";
note = uni1616;
unicode = 5654;
},
{
color = 9;
glyphname = "jeCarrier-canadian";
lastChange = "2023-01-13 15:29:06 +0000";
layers = (
{
layerId = "96DCC2AB-F6C9-4D02-A366-260ACDE51568";
shapes = (
{
closed = 1;
nodes = (
(685,-13,o),
(741,297,o),
(741,442,cs),
(741,622,o),
(656,727,o),
(500,727,cs),
(362,727,o),
(262,643,o),
(206,479,c),
(223,466,l),
(276,714,l),
(178,714,l),
(26,0,l),
(125,0,l),
(187,291,ls),
(235,518,o),
(335,637,o),
(479,637,cs),
(592,637,o),
(646,569,o),
(646,437,cs),
(646,356,o),
(617,69,o),
(482,69,cs),
(432,69,o),
(403,101,o),
(403,157,cs),
(403,226,o),
(437,317,o),
(534,317,cs),
(547,317,o),
(559,316,o),
(570,313,c),
(586,392,l),
(567,396,o),
(549,399,o),
(529,399,cs),
(375,399,o),
(316,260,o),
(316,150,cs),
(316,50,o),
(376,-13,o),
(475,-13,cs)
);
}
);
width = 786;
}
);
metricLeft = "nunavuth-canadian";
metricRight = "te-canadian";
note = uni1617;
unicode = 5655;
},
{
color = 9;
glyphname = "jeeCarrier-canadian";
lastChange = "2023-01-13 15:29:06 +0000";
layers = (
{
layerId = "96DCC2AB-F6C9-4D02-A366-260ACDE51568";
shapes = (
{
closed = 1;
nodes = (
(685,-13,o),
(741,297,o),
(741,441,cs),
(741,622,o),
(656,727,o),
(500,727,cs),
(362,727,o),
(262,642,o),
(206,478,c),
(223,465,l),
(276,714,l),
(178,714,l),
(26,0,l),
(125,0,l),
(186,289,ls),
(235,518,o),
(335,637,o),
(479,637,cs),
(592,637,o),
(647,569,o),
(647,437,cs),
(647,342,o),
(614,69,o),
(469,69,cs),
(410,69,o),
(377,105,o),
(377,167,cs),
(377,229,o),
(402,313,o),
(481,329,c),
(462,240,l),
(517,240,l),
(567,473,l),
(511,473,l),
(493,388,l),
(362,368,o),
(316,246,o),
(316,149,cs),
(316,50,o),
(377,-13,o),
(475,-13,cs)
);
}
);
width = 787;
}
);
metricLeft = "nunavuth-canadian";
metricRight = "jeCarrier-canadian";
note = uni1618;
unicode = 5656;
},
{
color = 9;
glyphname = "jiCarrier-canadian";
lastChange = "2023-01-13 15:29:06 +0000";
layers = (
{
layerId = "96DCC2AB-F6C9-4D02-A366-260ACDE51568";
shapes = (
{
closed = 1;
nodes = (
(685,-13,o),
(741,297,o),
(741,441,cs),
(741,622,o),
(656,727,o),
(500,727,cs),
(362,727,o),
(262,642,o),
(206,478,c),
(223,465,l),
(276,714,l),
(178,714,l),
(26,0,l),
(125,0,l),
(186,289,ls),
(235,518,o),
(335,637,o),
(479,637,cs),
(592,637,o),
(647,569,o),
(647,437,cs),
(647,342,o),
(614,69,o),
(469,69,cs),
(410,69,o),
(377,105,o),
(377,167,cs),
(377,216,o),
(393,282,o),
(445,308,c),
(455,293,o),
(473,283,o),
(494,283,cs),
(536,283,o),
(566,317,o),
(566,358,cs),
(566,399,o),
(535,431,o),
(493,431,cs),
(452,431,o),
(421,398,o),
(421,356,c),
(343,316,o),
(316,223,o),
(316,149,cs),
(316,50,o),
(377,-13,o),
(475,-13,cs)
);
}
);
width = 787;
}
);
metricLeft = "nunavuth-canadian";
metricRight = "jeCarrier-canadian";
note = uni1619;
unicode = 5657;
},
{
color = 9;
glyphname = "jiSayisi-canadian";
lastChange = "2023-01-13 15:29:06 +0000";
layers = (
{
layerId = "96DCC2AB-F6C9-4D02-A366-260ACDE51568";
shapes = (
{
closed = 1;
nodes = (
(658,-13,o),
(761,330,o),
(761,518,cs),
(761,653,o),
(704,727,o),
(596,727,cs),
(447,727,o),
(385,576,o),
(385,470,cs),
(385,374,o),
(439,315,o),
(522,315,cs),
(541,315,o),
(560,318,o),
(571,323,c),
(588,402,l),
(578,398,o),
(566,397,o),
(553,397,cs),
(500,397,o),
(472,424,o),
(472,479,cs),
(472,529,o),
(498,645,o),
(588,645,cs),
(642,645,o),
(668,606,o),
(668,525,cs),
(668,395,o),
(604,77,o),
(382,77,cs),
(192,77,o),
(182,268,o),
(218,437,cs),
(277,714,l),
(178,714,l),
(26,0,l),
(124,0,l),
(189,308,l),
(171,317,l),
(139,147,o),
(197,-13,o),
(386,-13,cs)
);
}
);
width = 788;
}
);
metricLeft = "nunavuth-canadian";
metricRight = "jeCarrier-canadian";
note = uni161A;
unicode = 5658;
},
{
color = 9;
glyphname = "jaCarrier-canadian";
lastChange = "2023-01-13 15:29:06 +0000";
layers = (
{
anchors = (
{
name = top_center_can;
pos = (485,714);
}
);
layerId = "96DCC2AB-F6C9-4D02-A366-260ACDE51568";
shapes = (
{
closed = 1;
nodes = (
(472,-13,o),
(572,72,o),
(628,235,c),
(611,249,l),
(558,0,l),
(657,0,l),
(809,714,l),
(709,714,l),
(647,423,ls),
(599,196,o),
(499,77,o),
(355,77,cs),
(243,77,o),
(188,145,o),
(188,277,cs),
(188,359,o),
(217,646,o),
(352,646,cs),
(402,646,o),
(431,613,o),
(431,558,cs),
(431,488,o),
(397,397,o),
(301,397,cs),
(287,397,o),
(275,399,o),
(264,402,c),
(248,323,l),
(267,318,o),
(285,316,o),
(305,316,cs),
(459,316,o),
(518,454,o),
(518,564,cs),
(518,665,o),
(459,728,o),
(359,728,cs),
(149,728,o),
(92,417,o),
(92,272,cs),
(92,93,o),
(178,-13,o),
(334,-13,cs)
);
}
);
width = 789;
}
);
metricLeft = "=|jeCarrier-canadian";
metricRight = "nunavuth-canadian";
note = uni161B;
unicode = 5659;
},
{
color = 9;
glyphname = "jjuCarrier-canadian";
lastChange = "2023-01-13 15:28:23 +0000";
layers = (
{
layerId = "96DCC2AB-F6C9-4D02-A366-260ACDE51568";
shapes = (
{
closed = 1;
nodes = (
(545,-13,o),
(663,103,o),
(663,258,cs),
(663,356,o),
(602,422,o),
(504,422,cs),
(406,422,o),
(337,358,o),
(313,245,cs),
(306,217,o),
(303,189,o),
(303,164,c),
(384,164,l),
(384,183,o),
(387,206,o),
(392,232,cs),
(408,303,o),
(443,342,o),
(497,342,cs),
(546,342,o),
(575,308,o),
(575,254,cs),
(575,152,o),
(501,71,o),
(377,71,cs),
(249,71,o),
(179,142,o),
(179,264,cs),
(179,458,o),
(299,624,o),
(574,624,cs),
(729,624,l),
(748,714,l),
(588,714,ls),
(453,714,o),
(345,681,o),
(265,627,c),
(187,727,l),
(106,664,l),
(187,562,l),
(111,480,o),
(81,369,o),
(81,268,cs),
(81,99,o),
(191,-13,o),
(369,-13,cs)
);
}
);
width = 731;
}
);
metricRight = "=|yeCarrier-canadian";
note = uni161C;
unicode = 5660;
},
{
color = 9;
glyphname = "jjoCarrier-canadian";
lastChange = "2023-01-13 15:29:06 +0000";
layers = (
{
layerId = "96DCC2AB-F6C9-4D02-A366-260ACDE51568";
shapes = (
{
closed = 1;
nodes = (
(671,50,l),
(590,152,l),
(666,234,o),
(696,345,o),
(696,446,cs),
(696,615,o),
(586,727,o),
(408,727,cs),
(232,727,o),
(115,611,o),
(115,456,cs),
(115,358,o),
(176,292,o),
(273,292,cs),
(372,292,o),
(440,356,o),
(465,469,cs),
(471,497,o),
(474,525,o),
(474,550,c),
(394,550,l),
(393,531,o),
(390,508,o),
(385,482,cs),
(369,411,o),
(334,372,o),
(280,372,cs),
(231,372,o),
(202,406,o),
(202,460,cs),
(202,562,o),
(276,643,o),
(400,643,cs),
(529,643,o),
(598,572,o),
(598,450,cs),
(598,256,o),
(478,90,o),
(203,90,cs),
(48,90,l),
(29,0,l),
(189,0,ls),
(325,0,o),
(432,33,o),
(512,87,c),
(591,-13,l)
);
}
);
width = 731;
}
);
metricLeft = "yeCarrier-canadian";
metricRight = "=|jjuCarrier-canadian";
note = uni161D;
unicode = 5661;
},
{
color = 9;
glyphname = "jjeCarrier-canadian";
lastChange = "2023-01-13 15:29:06 +0000";
layers = (
{
layerId = "96DCC2AB-F6C9-4D02-A366-260ACDE51568";
shapes = (
{
closed = 1;
nodes = (
(694,-13,o),
(750,299,o),
(750,442,cs),
(750,626,o),
(659,727,o),
(487,727,cs),
(400,727,o),
(323,700,o),
(261,643,c),
(193,727,l),
(115,663,l),
(194,565,l),
(156,511,o),
(127,440,o),
(108,352,cs),
(34,0,l),
(133,0,l),
(206,341,ls),
(247,537,o),
(341,637,o),
(481,637,cs),
(598,637,o),
(654,571,o),
(654,437,cs),
(654,356,o),
(625,69,o),
(491,69,cs),
(440,69,o),
(411,101,o),
(411,157,cs),
(411,227,o),
(445,317,o),
(541,317,cs),
(557,317,o),
(569,316,o),
(578,313,c),
(594,392,l),
(580,396,o),
(559,399,o),
(540,399,cs),
(385,399,o),
(324,260,o),
(324,150,cs),
(324,50,o),
(383,-13,o),
(483,-13,cs)
);
}
);
width = 795;
}
);
metricRight = "jeCarrier-canadian";
note = uni161E;
unicode = 5662;
},
{
color = 9;
glyphname = "jjeeCarrier-canadian";
lastChange = "2023-01-13 15:29:06 +0000";
layers = (
{
layerId = "96DCC2AB-F6C9-4D02-A366-260ACDE51568";
shapes = (
{
closed = 1;
nodes = (
(694,-13,o),
(750,299,o),
(750,442,cs),
(750,626,o),
(659,727,o),
(487,727,cs),
(400,727,o),
(323,700,o),
(261,643,c),
(193,727,l),
(115,663,l),
(194,565,l),
(156,511,o),
(127,440,o),
(108,352,cs),
(34,0,l),
(133,0,l),
(206,341,ls),
(247,537,o),
(341,637,o),
(481,637,cs),
(598,637,o),
(654,571,o),
(654,437,cs),
(654,353,o),
(626,69,o),
(478,69,cs),
(420,69,o),
(385,104,o),
(385,167,cs),
(385,234,o),
(410,312,o),
(484,329,c),
(465,240,l),
(521,240,l),
(570,472,l),
(514,472,l),
(497,387,l),
(372,367,o),
(324,249,o),
(324,150,cs),
(324,50,o),
(383,-13,o),
(483,-13,cs)
);
}
);
width = 795;
}
);
metricLeft = "jjeCarrier-canadian";
metricRight = "jeCarrier-canadian";
note = uni161F;
unicode = 5663;
},
{
color = 9;
glyphname = "jjiCarrier-canadian";
lastChange = "2023-01-13 15:29:06 +0000";
layers = (
{
layerId = "96DCC2AB-F6C9-4D02-A366-260ACDE51568";
shapes = (
{
closed = 1;
nodes = (
(644,-13,o),
(713,181,o),
(739,346,cs),
(774,584,o),
(684,727,o),
(485,727,cs),
(396,727,o),
(320,699,o),
(260,644,c),
(193,727,l),
(115,663,l),
(193,567,l),
(155,511,o),
(127,439,o),
(108,352,cs),
(33,0,l),
(133,0,l),
(205,341,ls),
(247,537,o),
(341,637,o),
(481,637,cs),
(616,637,o),
(671,542,o),
(645,354,cs),
(627,236,o),
(593,69,o),
(477,69,cs),
(410,69,o),
(378,116,o),
(388,195,cs),
(392,244,o),
(409,292,o),
(455,311,c),
(465,294,o),
(485,283,o),
(508,283,cs),
(550,283,o),
(580,317,o),
(580,358,cs),
(580,399,o),
(549,431,o),
(508,431,cs),
(465,431,o),
(437,398,o),
(435,361,c),
(368,331,o),
(337,262,o),
(329,190,cs),
(311,67,o),
(373,-13,o),
(483,-13,cs)
);
}
);
width = 790;
}
);
metricLeft = "jjeCarrier-canadian";
metricRight = "jeCarrier-canadian";
note = uni1620;
unicode = 5664;
},
{
color = 9;
glyphname = "jjaCarrier-canadian";
lastChange = "2023-01-13 15:29:06 +0000";
layers = (
{
layerId = "96DCC2AB-F6C9-4D02-A366-260ACDE51568";
shapes = (
{
closed = 1;
nodes = (
(442,-13,o),
(519,14,o),
(581,71,c),
(649,-13,l),
(727,51,l),
(648,149,l),
(686,204,o),
(715,274,o),
(733,362,cs),
(808,714,l),
(709,714,l),
(636,373,ls),
(594,177,o),
(500,77,o),
(361,77,cs),
(244,77,o),
(188,143,o),
(188,277,cs),
(188,358,o),
(216,645,o),
(351,645,cs),
(402,645,o),
(431,613,o),
(431,557,cs),
(431,487,o),
(397,397,o),
(301,397,cs),
(284,397,o),
(273,398,o),
(264,401,c),
(248,322,l),
(262,318,o),
(282,315,o),
(302,315,cs),
(457,315,o),
(517,454,o),
(517,564,cs),
(517,664,o),
(458,727,o),
(359,727,cs),
(148,727,o),
(92,415,o),
(92,272,cs),
(92,88,o),
(183,-13,o),
(355,-13,cs)
);
}
);
width = 796;
}
);
metricLeft = "=|jeCarrier-canadian";
metricRight = "=|jjeCarrier-canadian";
note = uni1621;
unicode = 5665;
},
{
color = 9;
glyphname = "luCarrier-canadian";
lastChange = "2023-01-13 15:28:23 +0000";
layers = (
{
layerId = "96DCC2AB-F6C9-4D02-A366-260ACDE51568";
shapes = (
{
closed = 1;
nodes = (
(524,-13,o),
(634,86,o),
(676,280,cs),
(768,714,l),
(668,714,l),
(579,292,ls),
(548,148,o),
(475,77,o),
(356,77,cs),
(241,77,o),
(178,143,o),
(178,257,cs),
(178,420,o),
(283,622,o),
(482,634,c),
(499,714,l),
(162,714,l),
(145,631,l),
(351,631,l),
(425,659,l),
(209,641,o),
(79,442,o),
(79,249,cs),
(79,90,o),
(182,-13,o),
(353,-13,cs)
);
}
);
width = 739;
}
);
metricRight = "te-canadian";
note = uni1622;
unicode = 5666;
},
{
color = 9;
glyphname = "loCarrier-canadian";
lastChange = "2023-01-13 15:28:23 +0000";
layers = (
{
layerId = "96DCC2AB-F6C9-4D02-A366-260ACDE51568";
shapes = (
{
closed = 1;
nodes = (
(118,0,l),
(207,422,ls),
(238,566,o),
(311,637,o),
(430,637,cs),
(545,637,o),
(607,571,o),
(607,457,cs),
(607,294,o),
(502,92,o),
(304,80,c),
(287,0,l),
(623,0,l),
(641,83,l),
(435,83,l),
(361,55,l),
(577,73,o),
(707,272,o),
(707,465,cs),
(707,624,o),
(604,727,o),
(433,727,cs),
(261,727,o),
(152,628,o),
(110,434,cs),
(18,0,l)
);
}
);
width = 739;
}
);
metricLeft = "te-canadian";
metricRight = "=|luCarrier-canadian";
note = uni1623;
unicode = 5667;
},
{
color = 9;
glyphname = "leCarrier-canadian";
lastChange = "2023-01-13 15:29:06 +0000";
layers = (
{
anchors = (
{
name = middle_center_can;
pos = (381,360);
}
);
layerId = "96DCC2AB-F6C9-4D02-A366-260ACDE51568";
shapes = (
{
closed = 1;
nodes = (
(263,0,ls),
(592,0,o),
(685,257,o),
(685,450,cs),
(685,617,o),
(599,727,o),
(457,727,cs),
(348,727,o),
(260,661,o),
(216,545,c),
(227,544,l),
(263,714,l),
(173,714,l),
(106,395,l),
(190,395,l),
(230,550,o),
(314,637,o),
(426,637,cs),
(529,637,o),
(587,563,o),
(587,442,cs),
(587,283,o),
(504,90,o),
(273,90,cs),
(40,90,l),
(21,0,l)
);
}
);
width = 718;
}
);
metricRight = "theCarrier-canadian";
note = uni1624;
unicode = 5668;
},
{
color = 9;
glyphname = "laCarrier-canadian";
lastChange = "2023-01-13 15:29:06 +0000";
layers = (
{
layerId = "96DCC2AB-F6C9-4D02-A366-260ACDE51568";
shapes = (
{
closed = 1;
nodes = (
(592,0,l),
(611,90,l),
(397,90,ls),
(250,90,o),
(180,157,o),
(180,285,cs),
(180,416,o),
(249,637,o),
(437,637,cs),
(557,637,o),
(617,543,o),
(592,395,c),
(676,395,l),
(744,714,l),
(654,714,l),
(615,527,l),
(625,526,l),
(623,650,o),
(549,727,o),
(428,727,cs),
(187,727,o),
(81,459,o),
(81,279,cs),
(81,102,o),
(184,0,o),
(384,0,cs)
);
}
);
width = 719;
}
);
metricLeft = "=|theCarrier-canadian";
metricRight = "=|leCarrier-canadian";
note = uni1627;
unicode = 5671;
},
{
color = 1;
glyphname = "dluCarrier-canadian";
lastChange = "2023-01-13 15:29:06 +0000";
layers = (
{
layerId = "96DCC2AB-F6C9-4D02-A366-260ACDE51568";
shapes = (
{
closed = 1;
nodes = (
(602,-13,o),
(690,243,o),
(690,404,cs),
(690,547,o),
(614,642,o),
(480,665,c),
(515,638,l),
(742,638,l),
(724,554,l),
(799,554,l),
(851,798,l),
(776,798,l),
(758,714,l),
(437,714,l),
(420,633,l),
(534,620,o),
(596,545,o),
(596,422,cs),
(596,303,o),
(539,77,o),
(339,77,cs),
(209,77,o),
(152,162,o),
(183,310,cs),
(268,714,l),
(169,714,l),
(84,314,ls),
(41,113,o),
(139,-13,o),
(334,-13,cs)
);
}
);
width = 786;
}
);
metricLeft = "te-canadian";
note = uni1628;
unicode = 5672;
},
{
color = 9;
glyphname = "dloCarrier-canadian";
lastChange = "2023-01-13 15:29:06 +0000";
layers = (
{
layerId = "96DCC2AB-F6C9-4D02-A366-260ACDE51568";
shapes = (
{
closed = 1;
nodes = (
(665,-84,l),
(717,160,l),
(642,160,l),
(624,77,l),
(432,77,l),
(426,67,l),
(598,100,o),
(707,285,o),
(707,465,cs),
(707,624,o),
(604,727,o),
(433,727,cs),
(261,727,o),
(152,628,o),
(110,434,cs),
(18,0,l),
(118,0,l),
(207,422,ls),
(238,566,o),
(311,637,o),
(430,637,cs),
(545,637,o),
(607,571,o),
(607,457,cs),
(607,294,o),
(502,92,o),
(304,80,c),
(287,0,l),
(609,0,l),
(590,-84,l)
);
}
);
width = 788;
}
);
metricLeft = "te-canadian";
metricRight = "dluCarrier-canadian";
note = uni1629;
unicode = 5673;
},
{
color = 9;
glyphname = "dleCarrier-canadian";
lastChange = "2023-01-13 15:29:06 +0000";
layers = (
{
anchors = (
{
name = middle_center_can;
pos = (393,360);
}
);
layerId = "96DCC2AB-F6C9-4D02-A366-260ACDE51568";
shapes = (
{
closed = 1;
nodes = (
(275,0,ls),
(605,0,o),
(698,257,o),
(698,450,cs),
(698,617,o),
(611,727,o),
(469,727,cs),
(357,727,o),
(251,650,o),
(202,518,c),
(213,518,l),
(256,724,l),
(343,724,l),
(358,796,l),
(122,796,l),
(107,724,l),
(188,724,l),
(118,395,l),
(202,395,l),
(242,550,o),
(326,637,o),
(438,637,cs),
(541,637,o),
(599,563,o),
(599,442,cs),
(599,283,o),
(517,90,o),
(285,90,cs),
(53,90,l),
(34,0,l)
);
}
);
width = 731;
}
);
metricRight = "theCarrier-canadian";
note = uni162A;
unicode = 5674;
},
{
color = 9;
glyphname = "dlaCarrier-canadian";
lastChange = "2023-01-13 15:29:06 +0000";
layers = (
{
layerId = "96DCC2AB-F6C9-4D02-A366-260ACDE51568";
shapes = (
{
closed = 1;
nodes = (
(592,0,l),
(611,90,l),
(397,90,ls),
(250,90,o),
(180,157,o),
(180,285,cs),
(180,416,o),
(249,637,o),
(437,637,cs),
(557,637,o),
(617,543,o),
(592,395,c),
(676,395,l),
(746,724,l),
(826,724,l),
(841,796,l),
(606,796,l),
(591,724,l),
(672,724,l),
(629,525,l),
(639,523,l),
(637,650,o),
(549,727,o),
(428,727,cs),
(187,727,o),
(81,459,o),
(81,279,cs),
(81,102,o),
(184,0,o),
(384,0,cs)
);
}
);
width = 731;
}
);
metricLeft = "=|theCarrier-canadian";
metricRight = "=|dleCarrier-canadian";
note = uni162D;
unicode = 5677;
},
{
color = 9;
glyphname = "lhuCarrier-canadian";
lastChange = "2023-01-13 15:28:23 +0000";
layers = (
{
layerId = "96DCC2AB-F6C9-4D02-A366-260ACDE51568";
shapes = (
{
closed = 1;
nodes = (
(623,-13,o),
(728,212,o),
(728,403,cs),
(728,535,o),
(668,631,o),
(560,662,c),
(592,629,l),
(792,629,l),
(810,714,l),
(546,714,l),
(529,634,l),
(597,602,o),
(633,528,o),
(633,431,cs),
(633,291,o),
(571,77,o),
(380,77,cs),
(259,77,o),
(189,151,o),
(189,275,cs),
(189,398,o),
(252,590,o),
(409,634,c),
(426,714,l),
(162,714,l),
(144,629,l),
(349,629,l),
(394,666,l),
(186,632,o),
(90,433,o),
(90,265,cs),
(90,96,o),
(200,-13,o),
(379,-13,cs)
);
}
);
width = 774;
}
);
metricLeft = "luCarrier-canadian";
metricRight = "=|";
note = uni162E;
unicode = 5678;
},
{
color = 9;
glyphname = "lhoCarrier-canadian";
lastChange = "2023-01-13 15:28:23 +0000";
layers = (
{
layerId = "96DCC2AB-F6C9-4D02-A366-260ACDE51568";
shapes = (
{
closed = 1;
nodes = (
(274,0,l),
(291,80,l),
(224,112,o),
(188,186,o),
(188,283,cs),
(188,423,o),
(249,637,o),
(440,637,cs),
(561,637,o),
(631,563,o),
(631,439,cs),
(631,316,o),
(569,124,o),
(412,80,c),
(394,0,l),
(658,0,l),
(676,85,l),
(472,85,l),
(426,48,l),
(634,82,o),
(731,281,o),
(731,449,cs),
(731,618,o),
(621,727,o),
(442,727,cs),
(198,727,o),
(92,502,o),
(92,311,cs),
(92,179,o),
(153,83,o),
(260,52,c),
(228,85,l),
(28,85,l),
(10,0,l)
);
}
);
width = 774;
}
);
metricLeft = "luCarrier-canadian";
metricRight = "=|";
note = uni162F;
unicode = 5679;
},
{
color = 9;
glyphname = "lheCarrier-canadian";
lastChange = "2023-01-13 15:29:06 +0000";
layers = (
{
anchors = (
{
name = middle_center_can;
pos = (399,357);
}
);
layerId = "96DCC2AB-F6C9-4D02-A366-260ACDE51568";
shapes = (
{
closed = 1;
nodes = (
(613,-13,o),
(715,254,o),
(715,443,cs),
(715,615,o),
(622,727,o),
(471,727,cs),
(364,727,o),
(275,669,o),
(230,566,c),
(237,565,l),
(268,714,l),
(179,714,l),
(118,430,l),
(202,430,l),
(246,564,o),
(331,637,o),
(439,637,cs),
(552,637,o),
(616,562,o),
(616,436,cs),
(616,293,o),
(542,77,o),
(359,77,cs),
(240,77,o),
(164,162,o),
(172,284,c),
(87,284,l),
(27,0,l),
(116,0,l),
(154,179,l),
(140,176,l),
(153,62,o),
(245,-13,o),
(372,-13,cs)
);
}
);
width = 750;
}
);
metricLeft = "nunavuth-canadian";
metricRight = "theCarrier-canadian";
note = uni1630;
unicode = 5680;
},
{
color = 9;
glyphname = "lhaCarrier-canadian";
lastChange = "2023-01-13 15:28:23 +0000";
layers = (
{
layerId = "96DCC2AB-F6C9-4D02-A366-260ACDE51568";
shapes = (
{
closed = 1;
nodes = (
(432,-13,o),
(521,45,o),
(567,148,c),
(560,149,l),
(528,0,l),
(617,0,l),
(678,284,l),
(594,284,l),
(550,150,o),
(465,77,o),
(357,77,cs),
(244,77,o),
(180,152,o),
(180,278,cs),
(180,421,o),
(254,637,o),
(437,637,cs),
(556,637,o),
(633,552,o),
(625,430,c),
(709,430,l),
(769,714,l),
(680,714,l),
(642,535,l),
(656,538,l),
(643,652,o),
(551,727,o),
(425,727,cs),
(184,727,o),
(81,460,o),
(81,271,cs),
(81,99,o),
(174,-13,o),
(325,-13,cs)
);
}
);
width = 749;
}
);
metricLeft = "=|theCarrier-canadian";
metricRight = "nunavuth-canadian";
note = uni1633;
unicode = 5683;
},
{
color = 9;
glyphname = "tlhuCarrier-canadian";
lastChange = "2023-01-13 15:28:23 +0000";
layers = (
{
layerId = "96DCC2AB-F6C9-4D02-A366-260ACDE51568";
shapes = (
{
closed = 1;
nodes = (
(623,-13,o),
(728,212,o),
(728,403,cs),
(728,530,o),
(680,628,o),
(574,662,c),
(575,637,l),
(778,637,l),
(760,554,l),
(835,554,l),
(886,798,l),
(812,798,l),
(794,714,l),
(546,714,l),
(529,634,l),
(597,602,o),
(633,528,o),
(633,431,cs),
(633,291,o),
(571,77,o),
(380,77,cs),
(259,77,o),
(189,151,o),
(189,275,cs),
(189,398,o),
(252,590,o),
(409,634,c),
(426,714,l),
(162,714,l),
(144,629,l),
(349,629,l),
(382,662,l),
(165,621,o),
(90,413,o),
(90,265,cs),
(90,96,o),
(200,-13,o),
(379,-13,cs)
);
}
);
width = 813;
}
);
metricLeft = "lhuCarrier-canadian";
note = uni1634;
unicode = 5684;
},
{
color = 9;
glyphname = "tlhoCarrier-canadian";
lastChange = "2023-01-13 15:28:23 +0000";
layers = (
{
layerId = "96DCC2AB-F6C9-4D02-A366-260ACDE51568";
shapes = (
{
closed = 1;
nodes = (
(47,-84,l),
(65,0,l),
(313,0,l),
(330,80,l),
(262,112,o),
(226,186,o),
(226,283,cs),
(226,423,o),
(288,637,o),
(479,637,cs),
(600,637,o),
(670,563,o),
(670,439,cs),
(670,316,o),
(607,124,o),
(450,80,c),
(433,0,l),
(697,0,l),
(715,85,l),
(510,85,l),
(477,52,l),
(694,93,o),
(769,301,o),
(769,449,cs),
(769,618,o),
(659,727,o),
(480,727,cs),
(236,727,o),
(131,502,o),
(131,311,cs),
(131,184,o),
(179,86,o),
(285,52,c),
(284,77,l),
(81,77,l),
(99,160,l),
(24,160,l),
(-27,-84,l)
);
}
);
width = 813;
}
);
metricLeft = "=|tlhuCarrier-canadian";
metricRight = "lhuCarrier-canadian";
note = uni1635;
unicode = 5685;
},
{
color = 9;
glyphname = "tlheCarrier-canadian";
lastChange = "2023-01-13 15:29:06 +0000";
layers = (
{
anchors = (
{
name = middle_center_can;
pos = (406,357);
}
);
layerId = "96DCC2AB-F6C9-4D02-A366-260ACDE51568";
shapes = (
{
closed = 1;
nodes = (
(619,-13,o),
(722,254,o),
(722,443,cs),
(722,615,o),
(629,727,o),
(478,727,cs),
(358,727,o),
(259,655,o),
(207,532,c),
(226,546,l),
(263,724,l),
(344,724,l),
(359,796,l),
(122,796,l),
(107,724,l),
(188,724,l),
(125,430,l),
(209,430,l),
(253,564,o),
(338,637,o),
(446,637,cs),
(559,637,o),
(623,562,o),
(623,436,cs),
(623,293,o),
(549,77,o),
(365,77,cs),
(247,77,o),
(170,162,o),
(178,284,c),
(94,284,l),
(34,0,l),
(123,0,l),
(161,179,l),
(147,176,l),
(160,62,o),
(252,-13,o),
(379,-13,cs)
);
}
);
width = 756;
}
);
metricLeft = "dleCarrier-canadian";
metricRight = "theCarrier-canadian";
note = uni1636;
unicode = 5686;
},
{
color = 9;
glyphname = "tlhaCarrier-canadian";
lastChange = "2023-01-13 15:29:06 +0000";
layers = (
{
layerId = "96DCC2AB-F6C9-4D02-A366-260ACDE51568";
shapes = (
{
closed = 1;
nodes = (
(432,-13,o),
(521,45,o),
(567,148,c),
(560,149,l),
(528,0,l),
(618,0,l),
(678,284,l),
(594,284,l),
(550,150,o),
(465,77,o),
(357,77,cs),
(244,77,o),
(180,152,o),
(180,278,cs),
(180,421,o),
(254,637,o),
(437,637,cs),
(557,637,o),
(633,552,o),
(625,430,c),
(709,430,l),
(772,724,l),
(853,724,l),
(868,796,l),
(631,796,l),
(616,724,l),
(696,724,l),
(655,532,l),
(663,533,l),
(646,654,o),
(553,727,o),
(425,727,cs),
(184,727,o),
(81,460,o),
(81,271,cs),
(81,99,o),
(174,-13,o),
(325,-13,cs)
);
}
);
width = 758;
}
);
metricLeft = "=|theCarrier-canadian";
metricRight = "=|dleCarrier-canadian";
note = uni1639;
unicode = 5689;
},
{
color = 9;
glyphname = "tluCarrier-canadian";
lastChange = "2023-01-13 15:28:23 +0000";
layers = (
{
layerId = "96DCC2AB-F6C9-4D02-A366-260ACDE51568";
shapes = (
{
closed = 1;
nodes = (
(338,-13,o),
(401,31,o),
(441,120,c),
(412,121,l),
(425,36,o),
(485,-13,o),
(578,-13,cs),
(787,-13,o),
(845,258,o),
(845,406,cs),
(845,532,o),
(795,617,o),
(704,651,c),
(683,638,l),
(898,638,l),
(880,554,l),
(955,554,l),
(1007,798,l),
(932,798,l),
(914,714,l),
(607,714,l),
(589,633,l),
(697,620,o),
(750,552,o),
(750,428,cs),
(750,322,o),
(712,75,o),
(575,75,cs),
(503,75,o),
(471,128,o),
(491,219,cs),
(511,313,l),
(415,313,l),
(396,221,ls),
(375,122,o),
(335,75,o),
(269,75,cs),
(206,75,o),
(174,116,o),
(174,201,cs),
(174,321,o),
(237,628,o),
(469,633,c),
(486,714,l),
(163,714,l),
(145,629,l),
(343,629,l),
(325,644,l),
(145,580,o),
(75,349,o),
(75,196,cs),
(75,64,o),
(139,-13,o),
(253,-13,cs)
);
}
);
width = 933;
}
);
metricRight = "tlhuCarrier-canadian";
note = uni163A;
unicode = 5690;
},
{
color = 1;
glyphname = "tloCarrier-canadian";
lastChange = "2023-01-13 15:28:23 +0000";
layers = (
{
layerId = "96DCC2AB-F6C9-4D02-A366-260ACDE51568";
shapes = (
{
closed = 1;
nodes = (
(819,-84,l),
(871,160,l),
(797,160,l),
(779,77,l),
(587,77,l),
(604,64,l),
(791,124,o),
(867,359,o),
(867,518,cs),
(867,650,o),
(802,727,o),
(688,727,cs),
(602,727,o),
(540,682,o),
(500,592,c),
(529,591,l),
(516,677,o),
(456,727,o),
(363,727,cs),
(154,727,o),
(96,456,o),
(96,308,cs),
(96,188,o),
(143,105,o),
(226,69,c),
(249,84,l),
(29,84,l),
(11,0,l),
(335,0,l),
(352,81,l),
(244,94,o),
(191,162,o),
(191,286,cs),
(191,392,o),
(229,639,o),
(366,639,cs),
(438,639,o),
(470,586,o),
(450,495,cs),
(430,401,l),
(526,401,l),
(545,493,ls),
(566,592,o),
(606,639,o),
(672,639,cs),
(735,639,o),
(767,598,o),
(767,513,cs),
(767,393,o),
(704,86,o),
(472,81,c),
(455,0,l),
(763,0,l),
(745,-84,l)
);
}
);
width = 933;
}
);
metricLeft = "tluCarrier-canadian";
metricRight = "tlhuCarrier-canadian";
note = uni163B;
unicode = 5691;
},
{
color = 9;
glyphname = "tleCarrier-canadian";
lastChange = "2023-01-13 15:28:23 +0000";
layers = (
{
anchors = (
{
name = middle_center_can;
pos = (322,357);
}
);
layerId = "96DCC2AB-F6C9-4D02-A366-260ACDE51568";
shapes = (
{
closed = 1;
nodes = (
(555,-13,o),
(672,75,o),
(672,219,cs),
(672,296,o),
(629,355,o),
(560,368,c),
(555,345,l),
(666,358,o),
(742,443,o),
(742,548,cs),
(742,654,o),
(650,727,o),
(505,727,cs),
(376,727,o),
(274,668,o),
(218,558,c),
(224,549,l),
(261,724,l),
(343,724,l),
(358,796,l),
(122,796,l),
(107,724,l),
(187,724,l),
(124,430,l),
(208,430,l),
(246,570,o),
(334,638,o),
(474,638,cs),
(580,638,o),
(641,597,o),
(641,529,cs),
(641,441,o),
(570,399,o),
(475,399,cs),
(431,399,l),
(413,316,l),
(456,316,ls),
(532,316,o),
(576,283,o),
(576,224,cs),
(576,127,o),
(498,76,o),
(391,76,cs),
(244,76,o),
(162,154,o),
(177,284,c),
(93,284,l),
(33,0,l),
(123,0,l),
(161,180,l),
(145,170,l),
(156,58,o),
(256,-13,o),
(401,-13,cs)
);
}
);
width = 757;
}
);
metricLeft = "dleCarrier-canadian";
metricRight = "geCarrier-canadian";
note = uni163C;
unicode = 5692;
},
{
color = 9;
glyphname = "tlaCarrier-canadian";
lastChange = "2023-01-13 15:29:06 +0000";
layers = (
{
layerId = "96DCC2AB-F6C9-4D02-A366-260ACDE51568";
shapes = (
{
closed = 1;
nodes = (
(417,-13,o),
(513,37,o),
(571,131,c),
(561,152,l),
(528,0,l),
(618,0,l),
(679,284,l),
(595,284,l),
(557,144,o),
(469,76,o),
(329,76,cs),
(223,76,o),
(162,117,o),
(162,185,cs),
(162,273,o),
(233,315,o),
(328,315,cs),
(372,315,l),
(390,398,l),
(347,398,ls),
(270,398,o),
(227,431,o),
(227,490,cs),
(227,587,o),
(304,638,o),
(412,638,cs),
(559,638,o),
(641,560,o),
(626,430,c),
(710,430,l),
(772,724,l),
(852,724,l),
(867,796,l),
(631,796,l),
(616,724,l),
(697,724,l),
(653,514,l),
(667,529,l),
(655,651,o),
(552,727,o),
(402,727,cs),
(247,727,o),
(131,639,o),
(131,495,cs),
(131,420,o),
(173,362,o),
(238,347,c),
(243,368,l),
(135,353,o),
(60,270,o),
(60,166,cs),
(60,60,o),
(153,-13,o),
(297,-13,cs)
);
}
);
width = 757;
}
);
metricLeft = "=|geCarrier-canadian";
metricRight = "=|dleCarrier-canadian";
note = uni163F;
unicode = 5695;
},
{
color = 9;
glyphname = "zuCarrier-canadian";
lastChange = "2023-01-13 15:29:06 +0000";
layers = (
{
layerId = "96DCC2AB-F6C9-4D02-A366-260ACDE51568";
shapes = (
{
closed = 1;
nodes = (
(567,-13,o),
(705,108,o),
(705,304,cs),
(705,393,o),
(671,473,o),
(671,538,cs),
(671,594,o),
(700,628,o),
(760,628,cs),
(791,628,l),
(809,714,l),
(760,714,ls),
(642,714,o),
(577,656,o),
(577,542,cs),
(577,469,o),
(609,394,o),
(609,310,cs),
(609,169,o),
(518,77,o),
(368,77,cs),
(246,77,o),
(171,134,o),
(171,223,cs),
(171,363,o),
(333,479,o),
(333,605,cs),
(333,671,o),
(285,714,o),
(206,714,cs),
(160,714,l),
(142,628,l),
(178,628,ls),
(218,628,o),
(236,614,o),
(236,586,cs),
(236,501,o),
(73,380,o),
(73,210,cs),
(73,77,o),
(184,-13,o),
(359,-13,cs)
);
}
);
width = 771;
}
);
metricRight = "=|";
note = uni1640;
unicode = 5696;
},
